%TF.GenerationSoftware,KiCad,Pcbnew,8.0.5-8.0.5-0~ubuntu22.04.1*%
%TF.CreationDate,2024-10-09T17:19:14-04:00*%
%TF.ProjectId,blinkencap,626c696e-6b65-46e6-9361-702e6b696361,1.0*%
%TF.SameCoordinates,Original*%
%TF.FileFunction,Legend,Top*%
%TF.FilePolarity,Positive*%
%FSLAX46Y46*%
G04 Gerber Fmt 4.6, Leading zero omitted, Abs format (unit mm)*
G04 Created by KiCad (PCBNEW 8.0.5-8.0.5-0~ubuntu22.04.1) date 2024-10-09 17:19:14*
%MOMM*%
%LPD*%
G01*
G04 APERTURE LIST*
%ADD10C,0.000000*%
%ADD11C,0.163700*%
%ADD12C,1.003436*%
G04 APERTURE END LIST*
D10*
%TO.C,ASICCAP_SILK*%
G36*
X77162108Y-51594665D02*
G01*
X74890185Y-52235980D01*
X71617522Y-40908963D01*
X73990565Y-40437787D01*
X77162108Y-51594665D01*
G37*
G36*
X68552916Y-54176574D02*
G01*
X65962329Y-55037601D01*
X65072257Y-52991786D01*
X64132624Y-53289325D01*
X64747649Y-55441402D01*
X61987883Y-56358825D01*
X59445566Y-46064227D01*
X62013339Y-46064227D01*
X62413566Y-47715141D01*
X62767211Y-49122742D01*
X63074426Y-50287655D01*
X63335364Y-51210506D01*
X64240050Y-50937747D01*
X63751523Y-49904023D01*
X63217737Y-48747626D01*
X62638430Y-47467909D01*
X62013339Y-46064227D01*
X59445566Y-46064227D01*
X58907160Y-43884063D01*
X62865468Y-42908462D01*
X68552916Y-54176574D01*
G37*
D11*
X93703558Y-60007450D02*
X94108642Y-60015947D01*
X94451154Y-60030199D01*
X94745467Y-60051526D01*
X95005954Y-60081249D01*
X95246988Y-60120689D01*
X95482942Y-60171167D01*
X95728190Y-60234004D01*
X96115717Y-60348929D01*
X96493657Y-60479364D01*
X96860849Y-60624458D01*
X97216132Y-60783363D01*
X97558346Y-60955226D01*
X97886331Y-61139199D01*
X98198926Y-61334430D01*
X98494970Y-61540070D01*
X98773303Y-61755268D01*
X99032765Y-61979174D01*
X99272196Y-62210938D01*
X99490433Y-62449710D01*
X99686319Y-62694639D01*
X99858690Y-62944874D01*
X100006389Y-63199567D01*
X100128253Y-63457866D01*
X100143826Y-63498000D01*
X100158962Y-63542629D01*
X100173583Y-63591284D01*
X100187610Y-63643494D01*
X100200965Y-63698787D01*
X100213570Y-63756693D01*
X100236215Y-63878463D01*
X100254919Y-64005037D01*
X100269055Y-64132649D01*
X100274214Y-64195669D01*
X100277996Y-64257536D01*
X100280322Y-64317780D01*
X100281115Y-64375930D01*
X100278295Y-64496735D01*
X100269689Y-64610777D01*
X100255078Y-64718387D01*
X100234245Y-64819896D01*
X100206971Y-64915636D01*
X100190851Y-64961445D01*
X100173039Y-65005935D01*
X100153508Y-65049149D01*
X100132230Y-65091126D01*
X100109179Y-65131909D01*
X100084326Y-65171539D01*
X100057646Y-65210058D01*
X100029109Y-65247506D01*
X99998690Y-65283924D01*
X99966361Y-65319355D01*
X99895863Y-65387420D01*
X99817398Y-65452030D01*
X99730747Y-65513516D01*
X99635692Y-65572209D01*
X99532014Y-65628440D01*
X99419497Y-65682540D01*
X99307872Y-65726516D01*
X99180734Y-65764652D01*
X99039917Y-65796947D01*
X98887259Y-65823398D01*
X98724592Y-65844006D01*
X98553753Y-65858769D01*
X98376576Y-65867686D01*
X98194897Y-65870755D01*
X98010551Y-65867975D01*
X97825372Y-65859345D01*
X97641196Y-65844863D01*
X97459858Y-65824529D01*
X97283193Y-65798341D01*
X97113036Y-65766298D01*
X96951222Y-65728399D01*
X96799586Y-65684642D01*
X96799586Y-65684524D01*
X96591022Y-65615238D01*
X96391083Y-65542600D01*
X96195101Y-65463549D01*
X95998407Y-65375019D01*
X95796333Y-65273948D01*
X95584211Y-65157273D01*
X95357373Y-65021929D01*
X95111151Y-64864854D01*
X94840877Y-64682985D01*
X94541882Y-64473257D01*
X94209498Y-64232607D01*
X93839057Y-63957972D01*
X92965332Y-63294494D01*
X91883361Y-62458316D01*
X91478305Y-62155737D01*
X91060495Y-61865187D01*
X90644999Y-61595393D01*
X90246883Y-61355083D01*
X89881212Y-61152983D01*
X89715253Y-61068990D01*
X89563055Y-60997821D01*
X89426502Y-60940569D01*
X89307477Y-60898324D01*
X89207864Y-60872177D01*
X89129546Y-60863219D01*
X89088267Y-60862660D01*
X89050922Y-60861005D01*
X89017472Y-60858289D01*
X88987878Y-60854547D01*
X88962102Y-60849814D01*
X88940104Y-60844124D01*
X88921845Y-60837513D01*
X88907286Y-60830013D01*
X88896389Y-60821662D01*
X88889113Y-60812493D01*
X88885421Y-60802540D01*
X88885273Y-60791840D01*
X88888630Y-60780426D01*
X88895454Y-60768333D01*
X88905704Y-60755596D01*
X88919343Y-60742249D01*
X88936331Y-60728328D01*
X88956629Y-60713867D01*
X88980198Y-60698900D01*
X89006999Y-60683463D01*
X89036994Y-60667591D01*
X89070142Y-60651317D01*
X89106406Y-60634677D01*
X89145746Y-60617705D01*
X89233498Y-60582906D01*
X89333086Y-60547198D01*
X89444198Y-60510857D01*
X89566523Y-60474162D01*
X90065843Y-60334912D01*
X90502755Y-60225110D01*
X90705665Y-60180241D01*
X90902400Y-60141520D01*
X91096104Y-60108542D01*
X91289918Y-60080902D01*
X91486986Y-60058195D01*
X91690450Y-60040018D01*
X91903452Y-60025964D01*
X92129135Y-60015629D01*
X92631115Y-60004498D01*
X93221530Y-60003387D01*
X93703558Y-60007450D01*
G36*
X93703558Y-60007450D02*
G01*
X94108642Y-60015947D01*
X94451154Y-60030199D01*
X94745467Y-60051526D01*
X95005954Y-60081249D01*
X95246988Y-60120689D01*
X95482942Y-60171167D01*
X95728190Y-60234004D01*
X96115717Y-60348929D01*
X96493657Y-60479364D01*
X96860849Y-60624458D01*
X97216132Y-60783363D01*
X97558346Y-60955226D01*
X97886331Y-61139199D01*
X98198926Y-61334430D01*
X98494970Y-61540070D01*
X98773303Y-61755268D01*
X99032765Y-61979174D01*
X99272196Y-62210938D01*
X99490433Y-62449710D01*
X99686319Y-62694639D01*
X99858690Y-62944874D01*
X100006389Y-63199567D01*
X100128253Y-63457866D01*
X100143826Y-63498000D01*
X100158962Y-63542629D01*
X100173583Y-63591284D01*
X100187610Y-63643494D01*
X100200965Y-63698787D01*
X100213570Y-63756693D01*
X100236215Y-63878463D01*
X100254919Y-64005037D01*
X100269055Y-64132649D01*
X100274214Y-64195669D01*
X100277996Y-64257536D01*
X100280322Y-64317780D01*
X100281115Y-64375930D01*
X100278295Y-64496735D01*
X100269689Y-64610777D01*
X100255078Y-64718387D01*
X100234245Y-64819896D01*
X100206971Y-64915636D01*
X100190851Y-64961445D01*
X100173039Y-65005935D01*
X100153508Y-65049149D01*
X100132230Y-65091126D01*
X100109179Y-65131909D01*
X100084326Y-65171539D01*
X100057646Y-65210058D01*
X100029109Y-65247506D01*
X99998690Y-65283924D01*
X99966361Y-65319355D01*
X99895863Y-65387420D01*
X99817398Y-65452030D01*
X99730747Y-65513516D01*
X99635692Y-65572209D01*
X99532014Y-65628440D01*
X99419497Y-65682540D01*
X99307872Y-65726516D01*
X99180734Y-65764652D01*
X99039917Y-65796947D01*
X98887259Y-65823398D01*
X98724592Y-65844006D01*
X98553753Y-65858769D01*
X98376576Y-65867686D01*
X98194897Y-65870755D01*
X98010551Y-65867975D01*
X97825372Y-65859345D01*
X97641196Y-65844863D01*
X97459858Y-65824529D01*
X97283193Y-65798341D01*
X97113036Y-65766298D01*
X96951222Y-65728399D01*
X96799586Y-65684642D01*
X96799586Y-65684524D01*
X96591022Y-65615238D01*
X96391083Y-65542600D01*
X96195101Y-65463549D01*
X95998407Y-65375019D01*
X95796333Y-65273948D01*
X95584211Y-65157273D01*
X95357373Y-65021929D01*
X95111151Y-64864854D01*
X94840877Y-64682985D01*
X94541882Y-64473257D01*
X94209498Y-64232607D01*
X93839057Y-63957972D01*
X92965332Y-63294494D01*
X91883361Y-62458316D01*
X91478305Y-62155737D01*
X91060495Y-61865187D01*
X90644999Y-61595393D01*
X90246883Y-61355083D01*
X89881212Y-61152983D01*
X89715253Y-61068990D01*
X89563055Y-60997821D01*
X89426502Y-60940569D01*
X89307477Y-60898324D01*
X89207864Y-60872177D01*
X89129546Y-60863219D01*
X89088267Y-60862660D01*
X89050922Y-60861005D01*
X89017472Y-60858289D01*
X88987878Y-60854547D01*
X88962102Y-60849814D01*
X88940104Y-60844124D01*
X88921845Y-60837513D01*
X88907286Y-60830013D01*
X88896389Y-60821662D01*
X88889113Y-60812493D01*
X88885421Y-60802540D01*
X88885273Y-60791840D01*
X88888630Y-60780426D01*
X88895454Y-60768333D01*
X88905704Y-60755596D01*
X88919343Y-60742249D01*
X88936331Y-60728328D01*
X88956629Y-60713867D01*
X88980198Y-60698900D01*
X89006999Y-60683463D01*
X89036994Y-60667591D01*
X89070142Y-60651317D01*
X89106406Y-60634677D01*
X89145746Y-60617705D01*
X89233498Y-60582906D01*
X89333086Y-60547198D01*
X89444198Y-60510857D01*
X89566523Y-60474162D01*
X90065843Y-60334912D01*
X90502755Y-60225110D01*
X90705665Y-60180241D01*
X90902400Y-60141520D01*
X91096104Y-60108542D01*
X91289918Y-60080902D01*
X91486986Y-60058195D01*
X91690450Y-60040018D01*
X91903452Y-60025964D01*
X92129135Y-60015629D01*
X92631115Y-60004498D01*
X93221530Y-60003387D01*
X93703558Y-60007450D01*
G37*
D12*
X57057793Y-35224814D02*
X57061673Y-35229910D01*
X57059530Y-35237831D01*
X57051451Y-35248560D01*
X57017828Y-35278377D01*
X56961491Y-35319227D01*
X56883129Y-35370980D01*
X56663085Y-35506661D01*
X56439108Y-35648982D01*
X56225666Y-35800338D01*
X56022603Y-35960957D01*
X55829764Y-36131062D01*
X55646995Y-36310878D01*
X55474139Y-36500631D01*
X55311041Y-36700545D01*
X55157548Y-36910844D01*
X55013503Y-37131755D01*
X54878751Y-37363501D01*
X54753137Y-37606307D01*
X54636505Y-37860399D01*
X54528702Y-38126001D01*
X54429571Y-38403338D01*
X54338958Y-38692635D01*
X54256707Y-38994117D01*
X54207266Y-39209975D01*
X54160283Y-39457014D01*
X54074516Y-40032703D01*
X54001051Y-40697320D01*
X53941533Y-41426998D01*
X53897607Y-42197872D01*
X53870919Y-42986077D01*
X53863114Y-43767747D01*
X53875836Y-44519017D01*
X53892947Y-44939228D01*
X53917686Y-45342220D01*
X53951987Y-45735573D01*
X53997787Y-46126864D01*
X54057020Y-46523674D01*
X54131621Y-46933580D01*
X54223526Y-47364161D01*
X54334668Y-47822996D01*
X54466984Y-48317663D01*
X54622408Y-48855741D01*
X54802876Y-49444808D01*
X55010322Y-50092444D01*
X55513889Y-51593734D01*
X56148591Y-53420241D01*
X56511542Y-54488935D01*
X56812597Y-55451319D01*
X57051941Y-56308286D01*
X57229764Y-57060726D01*
X57295663Y-57398027D01*
X57346251Y-57709530D01*
X57381552Y-57995348D01*
X57401590Y-58255591D01*
X57406388Y-58490371D01*
X57395969Y-58699799D01*
X57370356Y-58883986D01*
X57329573Y-59043044D01*
X57312795Y-59090120D01*
X57293907Y-59136014D01*
X57272867Y-59180773D01*
X57249636Y-59224446D01*
X57224172Y-59267081D01*
X57196435Y-59308725D01*
X57166382Y-59349427D01*
X57133974Y-59389235D01*
X57099169Y-59428196D01*
X57061926Y-59466359D01*
X57022204Y-59503772D01*
X56979963Y-59540482D01*
X56935162Y-59576537D01*
X56887758Y-59611987D01*
X56837713Y-59646878D01*
X56784983Y-59681258D01*
X56673025Y-59755061D01*
X56515961Y-59863170D01*
X56095318Y-60161615D01*
X55580655Y-60535207D01*
X55029572Y-60942557D01*
X53696007Y-61937556D01*
X48273419Y-63738673D01*
X44368583Y-65027449D01*
X42595051Y-65596763D01*
X42566573Y-65602125D01*
X42537125Y-65605795D01*
X42506884Y-65607806D01*
X42476025Y-65608197D01*
X42444722Y-65607001D01*
X42413152Y-65604256D01*
X42381489Y-65599997D01*
X42349909Y-65594260D01*
X42318587Y-65587082D01*
X42287698Y-65578497D01*
X42257418Y-65568542D01*
X42227921Y-65557253D01*
X42199382Y-65544665D01*
X42171978Y-65530816D01*
X42145884Y-65515739D01*
X42121274Y-65499473D01*
X42121276Y-65499473D01*
X42069466Y-65458599D01*
X42019515Y-65410633D01*
X41971426Y-65355598D01*
X41925203Y-65293517D01*
X41880849Y-65224412D01*
X41838368Y-65148306D01*
X41797762Y-65065223D01*
X41759037Y-64975184D01*
X41722194Y-64878212D01*
X41687238Y-64774331D01*
X41622998Y-64545930D01*
X41566347Y-64290162D01*
X41517310Y-64007209D01*
X41475917Y-63697254D01*
X41442194Y-63360478D01*
X41416169Y-62997064D01*
X41397871Y-62607192D01*
X41387327Y-62191046D01*
X41384564Y-61748807D01*
X41389611Y-61280656D01*
X41402495Y-60786777D01*
X41482579Y-59105534D01*
X41609518Y-57484127D01*
X41783701Y-55921437D01*
X42005522Y-54416344D01*
X42275371Y-52967730D01*
X42593641Y-51574476D01*
X42960722Y-50235463D01*
X43377008Y-48949574D01*
X43842888Y-47715688D01*
X44358756Y-46532687D01*
X44925002Y-45399453D01*
X45542019Y-44314866D01*
X46210198Y-43277808D01*
X46929930Y-42287161D01*
X47701608Y-41341805D01*
X48525622Y-40440621D01*
X48917352Y-40045615D01*
X49315040Y-39664853D01*
X49719076Y-39298080D01*
X50129845Y-38945039D01*
X50547735Y-38605476D01*
X50973134Y-38279134D01*
X51406429Y-37965757D01*
X51848007Y-37665090D01*
X52298255Y-37376878D01*
X52757561Y-37100863D01*
X53226313Y-36836791D01*
X53704897Y-36584405D01*
X54193701Y-36343451D01*
X54693112Y-36113672D01*
X55203517Y-35894812D01*
X55725304Y-35686616D01*
X56218351Y-35498546D01*
X56593004Y-35359898D01*
X56854769Y-35269614D01*
X56945041Y-35242278D01*
X57009156Y-35226637D01*
X57047804Y-35222558D01*
X57057793Y-35224814D01*
X83381863Y-52474000D02*
X83941349Y-52523031D01*
X84482364Y-52599766D01*
X85008336Y-52703942D01*
X85522693Y-52835297D01*
X86028861Y-52993568D01*
X86360396Y-53111263D01*
X86514887Y-53170071D01*
X86663595Y-53229751D01*
X86807821Y-53290979D01*
X86948865Y-53354427D01*
X87088027Y-53420772D01*
X87226609Y-53490685D01*
X87365911Y-53564844D01*
X87507234Y-53643920D01*
X87651877Y-53728589D01*
X87801143Y-53819526D01*
X88118741Y-54022897D01*
X88470435Y-54259429D01*
X88648170Y-54378436D01*
X88842622Y-54503827D01*
X89047488Y-54631829D01*
X89256463Y-54758670D01*
X89463243Y-54880580D01*
X89661526Y-54993785D01*
X89845006Y-55094515D01*
X90007380Y-55178996D01*
X90462807Y-55415153D01*
X91166221Y-55788979D01*
X92021626Y-56249115D01*
X92933024Y-56744205D01*
X94991449Y-57873122D01*
X96013199Y-58429979D01*
X96860903Y-58882987D01*
X97757982Y-59367900D01*
X98162714Y-59599839D01*
X98538885Y-59826207D01*
X98886980Y-60048086D01*
X99207482Y-60266558D01*
X99500876Y-60482704D01*
X99767646Y-60697607D01*
X100008274Y-60912346D01*
X100223246Y-61128004D01*
X100413044Y-61345663D01*
X100578153Y-61566404D01*
X100719057Y-61791308D01*
X100836240Y-62021456D01*
X100930185Y-62257932D01*
X101001376Y-62501815D01*
X101011236Y-62546476D01*
X101018114Y-62586384D01*
X101022120Y-62621677D01*
X101023364Y-62652494D01*
X101021956Y-62678973D01*
X101018006Y-62701251D01*
X101011625Y-62719467D01*
X101002921Y-62733759D01*
X100997734Y-62739476D01*
X100992007Y-62744265D01*
X100985754Y-62748141D01*
X100978991Y-62751123D01*
X100963983Y-62754471D01*
X100947095Y-62754447D01*
X100928435Y-62751190D01*
X100908114Y-62744837D01*
X100886243Y-62735527D01*
X100862931Y-62723398D01*
X100838288Y-62708587D01*
X100812425Y-62691233D01*
X100785451Y-62671475D01*
X100757478Y-62649449D01*
X100698970Y-62599149D01*
X100637782Y-62541439D01*
X100574796Y-62477423D01*
X100510891Y-62408207D01*
X100446950Y-62334894D01*
X100383853Y-62258590D01*
X100187977Y-62042043D01*
X99970918Y-61823725D01*
X99734269Y-61604970D01*
X99479622Y-61387112D01*
X99208570Y-61171486D01*
X98922705Y-60959426D01*
X98623620Y-60752267D01*
X98312908Y-60551343D01*
X97992160Y-60357989D01*
X97662971Y-60173539D01*
X97326931Y-59999327D01*
X96985634Y-59836689D01*
X96640673Y-59686957D01*
X96293639Y-59551467D01*
X95946126Y-59431554D01*
X95599726Y-59328551D01*
X95142107Y-59221062D01*
X94660395Y-59140903D01*
X94156510Y-59087781D01*
X93632366Y-59061404D01*
X93089881Y-59061478D01*
X92530972Y-59087711D01*
X91957555Y-59139810D01*
X91371548Y-59217483D01*
X90774868Y-59320436D01*
X90169431Y-59448376D01*
X89557154Y-59601012D01*
X88939954Y-59778050D01*
X88319748Y-59979197D01*
X87698452Y-60204161D01*
X87077984Y-60452649D01*
X86460261Y-60724368D01*
X85691451Y-61096867D01*
X84902983Y-61516565D01*
X84090797Y-61986066D01*
X83250835Y-62507978D01*
X82379040Y-63084902D01*
X81471353Y-63719446D01*
X80523717Y-64414213D01*
X79532073Y-65171809D01*
X78598480Y-65886968D01*
X77722312Y-66533283D01*
X76898019Y-67112949D01*
X76120052Y-67628161D01*
X75382860Y-68081112D01*
X74680896Y-68473996D01*
X74008610Y-68809007D01*
X73360453Y-69088339D01*
X72730875Y-69314187D01*
X72114327Y-69488744D01*
X71505260Y-69614204D01*
X70898125Y-69692762D01*
X70287372Y-69726611D01*
X69667453Y-69717946D01*
X69032818Y-69668960D01*
X68377917Y-69581847D01*
X68377917Y-69581828D01*
X67889938Y-69495230D01*
X67404421Y-69390129D01*
X66921255Y-69266488D01*
X66440329Y-69124274D01*
X65961532Y-68963451D01*
X65484753Y-68783985D01*
X65009881Y-68585839D01*
X64536807Y-68368979D01*
X64174044Y-68181510D01*
X63725491Y-67927358D01*
X62623062Y-67254575D01*
X61333611Y-66421764D01*
X59961232Y-65500055D01*
X58610016Y-64560582D01*
X57384057Y-63674476D01*
X56387447Y-62912870D01*
X56007677Y-62600983D01*
X55724278Y-62346896D01*
X55674439Y-62299841D01*
X55625931Y-62255873D01*
X55578847Y-62215051D01*
X55533283Y-62177430D01*
X55489332Y-62143066D01*
X55447088Y-62112016D01*
X55406645Y-62084337D01*
X55368098Y-62060085D01*
X55331541Y-62039316D01*
X55297067Y-62022087D01*
X55264771Y-62008454D01*
X55234748Y-61998474D01*
X55207090Y-61992202D01*
X55181893Y-61989697D01*
X55170246Y-61989873D01*
X55159250Y-61991013D01*
X55148916Y-61993122D01*
X55139256Y-61996207D01*
X55116713Y-62004155D01*
X55095272Y-62010314D01*
X55074951Y-62014741D01*
X55055763Y-62017491D01*
X55037724Y-62018620D01*
X55020850Y-62018183D01*
X55005155Y-62016237D01*
X54990656Y-62012837D01*
X54977367Y-62008038D01*
X54965304Y-62001897D01*
X54954482Y-61994469D01*
X54944917Y-61985809D01*
X54936624Y-61975974D01*
X54929618Y-61965019D01*
X54923915Y-61953000D01*
X54919529Y-61939972D01*
X54916477Y-61925992D01*
X54914773Y-61911115D01*
X54914433Y-61895396D01*
X54915473Y-61878891D01*
X54917907Y-61861657D01*
X54921751Y-61843748D01*
X54927020Y-61825221D01*
X54933730Y-61806130D01*
X54941896Y-61786533D01*
X54951533Y-61766484D01*
X54962657Y-61746039D01*
X54975283Y-61725254D01*
X54989426Y-61704185D01*
X55005102Y-61682887D01*
X55022326Y-61661415D01*
X55041114Y-61639827D01*
X55163614Y-61523864D01*
X55338456Y-61387233D01*
X55561414Y-61232156D01*
X55828264Y-61060856D01*
X56134782Y-60875555D01*
X56476743Y-60678475D01*
X57250095Y-60257870D01*
X58114526Y-59816823D01*
X59036239Y-59373113D01*
X59981439Y-58944521D01*
X60452285Y-58741451D01*
X60916329Y-58548827D01*
X61929759Y-58167987D01*
X63512696Y-57609217D01*
X67676965Y-56194918D01*
X71988898Y-54779984D01*
X75028254Y-53838473D01*
X76949812Y-53322880D01*
X77829761Y-53110721D01*
X78660394Y-52928636D01*
X79445138Y-52776362D01*
X80187421Y-52653635D01*
X80890669Y-52560192D01*
X81558310Y-52495771D01*
X82193771Y-52460107D01*
X82800480Y-52452938D01*
X83381863Y-52474000D01*
X60927960Y-33126295D02*
X61135229Y-33141936D01*
X61336539Y-33172259D01*
X61529865Y-33217582D01*
X61622901Y-33245967D01*
X61713183Y-33278221D01*
X61800456Y-33314383D01*
X61884469Y-33354493D01*
X62027558Y-33424218D01*
X62171778Y-33487435D01*
X62317711Y-33544225D01*
X62465943Y-33594669D01*
X62617057Y-33638846D01*
X62771638Y-33676839D01*
X62930269Y-33708727D01*
X63093534Y-33734591D01*
X63262018Y-33754511D01*
X63436304Y-33768569D01*
X63616978Y-33776844D01*
X63804622Y-33779418D01*
X63999821Y-33776371D01*
X64203159Y-33767783D01*
X64415220Y-33753736D01*
X64636588Y-33734309D01*
X66082616Y-33640103D01*
X67498962Y-33642166D01*
X68884120Y-33739723D01*
X70236585Y-33932004D01*
X71554851Y-34218234D01*
X72837413Y-34597642D01*
X74082764Y-35069454D01*
X75289399Y-35632899D01*
X76455813Y-36287203D01*
X77580499Y-37031594D01*
X78661953Y-37865299D01*
X79698667Y-38787546D01*
X80689137Y-39797561D01*
X81631858Y-40894573D01*
X82525322Y-42077808D01*
X83368025Y-43346494D01*
X83717858Y-43930801D01*
X84090580Y-44594254D01*
X84876140Y-46094110D01*
X85667601Y-47717083D01*
X86407861Y-49334194D01*
X87039814Y-50816465D01*
X87506358Y-52034918D01*
X87659756Y-52504907D01*
X87750388Y-52860574D01*
X87771115Y-53085797D01*
X87753034Y-53144454D01*
X87714800Y-53164455D01*
X87699171Y-53162584D01*
X87674589Y-53157098D01*
X87600678Y-53136012D01*
X87497288Y-53102677D01*
X87368640Y-53058570D01*
X87218954Y-53005171D01*
X87052450Y-52943956D01*
X86873350Y-52876405D01*
X86685874Y-52803996D01*
X86144350Y-52598870D01*
X85900571Y-52512856D01*
X85670061Y-52437048D01*
X85449281Y-52370829D01*
X85234692Y-52313579D01*
X85022753Y-52264678D01*
X84809925Y-52223508D01*
X84592669Y-52189449D01*
X84367446Y-52161883D01*
X84130715Y-52140190D01*
X83878938Y-52123750D01*
X83608575Y-52111946D01*
X83316086Y-52104158D01*
X82650572Y-52098151D01*
X82088082Y-52102356D01*
X81548120Y-52117968D01*
X81019548Y-52147529D01*
X80491230Y-52193583D01*
X79952028Y-52258670D01*
X79390805Y-52345332D01*
X78796424Y-52456111D01*
X78157748Y-52593549D01*
X77463639Y-52760188D01*
X76702960Y-52958570D01*
X75864573Y-53191237D01*
X74937343Y-53460730D01*
X72771800Y-54120363D01*
X70117232Y-54957805D01*
X66192318Y-56236582D01*
X62620197Y-57450709D01*
X59849229Y-58444146D01*
X58904292Y-58809343D01*
X58327779Y-59060851D01*
X57843905Y-59304542D01*
X57796549Y-59073688D01*
X57783571Y-58998121D01*
X57764775Y-58871194D01*
X57713287Y-58490507D01*
X57649201Y-57986133D01*
X57579631Y-57412578D01*
X57499936Y-56786183D01*
X57415001Y-56228856D01*
X57368321Y-55967276D01*
X57317635Y-55712382D01*
X57262043Y-55460646D01*
X57200647Y-55208542D01*
X57132547Y-54952543D01*
X57056844Y-54689122D01*
X56879037Y-54125903D01*
X56660032Y-53490670D01*
X56392640Y-52755206D01*
X55837631Y-51207401D01*
X55384376Y-49828944D01*
X55193253Y-49190478D01*
X55024383Y-48579056D01*
X54876706Y-47989581D01*
X54749160Y-47416956D01*
X54640684Y-46856084D01*
X54550216Y-46301866D01*
X54476695Y-45749205D01*
X54419060Y-45193004D01*
X54376248Y-44628166D01*
X54347199Y-44049592D01*
X54326142Y-42830850D01*
X54333563Y-42255051D01*
X54354373Y-41704147D01*
X54388572Y-41178146D01*
X54436157Y-40677054D01*
X54497127Y-40200881D01*
X54571481Y-39749633D01*
X54659216Y-39323319D01*
X54760331Y-38921946D01*
X54874825Y-38545522D01*
X55002696Y-38194055D01*
X55143942Y-37867552D01*
X55298562Y-37566022D01*
X55466554Y-37289472D01*
X55647917Y-37037910D01*
X55842649Y-36811343D01*
X56050748Y-36609780D01*
X56225643Y-36465272D01*
X56422344Y-36319796D01*
X56638578Y-36174372D01*
X56872072Y-36030020D01*
X57120553Y-35887759D01*
X57381747Y-35748607D01*
X57653382Y-35613585D01*
X57933185Y-35483711D01*
X58218882Y-35360005D01*
X58508201Y-35243486D01*
X58798868Y-35135174D01*
X59088612Y-35036086D01*
X59375157Y-34947244D01*
X59656232Y-34869666D01*
X59929564Y-34804370D01*
X60192879Y-34752378D01*
X60420876Y-34709555D01*
X60644473Y-34661808D01*
X60861906Y-34609857D01*
X61071413Y-34554422D01*
X61271233Y-34496225D01*
X61459603Y-34435986D01*
X61634760Y-34374426D01*
X61794943Y-34312267D01*
X61938389Y-34250229D01*
X62063335Y-34189032D01*
X62168020Y-34129399D01*
X62250680Y-34072049D01*
X62309555Y-34017703D01*
X62329521Y-33991883D01*
X62342880Y-33967083D01*
X62349412Y-33943396D01*
X62348895Y-33920910D01*
X62341110Y-33899715D01*
X62325837Y-33879903D01*
X62322343Y-33877944D01*
X62316522Y-33876675D01*
X62298141Y-33876154D01*
X62271188Y-33878231D01*
X62236155Y-33882797D01*
X62193535Y-33889743D01*
X62143821Y-33898960D01*
X62025078Y-33923775D01*
X61883870Y-33956369D01*
X61724137Y-33995873D01*
X61549820Y-34041416D01*
X61364861Y-34092128D01*
X61160520Y-34145795D01*
X60944637Y-34195801D01*
X60491109Y-34283676D01*
X60030003Y-34353434D01*
X59587042Y-34402756D01*
X59187954Y-34429324D01*
X59012901Y-34433350D01*
X58858462Y-34430819D01*
X58727854Y-34421440D01*
X58624293Y-34404923D01*
X58550993Y-34380980D01*
X58526696Y-34366132D01*
X58511170Y-34349319D01*
X58507567Y-34342251D01*
X58504979Y-34334384D01*
X58503394Y-34325738D01*
X58502799Y-34316334D01*
X58503179Y-34306195D01*
X58504522Y-34295341D01*
X58506814Y-34283794D01*
X58510042Y-34271575D01*
X58514192Y-34258706D01*
X58519251Y-34245208D01*
X58525206Y-34231103D01*
X58532044Y-34216411D01*
X58548312Y-34185357D01*
X58567948Y-34152217D01*
X58590847Y-34117161D01*
X58616900Y-34080363D01*
X58646002Y-34041992D01*
X58678044Y-34002221D01*
X58712920Y-33961221D01*
X58750523Y-33919164D01*
X58790746Y-33876222D01*
X58833481Y-33832564D01*
X58900941Y-33768719D01*
X58972730Y-33707633D01*
X59048595Y-33649345D01*
X59128283Y-33593895D01*
X59298115Y-33491668D01*
X59480203Y-33401269D01*
X59672522Y-33323015D01*
X59873049Y-33257223D01*
X60079759Y-33204210D01*
X60290630Y-33164294D01*
X60503636Y-33137791D01*
X60716754Y-33125019D01*
X60927960Y-33126295D01*
D10*
G36*
X49103654Y-49234055D02*
G01*
X49271348Y-49252842D01*
X49438132Y-49285517D01*
X49603572Y-49332075D01*
X49767235Y-49392510D01*
X49928690Y-49466817D01*
X50087502Y-49554991D01*
X50243239Y-49657026D01*
X50395469Y-49772916D01*
X50543757Y-49902656D01*
X50687672Y-50046240D01*
X50826781Y-50203663D01*
X50960650Y-50374920D01*
X51088846Y-50560004D01*
X51210938Y-50758911D01*
X51326491Y-50971634D01*
X51435073Y-51198169D01*
X51536252Y-51438510D01*
X51629594Y-51692651D01*
X51714666Y-51960587D01*
X51791036Y-52242312D01*
X51858270Y-52537821D01*
X51899427Y-52754766D01*
X51933627Y-52970539D01*
X51961005Y-53184954D01*
X51981694Y-53397821D01*
X51995826Y-53608953D01*
X52003536Y-53818161D01*
X52000221Y-54230054D01*
X51972816Y-54631995D01*
X51922387Y-55022478D01*
X51850000Y-55400000D01*
X51756723Y-55763055D01*
X51643621Y-56110137D01*
X51511762Y-56439742D01*
X51362213Y-56750364D01*
X51196039Y-57040499D01*
X51107051Y-57177413D01*
X51014308Y-57308640D01*
X50917941Y-57433994D01*
X50818085Y-57553285D01*
X50714873Y-57666325D01*
X50608439Y-57772926D01*
X50498915Y-57872900D01*
X50386434Y-57966059D01*
X50212932Y-57086417D01*
X50360351Y-56908122D01*
X50498200Y-56713938D01*
X50625916Y-56504818D01*
X50742933Y-56281722D01*
X50848687Y-56045604D01*
X50942613Y-55797422D01*
X51024148Y-55538133D01*
X51092726Y-55268692D01*
X51147783Y-54990057D01*
X51188754Y-54703184D01*
X51215075Y-54409029D01*
X51226182Y-54108550D01*
X51221509Y-53802703D01*
X51200492Y-53492445D01*
X51162568Y-53178732D01*
X51107170Y-52862521D01*
X51054226Y-52625050D01*
X50994006Y-52397829D01*
X50926841Y-52180905D01*
X50853062Y-51974325D01*
X50773000Y-51778135D01*
X50686985Y-51592382D01*
X50595348Y-51417113D01*
X50498419Y-51252375D01*
X50396530Y-51098214D01*
X50290012Y-50954676D01*
X50179194Y-50821810D01*
X50064407Y-50699661D01*
X49945983Y-50588276D01*
X49824253Y-50487701D01*
X49699545Y-50397985D01*
X49572193Y-50319172D01*
X49442525Y-50251311D01*
X49310874Y-50194447D01*
X49177569Y-50148628D01*
X49042942Y-50113900D01*
X48907322Y-50090310D01*
X48771042Y-50077905D01*
X48634431Y-50076730D01*
X48497820Y-50086834D01*
X48361540Y-50108263D01*
X48225922Y-50141063D01*
X48091297Y-50185282D01*
X47957994Y-50240965D01*
X47826346Y-50308160D01*
X47696682Y-50386914D01*
X47569333Y-50477273D01*
X47444630Y-50579283D01*
X47343152Y-50673145D01*
X47245904Y-50773247D01*
X47152908Y-50879257D01*
X47064185Y-50990840D01*
X46979756Y-51107664D01*
X46899643Y-51229394D01*
X46823867Y-51355698D01*
X46752449Y-51486242D01*
X46685411Y-51620692D01*
X46622774Y-51758714D01*
X46564559Y-51899976D01*
X46510787Y-52044144D01*
X46461481Y-52190884D01*
X46416660Y-52339862D01*
X46376347Y-52490746D01*
X46340563Y-52643202D01*
X48155095Y-51316775D01*
X48390891Y-52530821D01*
X47623088Y-52982142D01*
X47797988Y-53895605D01*
X50179630Y-52762034D01*
X50465051Y-54190134D01*
X49385542Y-54560305D01*
X50092394Y-58163855D01*
X50044176Y-58191630D01*
X49995680Y-58218083D01*
X49946910Y-58243213D01*
X49897872Y-58267021D01*
X49848573Y-58289509D01*
X49799018Y-58310676D01*
X49749212Y-58330523D01*
X49699162Y-58349052D01*
X49648873Y-58366262D01*
X49598350Y-58382155D01*
X49547599Y-58396730D01*
X49496627Y-58409989D01*
X49445439Y-58421933D01*
X49394040Y-58432562D01*
X49342436Y-58441876D01*
X49290633Y-58449877D01*
X49285922Y-58449793D01*
X49281203Y-58449664D01*
X49252344Y-58454032D01*
X49223532Y-58458068D01*
X49209124Y-58459863D01*
X49194705Y-58461457D01*
X49180267Y-58462809D01*
X49165803Y-58463881D01*
X49139824Y-58465605D01*
X49114033Y-58467019D01*
X49088375Y-58468123D01*
X49062797Y-58468915D01*
X49037246Y-58469395D01*
X49011669Y-58469560D01*
X48986012Y-58469410D01*
X48960223Y-58468943D01*
X48829576Y-58461383D01*
X48700412Y-58445219D01*
X48572838Y-58420670D01*
X48446963Y-58387956D01*
X48322895Y-58347296D01*
X48200741Y-58298909D01*
X48080611Y-58243016D01*
X47962611Y-58179835D01*
X47846850Y-58109587D01*
X47733435Y-58032491D01*
X47514079Y-57858631D01*
X47305406Y-57660013D01*
X47108280Y-57438393D01*
X46923566Y-57195527D01*
X46752127Y-56933170D01*
X46594828Y-56653080D01*
X46452532Y-56357012D01*
X46326104Y-56046723D01*
X46216409Y-55723969D01*
X46124309Y-55390506D01*
X46050669Y-55048090D01*
X46033661Y-54952555D01*
X46018034Y-54857141D01*
X46003793Y-54761863D01*
X45990939Y-54666733D01*
X45979477Y-54571765D01*
X45969411Y-54476972D01*
X45960744Y-54382367D01*
X45953480Y-54287962D01*
X46215597Y-54145640D01*
X46220829Y-54243670D01*
X46227755Y-54342026D01*
X46236403Y-54440681D01*
X46246797Y-54539612D01*
X46258966Y-54638792D01*
X46272933Y-54738198D01*
X46288727Y-54837804D01*
X46306373Y-54937586D01*
X46336705Y-55088292D01*
X46371202Y-55236926D01*
X46409761Y-55383301D01*
X46452280Y-55527229D01*
X46498656Y-55668522D01*
X46548785Y-55806993D01*
X46602564Y-55942454D01*
X46659891Y-56074719D01*
X46720662Y-56203598D01*
X46784774Y-56328906D01*
X46852124Y-56450454D01*
X46922610Y-56568055D01*
X46996127Y-56681521D01*
X47072573Y-56790665D01*
X47151846Y-56895299D01*
X47233841Y-56995236D01*
X47318456Y-57090289D01*
X47405587Y-57180269D01*
X47495133Y-57264989D01*
X47586989Y-57344262D01*
X47681053Y-57417900D01*
X47777221Y-57485716D01*
X47875391Y-57547522D01*
X47975459Y-57603131D01*
X48077322Y-57652354D01*
X48180878Y-57695006D01*
X48286023Y-57730897D01*
X48392654Y-57759841D01*
X48500669Y-57781651D01*
X48609963Y-57796137D01*
X48720435Y-57803114D01*
X48831981Y-57802393D01*
X48857500Y-57801175D01*
X48883008Y-57799605D01*
X48908472Y-57797645D01*
X48933858Y-57795254D01*
X48959132Y-57792393D01*
X48984261Y-57789023D01*
X49009210Y-57785104D01*
X49033946Y-57780596D01*
X48472752Y-54873293D01*
X48013274Y-55030844D01*
X48159173Y-55792773D01*
X47445666Y-55976088D01*
X46954533Y-53378283D01*
X46210035Y-53815642D01*
X45939386Y-53974589D01*
X45937135Y-53838179D01*
X45937577Y-53702208D01*
X45940675Y-53566734D01*
X45946396Y-53431819D01*
X45954705Y-53297521D01*
X45965566Y-53163902D01*
X45978946Y-53031022D01*
X45994808Y-52898939D01*
X46025960Y-52687225D01*
X46064063Y-52476435D01*
X46109110Y-52267148D01*
X46161091Y-52059939D01*
X46219999Y-51855386D01*
X46285825Y-51654066D01*
X46358561Y-51456556D01*
X46438198Y-51263433D01*
X46524728Y-51075273D01*
X46618142Y-50892655D01*
X46718432Y-50716153D01*
X46825591Y-50546347D01*
X46939608Y-50383812D01*
X47060477Y-50229127D01*
X47188188Y-50082866D01*
X47322734Y-49945608D01*
X47322720Y-49945616D01*
X47471861Y-49811266D01*
X47624853Y-49690865D01*
X47781263Y-49584408D01*
X47940659Y-49491889D01*
X48102607Y-49413302D01*
X48266674Y-49348642D01*
X48432428Y-49297904D01*
X48599436Y-49261081D01*
X48767265Y-49238169D01*
X48935482Y-49229162D01*
X49103654Y-49234055D01*
G37*
G36*
X78439794Y-39640909D02*
G01*
X78550712Y-39648031D01*
X78659813Y-39659467D01*
X78767100Y-39675216D01*
X78872575Y-39695274D01*
X78976241Y-39719638D01*
X79078102Y-39748305D01*
X79178160Y-39781272D01*
X79276418Y-39818537D01*
X79372880Y-39860095D01*
X79467547Y-39905944D01*
X79559186Y-39954860D01*
X79647904Y-40006228D01*
X79733704Y-40060052D01*
X79816588Y-40116331D01*
X79896558Y-40175067D01*
X79973616Y-40236262D01*
X80047765Y-40299917D01*
X80119007Y-40366034D01*
X80187344Y-40434614D01*
X80252779Y-40505658D01*
X80315313Y-40579167D01*
X80374949Y-40655144D01*
X80431689Y-40733590D01*
X80485535Y-40814506D01*
X80536490Y-40897892D01*
X80584555Y-40983752D01*
X80630829Y-41072889D01*
X80677119Y-41168589D01*
X80723425Y-41270848D01*
X80769747Y-41379665D01*
X80862445Y-41616957D01*
X80955217Y-41880442D01*
X81048067Y-42170094D01*
X81141000Y-42485890D01*
X81234020Y-42827807D01*
X81327132Y-43195819D01*
X81578692Y-44225856D01*
X79432929Y-44674464D01*
X78956240Y-42757205D01*
X78905377Y-42557231D01*
X78857139Y-42377516D01*
X78811531Y-42218064D01*
X78768560Y-42078881D01*
X78728228Y-41959971D01*
X78690541Y-41861340D01*
X78655504Y-41782992D01*
X78638981Y-41751426D01*
X78623122Y-41724933D01*
X78615437Y-41712671D01*
X78607517Y-41700888D01*
X78599361Y-41689584D01*
X78590970Y-41678758D01*
X78582343Y-41668411D01*
X78573480Y-41658543D01*
X78564381Y-41649154D01*
X78555047Y-41640242D01*
X78545477Y-41631809D01*
X78535671Y-41623855D01*
X78525629Y-41616378D01*
X78515351Y-41609379D01*
X78504838Y-41602859D01*
X78494089Y-41596816D01*
X78483104Y-41591251D01*
X78471883Y-41586164D01*
X78460426Y-41581554D01*
X78448733Y-41577422D01*
X78436805Y-41573768D01*
X78424640Y-41570591D01*
X78412240Y-41567891D01*
X78399603Y-41565668D01*
X78386731Y-41563922D01*
X78373622Y-41562654D01*
X78360278Y-41561862D01*
X78346697Y-41561547D01*
X78332881Y-41561709D01*
X78318828Y-41562348D01*
X78304539Y-41563463D01*
X78290014Y-41565054D01*
X78275253Y-41567123D01*
X78260256Y-41569667D01*
X78227010Y-41576880D01*
X78195819Y-41585791D01*
X78180994Y-41590884D01*
X78166683Y-41596402D01*
X78152887Y-41602345D01*
X78139605Y-41608712D01*
X78126837Y-41615504D01*
X78114584Y-41622722D01*
X78102845Y-41630364D01*
X78091621Y-41638432D01*
X78080912Y-41646924D01*
X78070718Y-41655842D01*
X78061039Y-41665185D01*
X78051875Y-41674953D01*
X78043226Y-41685146D01*
X78035093Y-41695765D01*
X78027475Y-41706809D01*
X78020372Y-41718279D01*
X78013786Y-41730174D01*
X78007715Y-41742494D01*
X78002160Y-41755240D01*
X77997121Y-41768412D01*
X77992598Y-41782009D01*
X77988591Y-41796032D01*
X77985101Y-41810480D01*
X77982127Y-41825354D01*
X77979670Y-41840654D01*
X77977729Y-41856380D01*
X77975398Y-41889110D01*
X77975006Y-41924894D01*
X77976342Y-41965194D01*
X77979406Y-42010006D01*
X77984198Y-42059329D01*
X77990719Y-42113162D01*
X77998967Y-42171501D01*
X78020650Y-42301695D01*
X78049246Y-42449896D01*
X78084756Y-42616090D01*
X78127180Y-42800263D01*
X78176520Y-43002399D01*
X79454089Y-48110740D01*
X79502684Y-48300090D01*
X79549195Y-48471656D01*
X79593629Y-48625437D01*
X79635989Y-48761431D01*
X79676283Y-48879639D01*
X79714516Y-48980058D01*
X79750693Y-49062688D01*
X79784819Y-49127528D01*
X79793209Y-49141213D01*
X79801831Y-49154343D01*
X79810686Y-49166916D01*
X79819773Y-49178935D01*
X79829092Y-49190397D01*
X79838644Y-49201304D01*
X79848429Y-49211655D01*
X79858446Y-49221451D01*
X79868695Y-49230691D01*
X79879177Y-49239375D01*
X79889891Y-49247503D01*
X79900838Y-49255076D01*
X79912018Y-49262094D01*
X79923430Y-49268555D01*
X79935074Y-49274461D01*
X79946951Y-49279812D01*
X79959060Y-49284607D01*
X79971402Y-49288846D01*
X79983977Y-49292529D01*
X79996784Y-49295657D01*
X80009823Y-49298229D01*
X80023095Y-49300246D01*
X80036599Y-49301707D01*
X80050336Y-49302612D01*
X80064305Y-49302962D01*
X80078507Y-49302756D01*
X80092941Y-49301994D01*
X80107608Y-49300677D01*
X80122508Y-49298804D01*
X80137640Y-49296375D01*
X80153004Y-49293391D01*
X80168601Y-49289851D01*
X80183391Y-49286010D01*
X80197736Y-49281780D01*
X80211634Y-49277161D01*
X80225086Y-49272152D01*
X80238092Y-49266755D01*
X80250652Y-49260969D01*
X80262765Y-49254793D01*
X80274432Y-49248229D01*
X80285652Y-49241275D01*
X80296426Y-49233933D01*
X80306754Y-49226201D01*
X80316634Y-49218080D01*
X80326069Y-49209569D01*
X80335056Y-49200670D01*
X80343597Y-49191381D01*
X80351690Y-49181703D01*
X80359337Y-49171636D01*
X80366537Y-49161179D01*
X80373291Y-49150334D01*
X80379597Y-49139098D01*
X80385456Y-49127474D01*
X80390867Y-49115460D01*
X80395832Y-49103057D01*
X80400349Y-49090264D01*
X80404420Y-49077082D01*
X80408042Y-49063511D01*
X80411218Y-49049550D01*
X80413946Y-49035199D01*
X80416226Y-49020460D01*
X80418059Y-49005330D01*
X80420382Y-48973903D01*
X80421563Y-48939122D01*
X80420889Y-48899425D01*
X80418361Y-48854810D01*
X80413977Y-48805274D01*
X80407737Y-48750817D01*
X80399638Y-48691436D01*
X80377864Y-48557893D01*
X80348648Y-48404630D01*
X80311981Y-48231629D01*
X80267856Y-48038874D01*
X80216265Y-47826350D01*
X79877551Y-46463601D01*
X82009627Y-45989253D01*
X82111525Y-46406650D01*
X82206414Y-46806788D01*
X82288291Y-47177910D01*
X82357172Y-47520048D01*
X82413074Y-47833234D01*
X82456013Y-48117500D01*
X82486007Y-48372878D01*
X82503072Y-48599401D01*
X82507224Y-48797099D01*
X82504797Y-48888402D01*
X82498680Y-48979217D01*
X82488870Y-49069548D01*
X82475366Y-49159396D01*
X82458165Y-49248764D01*
X82437266Y-49337655D01*
X82412666Y-49426070D01*
X82384364Y-49514013D01*
X82352358Y-49601486D01*
X82316645Y-49688491D01*
X82277225Y-49775031D01*
X82234095Y-49861108D01*
X82187254Y-49946724D01*
X82136699Y-50031883D01*
X82082428Y-50116586D01*
X82024439Y-50200835D01*
X81963250Y-50283362D01*
X81898774Y-50362439D01*
X81831006Y-50438065D01*
X81759942Y-50510240D01*
X81685578Y-50578964D01*
X81607908Y-50644234D01*
X81526929Y-50706052D01*
X81442636Y-50764415D01*
X81355024Y-50819324D01*
X81264089Y-50870778D01*
X81169827Y-50918775D01*
X81072232Y-50963316D01*
X80971301Y-51004399D01*
X80867029Y-51042025D01*
X80759412Y-51076191D01*
X80648444Y-51106898D01*
X80531173Y-51135252D01*
X80415511Y-51159459D01*
X80301459Y-51179516D01*
X80189021Y-51195421D01*
X80078200Y-51207168D01*
X79968999Y-51214757D01*
X79861421Y-51218182D01*
X79755468Y-51217443D01*
X79651144Y-51212534D01*
X79548451Y-51203453D01*
X79447393Y-51190197D01*
X79347972Y-51172763D01*
X79250191Y-51151147D01*
X79154053Y-51125346D01*
X79059562Y-51095358D01*
X78966719Y-51061179D01*
X78875382Y-51022901D01*
X78786617Y-50981061D01*
X78700425Y-50935660D01*
X78616810Y-50886696D01*
X78535776Y-50834170D01*
X78457325Y-50778081D01*
X78381460Y-50718428D01*
X78308185Y-50655211D01*
X78237502Y-50588428D01*
X78169415Y-50518081D01*
X78103926Y-50444168D01*
X78041039Y-50366689D01*
X77980757Y-50285643D01*
X77923083Y-50201029D01*
X77868019Y-50112848D01*
X77815570Y-50021098D01*
X77764014Y-49922941D01*
X77712445Y-49818005D01*
X77660861Y-49706288D01*
X77609263Y-49587788D01*
X77506023Y-49330427D01*
X77402725Y-49045902D01*
X77299368Y-48734193D01*
X77195950Y-48395279D01*
X77092470Y-48029141D01*
X76988928Y-47635757D01*
X76158888Y-44373940D01*
X76017825Y-43803077D01*
X75904289Y-43306662D01*
X75857857Y-43086408D01*
X75818323Y-42884806D01*
X75785692Y-42701873D01*
X75759970Y-42537620D01*
X75749697Y-42459269D01*
X75741516Y-42380923D01*
X75735429Y-42302583D01*
X75731435Y-42224251D01*
X75729536Y-42145927D01*
X75729731Y-42067613D01*
X75732023Y-41989309D01*
X75736410Y-41911016D01*
X75742895Y-41832735D01*
X75751476Y-41754468D01*
X75762155Y-41676215D01*
X75774933Y-41597977D01*
X75789810Y-41519755D01*
X75806787Y-41441551D01*
X75825863Y-41363364D01*
X75847041Y-41285197D01*
X75871131Y-41207905D01*
X75897602Y-41132205D01*
X75926451Y-41058097D01*
X75957680Y-40985582D01*
X75991286Y-40914661D01*
X76027270Y-40845335D01*
X76065631Y-40777604D01*
X76106367Y-40711470D01*
X76149479Y-40646934D01*
X76194966Y-40583996D01*
X76242828Y-40522657D01*
X76293063Y-40462918D01*
X76345670Y-40404779D01*
X76400651Y-40348243D01*
X76458003Y-40293309D01*
X76517726Y-40239978D01*
X76579682Y-40187866D01*
X76643541Y-40138114D01*
X76709301Y-40090721D01*
X76776958Y-40045686D01*
X76846511Y-40003009D01*
X76917956Y-39962688D01*
X76991291Y-39924724D01*
X77066515Y-39889115D01*
X77143623Y-39855861D01*
X77222614Y-39824962D01*
X77303485Y-39796416D01*
X77386233Y-39770223D01*
X77470857Y-39746382D01*
X77557353Y-39724893D01*
X77645719Y-39705755D01*
X77735953Y-39688968D01*
X77857837Y-39670135D01*
X77977887Y-39655635D01*
X78096104Y-39645466D01*
X78212493Y-39639624D01*
X78327055Y-39638106D01*
X78439794Y-39640909D01*
G37*
G36*
X68517916Y-41350057D02*
G01*
X68627056Y-41355102D01*
X68734835Y-41363651D01*
X68841253Y-41375702D01*
X68946315Y-41391254D01*
X69050023Y-41410302D01*
X69152379Y-41432846D01*
X69253386Y-41458882D01*
X69352166Y-41487530D01*
X69447819Y-41518558D01*
X69540349Y-41551966D01*
X69629759Y-41587755D01*
X69716054Y-41625924D01*
X69799236Y-41666473D01*
X69879310Y-41709402D01*
X69956279Y-41754710D01*
X70030147Y-41802399D01*
X70100917Y-41852467D01*
X70168592Y-41904915D01*
X70233177Y-41959742D01*
X70294674Y-42016949D01*
X70353089Y-42076535D01*
X70408423Y-42138500D01*
X70460681Y-42202844D01*
X70511801Y-42270415D01*
X70563291Y-42344612D01*
X70615151Y-42425435D01*
X70667379Y-42512881D01*
X70719974Y-42606948D01*
X70772936Y-42707633D01*
X70826263Y-42814936D01*
X70879954Y-42928854D01*
X70934009Y-43049384D01*
X70988426Y-43176526D01*
X71043205Y-43310277D01*
X71098344Y-43450635D01*
X71153843Y-43597598D01*
X71209700Y-43751164D01*
X71322486Y-44078097D01*
X71472594Y-44528157D01*
X69218241Y-45114003D01*
X68928397Y-44257613D01*
X68878426Y-44114487D01*
X68830311Y-43985678D01*
X68784052Y-43871189D01*
X68739650Y-43771018D01*
X68697104Y-43685165D01*
X68676527Y-43647609D01*
X68656414Y-43613632D01*
X68636765Y-43583234D01*
X68617580Y-43556417D01*
X68598860Y-43533179D01*
X68580603Y-43513520D01*
X68562320Y-43496367D01*
X68543543Y-43480734D01*
X68524271Y-43466621D01*
X68504505Y-43454027D01*
X68484244Y-43442953D01*
X68463488Y-43433397D01*
X68442237Y-43425360D01*
X68420492Y-43418841D01*
X68398251Y-43413840D01*
X68375516Y-43410357D01*
X68352285Y-43408390D01*
X68328558Y-43407940D01*
X68304336Y-43409006D01*
X68279619Y-43411589D01*
X68254406Y-43415687D01*
X68228697Y-43421300D01*
X68201249Y-43429046D01*
X68188054Y-43433495D01*
X68175213Y-43438327D01*
X68162726Y-43443543D01*
X68150592Y-43449144D01*
X68138813Y-43455128D01*
X68127387Y-43461497D01*
X68116316Y-43468250D01*
X68105599Y-43475387D01*
X68095237Y-43482909D01*
X68085230Y-43490816D01*
X68075578Y-43499107D01*
X68066281Y-43507783D01*
X68057339Y-43516844D01*
X68048753Y-43526290D01*
X68040523Y-43536121D01*
X68032649Y-43546337D01*
X68025130Y-43556938D01*
X68017968Y-43567924D01*
X68011163Y-43579296D01*
X68004714Y-43591054D01*
X67998621Y-43603197D01*
X67992886Y-43615726D01*
X67982487Y-43641941D01*
X67973518Y-43669699D01*
X67965981Y-43699003D01*
X67959876Y-43729852D01*
X67955995Y-43762040D01*
X67953605Y-43795814D01*
X67952705Y-43831171D01*
X67953296Y-43868111D01*
X67955380Y-43906632D01*
X67958955Y-43946734D01*
X67964024Y-43988414D01*
X67970585Y-44031673D01*
X67978640Y-44076508D01*
X67988190Y-44122918D01*
X67999234Y-44170902D01*
X68011774Y-44220459D01*
X68025809Y-44271588D01*
X68041341Y-44324287D01*
X68058369Y-44378556D01*
X68076895Y-44434392D01*
X68126884Y-44574872D01*
X68177879Y-44705275D01*
X68229882Y-44825604D01*
X68282892Y-44935860D01*
X68309776Y-44987212D01*
X68336912Y-45036048D01*
X68364301Y-45082367D01*
X68391942Y-45126170D01*
X68419836Y-45167457D01*
X68447982Y-45206228D01*
X68476382Y-45242485D01*
X68505034Y-45276227D01*
X68534907Y-45308862D01*
X68568634Y-45341502D01*
X68606211Y-45374146D01*
X68647635Y-45406794D01*
X68692903Y-45439447D01*
X68742012Y-45472104D01*
X68794958Y-45504766D01*
X68851739Y-45537432D01*
X68912351Y-45570102D01*
X68976791Y-45602777D01*
X69045055Y-45635456D01*
X69117142Y-45668140D01*
X69193046Y-45700828D01*
X69272765Y-45733521D01*
X69356297Y-45766219D01*
X69443637Y-45798921D01*
X69928135Y-45983439D01*
X70369500Y-46164246D01*
X70767917Y-46341398D01*
X71123572Y-46514951D01*
X71436650Y-46684963D01*
X71577282Y-46768659D01*
X71707338Y-46851490D01*
X71826844Y-46933464D01*
X71935822Y-47014589D01*
X72034295Y-47094870D01*
X72122286Y-47174315D01*
X72204183Y-47256890D01*
X72285204Y-47347394D01*
X72365349Y-47445824D01*
X72444620Y-47552180D01*
X72523017Y-47666458D01*
X72600543Y-47788656D01*
X72677197Y-47918774D01*
X72752981Y-48056807D01*
X72827896Y-48202755D01*
X72901944Y-48356615D01*
X72975124Y-48518385D01*
X73047438Y-48688063D01*
X73118887Y-48865646D01*
X73189472Y-49051134D01*
X73259195Y-49244523D01*
X73328055Y-49445811D01*
X73420309Y-49734392D01*
X73498954Y-50005468D01*
X73563995Y-50259067D01*
X73615436Y-50495217D01*
X73653281Y-50713948D01*
X73667107Y-50816789D01*
X73677536Y-50915286D01*
X73684568Y-51009443D01*
X73688204Y-51099262D01*
X73688444Y-51184747D01*
X73685290Y-51265903D01*
X73679239Y-51344561D01*
X73669440Y-51422873D01*
X73655891Y-51500841D01*
X73638588Y-51578467D01*
X73617530Y-51655754D01*
X73592714Y-51732705D01*
X73564136Y-51809320D01*
X73531795Y-51885604D01*
X73495688Y-51961559D01*
X73455812Y-52037186D01*
X73412165Y-52112489D01*
X73364745Y-52187469D01*
X73313547Y-52262130D01*
X73258571Y-52336473D01*
X73199813Y-52410502D01*
X73137271Y-52484218D01*
X73070877Y-52556072D01*
X73001776Y-52625549D01*
X72929963Y-52692650D01*
X72855434Y-52757373D01*
X72778185Y-52819718D01*
X72698212Y-52879685D01*
X72615511Y-52937273D01*
X72530077Y-52992482D01*
X72441907Y-53045311D01*
X72350995Y-53095759D01*
X72257339Y-53143826D01*
X72160934Y-53189513D01*
X72061776Y-53232817D01*
X71959860Y-53273739D01*
X71855183Y-53312278D01*
X71747740Y-53348434D01*
X71627791Y-53385070D01*
X71508725Y-53417549D01*
X71390544Y-53445866D01*
X71273250Y-53470018D01*
X71156846Y-53490001D01*
X71041331Y-53505813D01*
X70926710Y-53517450D01*
X70812983Y-53524908D01*
X70700153Y-53528184D01*
X70588220Y-53527275D01*
X70477188Y-53522177D01*
X70367058Y-53512886D01*
X70257832Y-53499400D01*
X70149512Y-53481715D01*
X70042099Y-53459827D01*
X69935595Y-53433734D01*
X69830994Y-53403557D01*
X69729415Y-53370240D01*
X69630859Y-53333782D01*
X69535331Y-53294183D01*
X69442832Y-53251442D01*
X69353367Y-53205558D01*
X69266937Y-53156531D01*
X69183547Y-53104359D01*
X69103199Y-53049043D01*
X69025896Y-52990581D01*
X68951640Y-52928973D01*
X68880436Y-52864218D01*
X68812286Y-52796315D01*
X68747193Y-52725264D01*
X68685159Y-52651064D01*
X68626189Y-52573714D01*
X68568631Y-52491958D01*
X68511174Y-52405025D01*
X68453818Y-52312914D01*
X68396564Y-52215626D01*
X68339413Y-52113158D01*
X68282367Y-52005510D01*
X68225426Y-51892680D01*
X68168590Y-51774669D01*
X68111862Y-51651475D01*
X68055242Y-51523096D01*
X67942329Y-51250784D01*
X67829859Y-50957724D01*
X67717841Y-50643909D01*
X67456553Y-49886329D01*
X69768420Y-49218505D01*
X70239890Y-50604648D01*
X70293084Y-50756602D01*
X70344342Y-50893410D01*
X70393658Y-51015076D01*
X70441027Y-51121604D01*
X70486445Y-51212998D01*
X70508420Y-51253020D01*
X70529905Y-51289261D01*
X70550900Y-51321720D01*
X70571403Y-51350399D01*
X70591415Y-51375297D01*
X70610934Y-51396415D01*
X70631176Y-51414513D01*
X70652056Y-51430845D01*
X70673575Y-51445410D01*
X70695731Y-51458211D01*
X70718525Y-51469246D01*
X70741957Y-51478516D01*
X70766025Y-51486022D01*
X70790730Y-51491765D01*
X70816071Y-51495744D01*
X70842048Y-51497961D01*
X70868661Y-51498415D01*
X70895910Y-51497107D01*
X70923793Y-51494038D01*
X70952312Y-51489207D01*
X70981465Y-51482616D01*
X71011252Y-51474265D01*
X71040509Y-51464300D01*
X71068169Y-51452845D01*
X71081399Y-51446558D01*
X71094230Y-51439898D01*
X71106663Y-51432865D01*
X71118696Y-51425459D01*
X71130330Y-51417680D01*
X71141565Y-51409528D01*
X71152401Y-51401003D01*
X71162839Y-51392105D01*
X71172878Y-51382833D01*
X71182518Y-51373188D01*
X71191760Y-51363170D01*
X71200603Y-51352778D01*
X71209048Y-51342012D01*
X71217095Y-51330873D01*
X71224744Y-51319360D01*
X71231994Y-51307473D01*
X71238847Y-51295213D01*
X71245302Y-51282578D01*
X71251358Y-51269570D01*
X71257018Y-51256188D01*
X71267143Y-51228301D01*
X71275678Y-51198917D01*
X71282624Y-51168036D01*
X71287982Y-51135657D01*
X71292471Y-51101683D01*
X71295433Y-51066243D01*
X71296870Y-51029338D01*
X71296782Y-50990969D01*
X71295167Y-50951136D01*
X71292028Y-50909839D01*
X71287363Y-50867078D01*
X71281173Y-50822854D01*
X71273459Y-50777167D01*
X71264220Y-50730016D01*
X71253458Y-50681403D01*
X71241171Y-50631327D01*
X71227360Y-50579789D01*
X71212026Y-50526789D01*
X71195168Y-50472327D01*
X71176787Y-50416404D01*
X71092507Y-50178495D01*
X71008492Y-49964163D01*
X70966585Y-49865841D01*
X70924745Y-49773416D01*
X70882972Y-49686889D01*
X70841266Y-49606262D01*
X70799629Y-49531535D01*
X70758059Y-49462710D01*
X70716558Y-49399787D01*
X70675126Y-49342768D01*
X70633763Y-49291653D01*
X70592468Y-49246444D01*
X70551244Y-49207142D01*
X70510089Y-49173747D01*
X70464923Y-49142582D01*
X70413325Y-49109670D01*
X70355286Y-49075007D01*
X70290798Y-49038592D01*
X70219852Y-49000421D01*
X70142441Y-48960493D01*
X69968187Y-48875354D01*
X69767972Y-48783154D01*
X69541727Y-48683875D01*
X69289387Y-48577495D01*
X69010886Y-48463996D01*
X68467484Y-48237862D01*
X68231144Y-48135364D01*
X68018464Y-48039945D01*
X67829508Y-47951626D01*
X67664341Y-47870432D01*
X67523027Y-47796385D01*
X67405631Y-47729510D01*
X67352825Y-47696629D01*
X67300094Y-47661486D01*
X67247436Y-47624083D01*
X67194854Y-47584416D01*
X67142348Y-47542487D01*
X67089920Y-47498292D01*
X67037569Y-47451833D01*
X66985298Y-47403107D01*
X66933106Y-47352114D01*
X66880996Y-47298853D01*
X66828967Y-47243323D01*
X66777022Y-47185522D01*
X66725160Y-47125451D01*
X66673383Y-47063108D01*
X66621691Y-46998492D01*
X66570086Y-46931602D01*
X66519450Y-46861622D01*
X66469460Y-46788588D01*
X66420116Y-46712500D01*
X66371421Y-46633359D01*
X66323375Y-46551164D01*
X66275980Y-46465917D01*
X66229237Y-46377618D01*
X66183148Y-46286268D01*
X66137713Y-46191866D01*
X66092934Y-46094413D01*
X66048813Y-45993910D01*
X66005351Y-45890357D01*
X65962548Y-45783755D01*
X65920407Y-45674103D01*
X65838114Y-45445655D01*
X65729472Y-45116560D01*
X65637702Y-44807885D01*
X65562811Y-44519667D01*
X65504806Y-44251942D01*
X65482138Y-44125776D01*
X65463694Y-44004747D01*
X65449474Y-43888860D01*
X65439480Y-43778119D01*
X65433713Y-43672529D01*
X65432173Y-43572094D01*
X65434861Y-43476820D01*
X65441779Y-43386710D01*
X65453311Y-43299825D01*
X65468373Y-43214473D01*
X65486962Y-43130655D01*
X65509075Y-43048373D01*
X65534711Y-42967627D01*
X65563865Y-42888418D01*
X65596536Y-42810748D01*
X65632721Y-42734616D01*
X65672418Y-42660025D01*
X65715623Y-42586975D01*
X65762335Y-42515467D01*
X65812551Y-42445502D01*
X65866268Y-42377080D01*
X65923483Y-42310204D01*
X65984195Y-42244874D01*
X66048400Y-42181090D01*
X66115260Y-42118635D01*
X66185101Y-42058524D01*
X66257919Y-42000757D01*
X66333711Y-41945333D01*
X66412474Y-41892253D01*
X66494203Y-41841514D01*
X66578897Y-41793116D01*
X66666551Y-41747059D01*
X66757162Y-41703341D01*
X66850726Y-41661964D01*
X66947240Y-41622924D01*
X67046701Y-41586223D01*
X67149106Y-41551859D01*
X67254450Y-41519831D01*
X67362730Y-41490139D01*
X67473944Y-41462783D01*
X67595457Y-41436173D01*
X67715585Y-41413090D01*
X67834331Y-41393531D01*
X67951697Y-41377494D01*
X68067685Y-41364978D01*
X68182299Y-41355978D01*
X68295540Y-41350493D01*
X68407412Y-41348520D01*
X68517916Y-41350057D01*
G37*
%TD*%
M02*
