%TF.GenerationSoftware,KiCad,Pcbnew,8.0.5-8.0.5-0~ubuntu22.04.1*%
%TF.CreationDate,2024-10-09T17:19:14-04:00*%
%TF.ProjectId,blinkencap,626c696e-6b65-46e6-9361-702e6b696361,1.0*%
%TF.SameCoordinates,Original*%
%TF.FileFunction,Plated,1,2,PTH,Drill*%
%TF.FilePolarity,Positive*%
%FSLAX46Y46*%
G04 Gerber Fmt 4.6, Leading zero omitted, Abs format (unit mm)*
G04 Created by KiCad (PCBNEW 8.0.5-8.0.5-0~ubuntu22.04.1) date 2024-10-09 17:19:14*
%MOMM*%
%LPD*%
G01*
G04 APERTURE LIST*
%TA.AperFunction,ViaDrill*%
%ADD10C,0.300000*%
%TD*%
%TA.AperFunction,ComponentDrill*%
%ADD11C,0.300000*%
%TD*%
%TA.AperFunction,ViaDrill*%
%ADD12C,0.400000*%
%TD*%
G04 APERTURE END LIST*
D10*
X42008898Y-57112151D03*
X43000000Y-52648091D03*
X43900000Y-57200000D03*
X44700000Y-50699994D03*
X44700000Y-52300000D03*
X45500000Y-47100000D03*
X45523031Y-58618368D03*
X45700000Y-57200000D03*
X45800000Y-54300000D03*
X46133239Y-60154581D03*
X46478640Y-53400000D03*
X46785642Y-46465000D03*
X47100000Y-44900000D03*
X48300000Y-50700000D03*
X48300000Y-58700000D03*
X48600000Y-45600000D03*
X49300000Y-54300000D03*
X49400000Y-57200000D03*
X50200000Y-52700000D03*
X50272550Y-53599584D03*
X50400000Y-46200000D03*
X52700000Y-53700000D03*
X52700000Y-57100000D03*
X52800000Y-45400000D03*
X54200000Y-46100000D03*
X54300000Y-44200000D03*
X55500000Y-40200000D03*
X57400000Y-44200000D03*
X57900000Y-49100000D03*
X58300000Y-40200000D03*
X59615074Y-55784936D03*
X59700000Y-37500000D03*
X59700000Y-45300000D03*
X60463325Y-36636675D03*
X60500000Y-52700000D03*
X60500000Y-60900000D03*
X61396652Y-36000000D03*
X61400001Y-53399999D03*
X61500000Y-48900000D03*
X61500002Y-61700000D03*
X62182383Y-38200000D03*
X62200000Y-40300000D03*
X62200000Y-45600000D03*
X63148942Y-52500006D03*
X63800000Y-47500000D03*
X63900000Y-48700000D03*
X64100000Y-45500000D03*
X64300000Y-53500000D03*
X64500000Y-38200000D03*
X64600000Y-50700000D03*
X64900000Y-40900000D03*
X65691702Y-40200000D03*
X66800000Y-51800000D03*
X66900000Y-48000000D03*
X67100000Y-39500000D03*
X67547341Y-50260937D03*
X67583665Y-48626384D03*
X68076157Y-38200000D03*
X68300000Y-61700000D03*
X68700000Y-49600000D03*
X68900000Y-54700000D03*
X69900000Y-53275000D03*
X70700000Y-61320068D03*
X71299997Y-52899997D03*
X72100000Y-61100000D03*
X72200000Y-55300000D03*
X72205000Y-50100000D03*
X73300000Y-38500000D03*
X73800000Y-50200000D03*
X74170003Y-38500000D03*
X74400000Y-58700000D03*
X74500000Y-54900000D03*
X74900000Y-37300000D03*
X75000426Y-38355418D03*
X75100000Y-61100000D03*
X75700000Y-47700000D03*
X75900000Y-38600000D03*
X76100000Y-54700000D03*
X77300000Y-50400000D03*
X77400000Y-56000000D03*
X77400000Y-56800000D03*
X77427297Y-38772701D03*
X78300000Y-48900000D03*
X78400000Y-40700000D03*
X78500000Y-47700000D03*
X79300000Y-42700000D03*
X79300000Y-46900000D03*
X80500000Y-41900000D03*
X81100000Y-50300000D03*
X82100000Y-47700000D03*
X83300000Y-46900000D03*
X83300000Y-58500000D03*
D11*
%TO.C,STITCH25*%
X42800000Y-60700000D03*
%TO.C,STITCH20*%
X42900000Y-64600000D03*
%TO.C,STITCH11*%
X45500000Y-49000000D03*
%TO.C,STITCH24*%
X45500000Y-51700000D03*
%TO.C,STITCH6*%
X47100000Y-43600000D03*
%TO.C,STITCH23*%
X50700000Y-38800000D03*
%TO.C,STITCH13*%
X50750000Y-58950000D03*
X53300000Y-59600000D03*
%TO.C,STITCH12*%
X53850000Y-55800000D03*
X55200000Y-50800000D03*
%TO.C,STITCH1*%
X58600000Y-38900000D03*
%TO.C,STITCH12*%
X58800000Y-50800000D03*
%TO.C,STITCH4*%
X58800000Y-54900000D03*
%TO.C,STITCH2*%
X60200000Y-65700000D03*
%TO.C,STITCH5*%
X60300000Y-61900000D03*
%TO.C,STITCH14*%
X60400000Y-33700000D03*
%TO.C,STITCH21*%
X62500000Y-59900000D03*
%TO.C,STITCH10*%
X62600000Y-53700000D03*
%TO.C,STITCH7*%
X63200000Y-39100000D03*
%TO.C,STITCH8*%
X63600000Y-34800000D03*
%TO.C,STITCH3*%
X64600000Y-49400000D03*
%TO.C,STITCH10*%
X65900000Y-54500000D03*
%TO.C,STITCH1*%
X67200000Y-43900000D03*
X70800000Y-40300000D03*
X70800000Y-43900000D03*
X70800000Y-47600000D03*
%TO.C,STITCH21*%
X71800000Y-52100000D03*
%TO.C,STITCH22*%
X73100000Y-34800000D03*
%TO.C,STITCH19*%
X73400000Y-69500000D03*
%TO.C,STITCH1*%
X74400000Y-43900000D03*
%TO.C,STITCH21*%
X77400000Y-52800000D03*
%TO.C,STITCH15*%
X82600000Y-49000000D03*
%TO.C,STITCH9*%
X82600000Y-57800000D03*
%TO.C,STITCH21*%
X83200000Y-43300000D03*
X87900000Y-54000000D03*
%TO.C,STITCH18*%
X89400000Y-60400000D03*
%TO.C,STITCH16*%
X97700000Y-65100000D03*
%TO.C,STITCH17*%
X100300000Y-61700000D03*
%TD*%
D12*
X42723375Y-59400000D03*
X43354108Y-50369738D03*
X47500000Y-49900000D03*
X49900000Y-59900000D03*
X56700000Y-41100000D03*
X62250000Y-49700000D03*
X62411133Y-35443089D03*
X64700000Y-46900000D03*
X65600000Y-63200000D03*
X65600000Y-64800000D03*
X67340612Y-54275000D03*
X68200000Y-64400000D03*
X75500000Y-49900000D03*
X77300000Y-45300000D03*
X79600000Y-51300000D03*
X81900000Y-54700000D03*
X82300000Y-42300006D03*
M02*
