%TF.GenerationSoftware,KiCad,Pcbnew,8.0.5-8.0.5-0~ubuntu22.04.1*%
%TF.CreationDate,2024-10-09T17:19:14-04:00*%
%TF.ProjectId,blinkencap,626c696e-6b65-46e6-9361-702e6b696361,1.0*%
%TF.SameCoordinates,Original*%
%TF.FileFunction,Profile,NP*%
%FSLAX46Y46*%
G04 Gerber Fmt 4.6, Leading zero omitted, Abs format (unit mm)*
G04 Created by KiCad (PCBNEW 8.0.5-8.0.5-0~ubuntu22.04.1) date 2024-10-09 17:19:14*
%MOMM*%
%LPD*%
G01*
G04 APERTURE LIST*
%TA.AperFunction,Profile*%
%ADD10C,0.100000*%
%TD*%
G04 APERTURE END LIST*
D10*
%TO.C,CAPOUTLINE\u002A*%
X61000000Y-32400000D02*
X61129372Y-32408754D01*
X61257110Y-32423258D01*
X61382801Y-32443628D01*
X61506031Y-32469979D01*
X61626386Y-32502429D01*
X61743452Y-32541092D01*
X61856815Y-32586084D01*
X61966061Y-32637522D01*
X62112983Y-32709036D01*
X62261065Y-32773875D01*
X62410906Y-32832121D01*
X62563108Y-32883859D01*
X62718269Y-32929170D01*
X62876989Y-32968137D01*
X63039868Y-33000843D01*
X63207505Y-33027370D01*
X63380501Y-33047801D01*
X63559455Y-33062219D01*
X63744967Y-33070706D01*
X63937636Y-33073346D01*
X64138063Y-33070220D01*
X64346847Y-33061412D01*
X64564587Y-33047004D01*
X64791884Y-33027079D01*
X66129901Y-32936045D01*
X67445087Y-32925667D01*
X68735995Y-32995307D01*
X70001176Y-33144328D01*
X71239183Y-33372091D01*
X72448567Y-33677959D01*
X73627881Y-34061294D01*
X74775675Y-34521458D01*
X75890504Y-35057814D01*
X76970917Y-35669724D01*
X78015468Y-36356550D01*
X79022708Y-37117653D01*
X79991189Y-37952398D01*
X80919463Y-38860145D01*
X81806083Y-39840257D01*
X82649600Y-40892096D01*
X83040146Y-41421474D01*
X83410120Y-41949914D01*
X83766732Y-42489320D01*
X84117188Y-43051599D01*
X84468696Y-43648655D01*
X84828466Y-44292392D01*
X85203704Y-44994717D01*
X85601619Y-45767535D01*
X86221638Y-47015151D01*
X86778486Y-48185875D01*
X87267647Y-49268631D01*
X87684606Y-50252341D01*
X88024848Y-51125930D01*
X88283859Y-51878321D01*
X88457123Y-52498437D01*
X88510189Y-52755431D01*
X88540126Y-52975203D01*
X88553819Y-53126687D01*
X88561452Y-53195880D01*
X88570938Y-53261632D01*
X88583274Y-53324638D01*
X88599457Y-53385593D01*
X88620484Y-53445190D01*
X88647351Y-53504125D01*
X88681055Y-53563091D01*
X88722593Y-53622783D01*
X88772963Y-53683896D01*
X88833159Y-53747124D01*
X88904181Y-53813161D01*
X88987023Y-53882702D01*
X89082684Y-53956441D01*
X89192159Y-54035073D01*
X89316446Y-54119292D01*
X89456541Y-54209792D01*
X89613442Y-54307268D01*
X89788144Y-54412415D01*
X89981646Y-54525926D01*
X90194943Y-54648496D01*
X90684911Y-54923592D01*
X91266023Y-55243257D01*
X91946253Y-55613048D01*
X93635966Y-56525225D01*
X97463866Y-58608718D01*
X98610962Y-59255291D01*
X99380758Y-59714448D01*
X99873709Y-60043214D01*
X100190267Y-60298614D01*
X100696017Y-60817416D01*
X100759914Y-60886137D01*
X100820368Y-60957456D01*
X100877440Y-61031223D01*
X100931190Y-61107290D01*
X101028972Y-61265730D01*
X101114205Y-61431587D01*
X101187379Y-61603673D01*
X101248984Y-61780798D01*
X101299511Y-61961773D01*
X101339450Y-62145411D01*
X101369290Y-62330521D01*
X101389523Y-62515917D01*
X101400639Y-62700408D01*
X101403127Y-62882805D01*
X101397478Y-63061921D01*
X101384182Y-63236567D01*
X101363730Y-63405553D01*
X101336611Y-63567691D01*
X101297034Y-63745372D01*
X101248743Y-63913948D01*
X101192804Y-64073475D01*
X101130281Y-64224007D01*
X101062240Y-64365601D01*
X100989745Y-64498312D01*
X100913862Y-64622195D01*
X100835655Y-64737305D01*
X100756189Y-64843698D01*
X100676529Y-64941430D01*
X100597741Y-65030555D01*
X100520888Y-65111130D01*
X100447037Y-65183209D01*
X100377251Y-65246848D01*
X100254138Y-65349028D01*
X100099945Y-65465723D01*
X99951065Y-65571098D01*
X99805825Y-65665339D01*
X99662556Y-65748634D01*
X99519585Y-65821168D01*
X99375240Y-65883128D01*
X99227850Y-65934699D01*
X99152491Y-65956647D01*
X99075744Y-65976068D01*
X98997400Y-65992985D01*
X98917251Y-66007421D01*
X98750697Y-66028944D01*
X98574413Y-66040824D01*
X98386727Y-66043246D01*
X98185967Y-66036397D01*
X97970461Y-66020463D01*
X97738539Y-65995630D01*
X97488528Y-65962084D01*
X97294515Y-65929731D01*
X97102890Y-65889845D01*
X96727050Y-65789124D01*
X96361491Y-65663214D01*
X96006699Y-65515411D01*
X95663159Y-65349007D01*
X95331356Y-65167297D01*
X95011775Y-64973576D01*
X94704900Y-64771136D01*
X94411217Y-64563273D01*
X94131211Y-64353281D01*
X93614168Y-63940082D01*
X92765540Y-63233069D01*
X92292932Y-62858383D01*
X91836030Y-62506807D01*
X91398308Y-62184861D01*
X90983238Y-61899067D01*
X90785283Y-61771764D01*
X90594295Y-61655946D01*
X90410706Y-61552426D01*
X90234952Y-61462019D01*
X90067466Y-61385542D01*
X89908682Y-61323809D01*
X89759036Y-61277635D01*
X89618960Y-61247836D01*
X89516745Y-61234436D01*
X89411269Y-61225932D01*
X89302739Y-61222254D01*
X89191363Y-61223335D01*
X89077346Y-61229104D01*
X88960896Y-61239492D01*
X88842220Y-61254430D01*
X88721525Y-61273848D01*
X88599018Y-61297678D01*
X88474905Y-61325849D01*
X88349394Y-61358293D01*
X88222692Y-61394940D01*
X88095006Y-61435721D01*
X87966542Y-61480567D01*
X87837507Y-61529408D01*
X87708110Y-61582175D01*
X87567264Y-61643220D01*
X87436206Y-61702975D01*
X87314437Y-61761280D01*
X87201460Y-61817973D01*
X86999898Y-61925871D01*
X86827544Y-62025373D01*
X86554557Y-62194008D01*
X86445974Y-62260549D01*
X86350695Y-62313510D01*
X86030061Y-62489256D01*
X85640719Y-62723367D01*
X85200369Y-63003853D01*
X84726712Y-63318728D01*
X84237447Y-63656004D01*
X83750274Y-64003694D01*
X83282894Y-64349810D01*
X82853007Y-64682364D01*
X81832190Y-65477147D01*
X80816411Y-66239377D01*
X79829127Y-66954896D01*
X78893797Y-67609547D01*
X78033880Y-68189172D01*
X77272835Y-68679615D01*
X76634119Y-69066717D01*
X76141192Y-69336322D01*
X75760214Y-69523134D01*
X75526684Y-69633976D01*
X75269625Y-69752696D01*
X74992911Y-69876486D01*
X74700417Y-70002536D01*
X74396016Y-70128036D01*
X74083583Y-70250178D01*
X73883892Y-70322595D01*
X73691065Y-70386190D01*
X73505026Y-70441612D01*
X73325697Y-70489510D01*
X73153002Y-70530535D01*
X72986863Y-70565336D01*
X72827203Y-70594564D01*
X72673945Y-70618867D01*
X72386327Y-70655299D01*
X72123393Y-70679830D01*
X71669108Y-70713984D01*
X71409102Y-70727413D01*
X71047130Y-70734127D01*
X70615897Y-70734217D01*
X70148104Y-70727772D01*
X69676454Y-70714881D01*
X69233650Y-70695635D01*
X68852394Y-70670123D01*
X68565390Y-70638434D01*
X68565394Y-70638423D01*
X67969111Y-70528687D01*
X67350173Y-70376679D01*
X66707612Y-70181861D01*
X66040462Y-69943694D01*
X65347753Y-69661638D01*
X64628520Y-69335156D01*
X63881793Y-68963707D01*
X63106606Y-68546754D01*
X62301991Y-68083757D01*
X61466981Y-67574178D01*
X60600608Y-67017477D01*
X59701904Y-66413116D01*
X58769901Y-65760556D01*
X57803633Y-65059257D01*
X56802132Y-64308682D01*
X55764430Y-63508292D01*
X55126656Y-63017323D01*
X54555010Y-62591020D01*
X54313513Y-62416404D01*
X54111980Y-62275095D01*
X53958223Y-62172808D01*
X53860053Y-62115256D01*
X53830282Y-62101020D01*
X53800727Y-62088190D01*
X53770372Y-62077057D01*
X53738202Y-62067911D01*
X53703200Y-62061042D01*
X53664352Y-62056742D01*
X53620642Y-62055300D01*
X53571054Y-62057007D01*
X53514573Y-62062153D01*
X53450183Y-62071030D01*
X53376868Y-62083928D01*
X53293613Y-62101136D01*
X53199403Y-62122946D01*
X53093221Y-62149647D01*
X52974052Y-62181532D01*
X52840881Y-62218889D01*
X52692692Y-62262010D01*
X52528470Y-62311184D01*
X52347198Y-62366703D01*
X52147862Y-62428858D01*
X51690932Y-62574232D01*
X51149557Y-62749633D01*
X50515611Y-62957383D01*
X49780970Y-63199806D01*
X48810000Y-60330000D01*
X45575951Y-61414845D01*
X46530980Y-64324835D01*
X42021275Y-65731001D01*
X41941124Y-65726246D01*
X41863907Y-65710039D01*
X41789635Y-65682422D01*
X41718319Y-65643436D01*
X41649968Y-65593122D01*
X41584593Y-65531520D01*
X41522205Y-65458672D01*
X41462814Y-65374619D01*
X41406431Y-65279403D01*
X41353065Y-65173063D01*
X41302728Y-65055641D01*
X41255429Y-64927179D01*
X41211180Y-64787717D01*
X41169991Y-64637296D01*
X41131872Y-64475958D01*
X41096834Y-64303744D01*
X41064887Y-64120694D01*
X41036041Y-63926849D01*
X41010307Y-63722251D01*
X40987696Y-63506942D01*
X40968218Y-63280961D01*
X40951883Y-63044349D01*
X40938702Y-62797149D01*
X40928685Y-62539401D01*
X40918186Y-61992426D01*
X40920469Y-61403752D01*
X40935619Y-60773707D01*
X41017847Y-59049326D01*
X41148184Y-57386314D01*
X41327032Y-55783526D01*
X41554792Y-54239813D01*
X41831867Y-52754028D01*
X42158659Y-51325024D01*
X42535570Y-49951653D01*
X42963002Y-48632768D01*
X43441358Y-47367221D01*
X43971038Y-46153864D01*
X44552446Y-44991551D01*
X45185984Y-43879133D01*
X45872053Y-42815464D01*
X46611055Y-41799396D01*
X47403394Y-40829781D01*
X48249470Y-39905472D01*
X48680619Y-39471907D01*
X49118238Y-39055640D01*
X49563157Y-38656145D01*
X50016209Y-38272894D01*
X50478225Y-37905362D01*
X50950037Y-37553021D01*
X51432477Y-37215345D01*
X51926375Y-36891807D01*
X52432564Y-36581880D01*
X52951875Y-36285038D01*
X53485139Y-36000753D01*
X54033189Y-35728498D01*
X54596856Y-35467748D01*
X55176971Y-35217976D01*
X55774366Y-34978653D01*
X56389872Y-34749255D01*
X56973417Y-34537430D01*
X57428121Y-34365551D01*
X57612909Y-34291468D01*
X57772387Y-34223625D01*
X57908855Y-34160771D01*
X58024614Y-34101658D01*
X58121964Y-34045036D01*
X58203204Y-33989657D01*
X58270635Y-33934271D01*
X58326558Y-33877629D01*
X58373271Y-33818481D01*
X58413075Y-33755579D01*
X58448271Y-33687673D01*
X58481158Y-33613515D01*
X58525566Y-33519044D01*
X58578274Y-33427541D01*
X58638868Y-33339122D01*
X58706934Y-33253903D01*
X58782059Y-33172000D01*
X58863827Y-33093528D01*
X58951826Y-33018605D01*
X59045641Y-32947344D01*
X59144859Y-32879863D01*
X59249065Y-32816277D01*
X59357847Y-32756703D01*
X59470789Y-32701256D01*
X59587479Y-32650051D01*
X59707501Y-32603206D01*
X59830443Y-32560836D01*
X59955891Y-32523056D01*
X60083430Y-32489984D01*
X60212647Y-32461734D01*
X60343127Y-32438422D01*
X60474457Y-32420165D01*
X60606224Y-32407078D01*
X60738012Y-32399278D01*
X60869409Y-32396880D01*
X61000000Y-32400000D01*
%TD*%
M02*
