%TF.GenerationSoftware,KiCad,Pcbnew,8.0.5-8.0.5-0~ubuntu22.04.1*%
%TF.CreationDate,2024-10-09T17:19:14-04:00*%
%TF.ProjectId,blinkencap,626c696e-6b65-46e6-9361-702e6b696361,1.0*%
%TF.SameCoordinates,Original*%
%TF.FileFunction,Legend,Bot*%
%TF.FilePolarity,Positive*%
%FSLAX46Y46*%
G04 Gerber Fmt 4.6, Leading zero omitted, Abs format (unit mm)*
G04 Created by KiCad (PCBNEW 8.0.5-8.0.5-0~ubuntu22.04.1) date 2024-10-09 17:19:14*
%MOMM*%
%LPD*%
G01*
G04 APERTURE LIST*
%ADD10C,0.150000*%
%ADD11C,0.175000*%
%ADD12C,0.160000*%
%ADD13C,0.120000*%
%ADD14C,0.000000*%
%ADD15C,0.200000*%
G04 APERTURE END LIST*
D10*
G36*
X65307858Y-46907330D02*
G01*
X65141895Y-46741366D01*
X64918897Y-46964364D01*
X64859953Y-47022074D01*
X64803700Y-47070784D01*
X64765187Y-47072062D01*
X64768636Y-47026324D01*
X64821722Y-46965467D01*
X64880449Y-46905468D01*
X65452727Y-46333190D01*
X65510420Y-46276768D01*
X65569162Y-46225798D01*
X65612874Y-46221981D01*
X65607972Y-46265714D01*
X65555391Y-46326290D01*
X65498383Y-46384841D01*
X65485924Y-46397336D01*
X65318745Y-46564516D01*
X65484709Y-46730479D01*
X65542461Y-46672726D01*
X65600858Y-46613661D01*
X65662784Y-46549167D01*
X65715820Y-46491636D01*
X65772705Y-46425762D01*
X65809515Y-46378278D01*
X65848122Y-46316274D01*
X65876241Y-46251876D01*
X65892579Y-46191871D01*
X65896137Y-46171439D01*
X65899091Y-46119265D01*
X65891492Y-46072290D01*
X65873343Y-46030514D01*
X65848806Y-45998225D01*
X65844641Y-45993937D01*
X65812562Y-45966882D01*
X65777761Y-45947155D01*
X65734656Y-45933584D01*
X65687998Y-45929584D01*
X65675778Y-45930079D01*
X65619490Y-45939506D01*
X65555262Y-45963163D01*
X65489260Y-46000699D01*
X65469113Y-46014665D01*
X65402362Y-46067017D01*
X65342161Y-46119277D01*
X65284790Y-46172109D01*
X65222093Y-46232362D01*
X65177337Y-46276653D01*
X64815346Y-46638644D01*
X64759955Y-46694468D01*
X64704887Y-46751090D01*
X64648409Y-46811101D01*
X64617042Y-46845991D01*
X64568885Y-46907553D01*
X64528427Y-46973531D01*
X64512351Y-47005471D01*
X64488010Y-47069184D01*
X64476727Y-47125100D01*
X64475344Y-47169079D01*
X64482531Y-47214737D01*
X64499154Y-47255582D01*
X64522183Y-47288228D01*
X64531558Y-47298244D01*
X64564049Y-47325314D01*
X64599620Y-47344622D01*
X64644044Y-47357181D01*
X64692490Y-47359601D01*
X64705230Y-47358622D01*
X64762761Y-47348276D01*
X64826016Y-47325653D01*
X64888569Y-47291318D01*
X64907198Y-47278733D01*
X64968868Y-47231206D01*
X65033818Y-47174942D01*
X65098470Y-47114889D01*
X65159698Y-47055375D01*
X65181299Y-47033888D01*
X65307858Y-46907330D01*
G37*
G36*
X66196251Y-46380917D02*
G01*
X65975654Y-46620132D01*
X66024326Y-46668804D01*
X66262078Y-46446744D01*
X66432164Y-46616830D01*
X65067479Y-47798795D01*
X64832231Y-47563548D01*
X64962214Y-47415846D01*
X65228346Y-47415846D01*
X65270105Y-47376045D01*
X65331065Y-47318130D01*
X65390012Y-47262359D01*
X65446945Y-47208732D01*
X65519724Y-47140566D01*
X65588924Y-47076212D01*
X65654544Y-47015671D01*
X65716584Y-46958941D01*
X65789101Y-46893391D01*
X65744551Y-46848841D01*
X65713189Y-46882593D01*
X65653088Y-46947768D01*
X65597959Y-47007938D01*
X65536566Y-47075245D01*
X65468908Y-47149689D01*
X65414053Y-47210206D01*
X65355674Y-47274738D01*
X65293772Y-47343285D01*
X65228346Y-47415846D01*
X64962214Y-47415846D01*
X66024304Y-46208970D01*
X66196251Y-46380917D01*
G37*
G36*
X65923188Y-47840991D02*
G01*
X65768395Y-47686198D01*
X65666153Y-47788440D01*
X65609326Y-47842322D01*
X65584127Y-47861158D01*
X65553779Y-47860653D01*
X65555179Y-47822815D01*
X65603561Y-47762043D01*
X65611380Y-47754115D01*
X65670775Y-47700158D01*
X65703097Y-47677824D01*
X65761289Y-47657068D01*
X65814906Y-47647772D01*
X65819963Y-47647130D01*
X65878438Y-47639139D01*
X65932820Y-47630354D01*
X65995042Y-47618256D01*
X66050868Y-47604916D01*
X66109419Y-47587271D01*
X66173160Y-47560964D01*
X66241799Y-47519453D01*
X66303148Y-47473066D01*
X66371464Y-47414341D01*
X66435565Y-47354185D01*
X66469536Y-47320708D01*
X66524220Y-47264521D01*
X66576750Y-47206597D01*
X66627462Y-47143626D01*
X66653077Y-47105782D01*
X66682792Y-47044413D01*
X66697713Y-46986216D01*
X66701157Y-46937220D01*
X66696029Y-46890149D01*
X66681808Y-46847711D01*
X66661533Y-46813879D01*
X66641611Y-46790907D01*
X66611903Y-46766065D01*
X66574159Y-46745799D01*
X66532371Y-46734199D01*
X66480523Y-46731508D01*
X66426235Y-46739190D01*
X66366557Y-46758827D01*
X66301693Y-46793926D01*
X66289987Y-46801827D01*
X66226656Y-46850151D01*
X66161329Y-46906723D01*
X66096636Y-46967415D01*
X66053037Y-47010319D01*
X65961848Y-47101508D01*
X66116641Y-47256301D01*
X66279122Y-47093819D01*
X66336099Y-47039435D01*
X66369971Y-47013343D01*
X66405721Y-47014829D01*
X66403286Y-47057159D01*
X66354230Y-47119448D01*
X66340157Y-47133852D01*
X66279216Y-47192144D01*
X66218141Y-47241853D01*
X66187875Y-47259005D01*
X66129713Y-47275103D01*
X66074680Y-47285459D01*
X66014170Y-47294671D01*
X66005840Y-47295823D01*
X65949769Y-47303996D01*
X65895127Y-47313125D01*
X65840980Y-47324218D01*
X65812437Y-47331773D01*
X65750545Y-47357892D01*
X65687670Y-47394921D01*
X65678023Y-47401291D01*
X65616398Y-47447356D01*
X65554393Y-47501408D01*
X65499736Y-47554045D01*
X65441157Y-47614381D01*
X65385297Y-47676549D01*
X65336593Y-47737834D01*
X65305867Y-47784618D01*
X65276025Y-47848271D01*
X65261632Y-47904697D01*
X65259077Y-47949497D01*
X65265998Y-47996637D01*
X65281327Y-48035426D01*
X65305275Y-48070770D01*
X65318687Y-48085373D01*
X65351325Y-48112727D01*
X65387004Y-48132551D01*
X65430778Y-48145855D01*
X65467485Y-48149614D01*
X65520960Y-48145816D01*
X65578144Y-48129776D01*
X65633612Y-48101310D01*
X65696680Y-48054899D01*
X65761011Y-47999054D01*
X65818966Y-47944498D01*
X65864606Y-47899573D01*
X65923188Y-47840991D01*
G37*
G36*
X65734391Y-48465707D02*
G01*
X67007716Y-47192382D01*
X66841753Y-47026419D01*
X65568428Y-48299744D01*
X65734391Y-48465707D01*
G37*
G36*
X66729717Y-48329189D02*
G01*
X66563754Y-48163225D01*
X66340756Y-48386223D01*
X66281812Y-48443933D01*
X66225559Y-48492643D01*
X66187046Y-48493921D01*
X66190495Y-48448183D01*
X66243581Y-48387326D01*
X66302308Y-48327327D01*
X66874586Y-47755049D01*
X66932279Y-47698627D01*
X66991021Y-47647657D01*
X67034733Y-47643840D01*
X67029831Y-47687573D01*
X66977250Y-47748149D01*
X66920242Y-47806700D01*
X66907783Y-47819195D01*
X66740604Y-47986375D01*
X66906568Y-48152338D01*
X66964320Y-48094585D01*
X67022717Y-48035520D01*
X67084643Y-47971026D01*
X67137679Y-47913495D01*
X67194564Y-47847621D01*
X67231374Y-47800137D01*
X67269981Y-47738133D01*
X67298100Y-47673735D01*
X67314438Y-47613730D01*
X67317996Y-47593298D01*
X67320950Y-47541124D01*
X67313351Y-47494149D01*
X67295202Y-47452373D01*
X67270665Y-47420084D01*
X67266500Y-47415796D01*
X67234421Y-47388741D01*
X67199620Y-47369014D01*
X67156515Y-47355443D01*
X67109857Y-47351443D01*
X67097637Y-47351938D01*
X67041349Y-47361365D01*
X66977121Y-47385022D01*
X66911119Y-47422558D01*
X66890972Y-47436524D01*
X66824221Y-47488876D01*
X66764020Y-47541136D01*
X66706649Y-47593968D01*
X66643952Y-47654221D01*
X66599196Y-47698512D01*
X66237205Y-48060503D01*
X66181814Y-48116327D01*
X66126746Y-48172949D01*
X66070268Y-48232960D01*
X66038901Y-48267850D01*
X65990744Y-48329412D01*
X65950286Y-48395390D01*
X65934210Y-48427330D01*
X65909869Y-48491043D01*
X65898586Y-48546959D01*
X65897203Y-48590938D01*
X65904390Y-48636596D01*
X65921013Y-48677441D01*
X65944042Y-48710087D01*
X65953417Y-48720103D01*
X65985908Y-48747173D01*
X66021479Y-48766481D01*
X66065903Y-48779040D01*
X66114349Y-48781460D01*
X66127089Y-48780481D01*
X66184620Y-48770135D01*
X66247875Y-48747512D01*
X66310428Y-48713177D01*
X66329057Y-48700592D01*
X66390727Y-48653065D01*
X66455677Y-48596801D01*
X66520329Y-48536748D01*
X66581557Y-48477234D01*
X66603158Y-48455747D01*
X66729717Y-48329189D01*
G37*
G36*
X67618110Y-47802776D02*
G01*
X67397513Y-48041991D01*
X67446185Y-48090663D01*
X67683937Y-47868603D01*
X67854023Y-48038689D01*
X66489338Y-49220654D01*
X66254090Y-48985407D01*
X66384073Y-48837705D01*
X66650205Y-48837705D01*
X66691964Y-48797904D01*
X66752924Y-48739989D01*
X66811871Y-48684218D01*
X66868804Y-48630591D01*
X66941583Y-48562425D01*
X67010783Y-48498071D01*
X67076403Y-48437530D01*
X67138443Y-48380800D01*
X67210960Y-48315250D01*
X67166410Y-48270700D01*
X67135048Y-48304452D01*
X67074947Y-48369627D01*
X67019818Y-48429797D01*
X66958425Y-48497104D01*
X66890767Y-48571548D01*
X66835912Y-48632065D01*
X66777533Y-48696597D01*
X66715631Y-48765144D01*
X66650205Y-48837705D01*
X66384073Y-48837705D01*
X67446163Y-47630829D01*
X67618110Y-47802776D01*
G37*
G36*
X67345047Y-49262850D02*
G01*
X67190254Y-49108057D01*
X67088012Y-49210299D01*
X67031185Y-49264181D01*
X67005986Y-49283017D01*
X66975638Y-49282512D01*
X66977038Y-49244674D01*
X67025420Y-49183902D01*
X67033239Y-49175974D01*
X67092634Y-49122017D01*
X67124956Y-49099683D01*
X67183148Y-49078927D01*
X67236765Y-49069631D01*
X67241822Y-49068989D01*
X67300297Y-49060998D01*
X67354679Y-49052213D01*
X67416901Y-49040115D01*
X67472727Y-49026775D01*
X67531278Y-49009130D01*
X67595019Y-48982823D01*
X67663658Y-48941312D01*
X67725007Y-48894925D01*
X67793323Y-48836200D01*
X67857424Y-48776044D01*
X67891395Y-48742567D01*
X67946079Y-48686380D01*
X67998609Y-48628456D01*
X68049321Y-48565485D01*
X68074936Y-48527641D01*
X68104651Y-48466272D01*
X68119572Y-48408075D01*
X68123016Y-48359079D01*
X68117888Y-48312008D01*
X68103667Y-48269570D01*
X68083392Y-48235738D01*
X68063470Y-48212766D01*
X68033762Y-48187924D01*
X67996018Y-48167658D01*
X67954230Y-48156058D01*
X67902382Y-48153367D01*
X67848094Y-48161049D01*
X67788416Y-48180686D01*
X67723552Y-48215785D01*
X67711846Y-48223686D01*
X67648515Y-48272010D01*
X67583188Y-48328582D01*
X67518495Y-48389274D01*
X67474896Y-48432178D01*
X67383707Y-48523367D01*
X67538500Y-48678160D01*
X67700981Y-48515678D01*
X67757958Y-48461294D01*
X67791830Y-48435202D01*
X67827580Y-48436688D01*
X67825145Y-48479018D01*
X67776089Y-48541307D01*
X67762016Y-48555711D01*
X67701075Y-48614003D01*
X67640000Y-48663712D01*
X67609734Y-48680864D01*
X67551572Y-48696962D01*
X67496539Y-48707318D01*
X67436029Y-48716530D01*
X67427699Y-48717682D01*
X67371628Y-48725855D01*
X67316986Y-48734984D01*
X67262839Y-48746077D01*
X67234296Y-48753632D01*
X67172404Y-48779751D01*
X67109529Y-48816780D01*
X67099882Y-48823150D01*
X67038257Y-48869215D01*
X66976252Y-48923267D01*
X66921595Y-48975904D01*
X66863016Y-49036240D01*
X66807156Y-49098408D01*
X66758452Y-49159693D01*
X66727726Y-49206477D01*
X66697884Y-49270130D01*
X66683491Y-49326556D01*
X66680936Y-49371356D01*
X66687857Y-49418496D01*
X66703186Y-49457285D01*
X66727134Y-49492629D01*
X66740546Y-49507232D01*
X66773184Y-49534586D01*
X66808863Y-49554410D01*
X66852637Y-49567714D01*
X66889344Y-49571473D01*
X66942819Y-49567675D01*
X67000003Y-49551635D01*
X67055471Y-49523169D01*
X67118539Y-49476758D01*
X67182870Y-49420913D01*
X67240825Y-49366357D01*
X67286465Y-49321432D01*
X67345047Y-49262850D01*
G37*
G36*
X67156250Y-49887566D02*
G01*
X68429575Y-48614241D01*
X68263612Y-48448278D01*
X66990287Y-49721603D01*
X67156250Y-49887566D01*
G37*
G36*
X68151576Y-49751048D02*
G01*
X67985613Y-49585084D01*
X67762615Y-49808082D01*
X67703671Y-49865792D01*
X67647418Y-49914502D01*
X67608905Y-49915780D01*
X67612354Y-49870042D01*
X67665440Y-49809185D01*
X67724167Y-49749186D01*
X68296445Y-49176908D01*
X68354138Y-49120486D01*
X68412880Y-49069516D01*
X68456592Y-49065699D01*
X68451690Y-49109432D01*
X68399109Y-49170008D01*
X68342101Y-49228559D01*
X68329642Y-49241054D01*
X68162463Y-49408234D01*
X68328427Y-49574197D01*
X68386179Y-49516444D01*
X68444576Y-49457379D01*
X68506502Y-49392885D01*
X68559538Y-49335354D01*
X68616423Y-49269480D01*
X68653233Y-49221996D01*
X68691840Y-49159992D01*
X68719959Y-49095594D01*
X68736297Y-49035589D01*
X68739855Y-49015157D01*
X68742809Y-48962983D01*
X68735210Y-48916008D01*
X68717061Y-48874232D01*
X68692524Y-48841943D01*
X68688359Y-48837655D01*
X68656280Y-48810600D01*
X68621479Y-48790873D01*
X68578374Y-48777302D01*
X68531716Y-48773302D01*
X68519496Y-48773797D01*
X68463208Y-48783224D01*
X68398980Y-48806881D01*
X68332978Y-48844417D01*
X68312831Y-48858383D01*
X68246080Y-48910735D01*
X68185879Y-48962995D01*
X68128508Y-49015827D01*
X68065811Y-49076080D01*
X68021055Y-49120371D01*
X67659064Y-49482362D01*
X67603673Y-49538186D01*
X67548605Y-49594808D01*
X67492127Y-49654819D01*
X67460760Y-49689709D01*
X67412603Y-49751271D01*
X67372145Y-49817249D01*
X67356069Y-49849189D01*
X67331728Y-49912902D01*
X67320445Y-49968818D01*
X67319062Y-50012797D01*
X67326249Y-50058455D01*
X67342872Y-50099300D01*
X67365901Y-50131946D01*
X67375276Y-50141962D01*
X67407767Y-50169032D01*
X67443338Y-50188340D01*
X67487762Y-50200899D01*
X67536208Y-50203319D01*
X67548948Y-50202340D01*
X67606479Y-50191994D01*
X67669734Y-50169371D01*
X67732287Y-50135036D01*
X67750916Y-50122451D01*
X67812586Y-50074924D01*
X67877536Y-50018660D01*
X67942188Y-49958607D01*
X68003416Y-49899093D01*
X68025017Y-49877606D01*
X68151576Y-49751048D01*
G37*
G36*
X69039969Y-49224635D02*
G01*
X68819372Y-49463850D01*
X68868044Y-49512522D01*
X69105796Y-49290462D01*
X69275882Y-49460548D01*
X67911197Y-50642513D01*
X67675949Y-50407266D01*
X67805932Y-50259564D01*
X68072064Y-50259564D01*
X68113823Y-50219763D01*
X68174783Y-50161848D01*
X68233730Y-50106077D01*
X68290663Y-50052450D01*
X68363442Y-49984284D01*
X68432642Y-49919930D01*
X68498262Y-49859389D01*
X68560302Y-49802659D01*
X68632819Y-49737109D01*
X68588269Y-49692559D01*
X68556907Y-49726311D01*
X68496806Y-49791486D01*
X68441677Y-49851656D01*
X68380284Y-49918963D01*
X68312626Y-49993407D01*
X68257771Y-50053924D01*
X68199392Y-50118456D01*
X68137490Y-50187003D01*
X68072064Y-50259564D01*
X67805932Y-50259564D01*
X68868022Y-49052688D01*
X69039969Y-49224635D01*
G37*
D11*
X68268909Y-65015130D02*
X68307004Y-65081797D01*
X68307004Y-65081797D02*
X68307004Y-65181797D01*
X68307004Y-65181797D02*
X68268909Y-65281797D01*
X68268909Y-65281797D02*
X68192719Y-65348464D01*
X68192719Y-65348464D02*
X68116528Y-65381797D01*
X68116528Y-65381797D02*
X67964147Y-65415130D01*
X67964147Y-65415130D02*
X67849861Y-65415130D01*
X67849861Y-65415130D02*
X67697480Y-65381797D01*
X67697480Y-65381797D02*
X67621290Y-65348464D01*
X67621290Y-65348464D02*
X67545100Y-65281797D01*
X67545100Y-65281797D02*
X67507004Y-65181797D01*
X67507004Y-65181797D02*
X67507004Y-65115130D01*
X67507004Y-65115130D02*
X67545100Y-65015130D01*
X67545100Y-65015130D02*
X67583195Y-64981797D01*
X67583195Y-64981797D02*
X67849861Y-64981797D01*
X67849861Y-64981797D02*
X67849861Y-65115130D01*
X67507004Y-64681797D02*
X68307004Y-64681797D01*
X68307004Y-64681797D02*
X67507004Y-64281797D01*
X67507004Y-64281797D02*
X68307004Y-64281797D01*
X67507004Y-63948464D02*
X68307004Y-63948464D01*
X68307004Y-63948464D02*
X68307004Y-63781797D01*
X68307004Y-63781797D02*
X68268909Y-63681797D01*
X68268909Y-63681797D02*
X68192719Y-63615131D01*
X68192719Y-63615131D02*
X68116528Y-63581797D01*
X68116528Y-63581797D02*
X67964147Y-63548464D01*
X67964147Y-63548464D02*
X67849861Y-63548464D01*
X67849861Y-63548464D02*
X67697480Y-63581797D01*
X67697480Y-63581797D02*
X67621290Y-63615131D01*
X67621290Y-63615131D02*
X67545100Y-63681797D01*
X67545100Y-63681797D02*
X67507004Y-63781797D01*
X67507004Y-63781797D02*
X67507004Y-63948464D01*
D10*
G36*
X72376972Y-51954343D02*
G01*
X72141724Y-52189591D01*
X71105034Y-51277271D01*
X71427018Y-51277271D01*
X71460770Y-51308633D01*
X71525945Y-51368735D01*
X71586115Y-51423863D01*
X71653422Y-51485257D01*
X71727866Y-51552915D01*
X71788383Y-51607770D01*
X71852915Y-51666148D01*
X71921461Y-51728050D01*
X71994023Y-51793477D01*
X71954221Y-51751718D01*
X71896306Y-51690757D01*
X71840535Y-51631811D01*
X71786909Y-51574877D01*
X71718743Y-51502098D01*
X71654389Y-51432899D01*
X71593847Y-51367279D01*
X71537118Y-51305238D01*
X71471567Y-51232722D01*
X71427018Y-51277271D01*
X71105034Y-51277271D01*
X70787146Y-50997519D01*
X70959094Y-50825571D01*
X71198309Y-51046168D01*
X71246980Y-50997496D01*
X71024921Y-50759744D01*
X71195006Y-50589659D01*
X72376972Y-51954343D01*
G37*
G36*
X72419167Y-51098635D02*
G01*
X72264375Y-51253427D01*
X72366616Y-51355669D01*
X72420498Y-51412496D01*
X72439334Y-51437696D01*
X72438830Y-51468044D01*
X72400992Y-51466643D01*
X72340220Y-51418262D01*
X72332291Y-51410443D01*
X72278334Y-51351048D01*
X72256000Y-51318726D01*
X72235244Y-51260533D01*
X72225948Y-51206917D01*
X72225307Y-51201859D01*
X72217316Y-51143384D01*
X72208531Y-51089002D01*
X72196432Y-51026781D01*
X72183093Y-50970954D01*
X72165447Y-50912404D01*
X72139141Y-50848662D01*
X72097629Y-50780023D01*
X72051242Y-50718675D01*
X71992517Y-50650359D01*
X71932361Y-50586257D01*
X71898884Y-50552287D01*
X71842698Y-50497602D01*
X71784774Y-50445072D01*
X71721802Y-50394360D01*
X71683959Y-50368746D01*
X71622589Y-50339030D01*
X71564393Y-50324110D01*
X71515396Y-50320666D01*
X71468325Y-50325794D01*
X71425888Y-50340015D01*
X71392055Y-50360290D01*
X71369083Y-50380211D01*
X71344242Y-50409919D01*
X71323976Y-50447663D01*
X71312376Y-50489452D01*
X71309685Y-50541299D01*
X71317366Y-50595588D01*
X71337004Y-50655266D01*
X71372103Y-50720130D01*
X71380004Y-50731835D01*
X71428327Y-50795166D01*
X71484900Y-50860493D01*
X71545591Y-50925186D01*
X71588496Y-50968786D01*
X71679684Y-51059974D01*
X71834477Y-50905182D01*
X71671996Y-50742700D01*
X71617612Y-50685723D01*
X71591520Y-50651852D01*
X71593005Y-50616102D01*
X71635335Y-50618537D01*
X71697624Y-50667593D01*
X71712029Y-50681666D01*
X71770320Y-50742606D01*
X71820030Y-50803682D01*
X71837182Y-50833948D01*
X71853279Y-50892109D01*
X71863636Y-50947142D01*
X71872847Y-51007652D01*
X71873999Y-51015983D01*
X71882173Y-51072053D01*
X71891302Y-51126696D01*
X71902395Y-51180842D01*
X71909950Y-51209386D01*
X71936069Y-51271277D01*
X71973097Y-51334153D01*
X71979467Y-51343799D01*
X72025533Y-51405424D01*
X72079585Y-51467430D01*
X72132222Y-51522087D01*
X72192557Y-51580666D01*
X72254725Y-51636525D01*
X72316010Y-51685230D01*
X72362795Y-51715956D01*
X72426447Y-51745798D01*
X72482874Y-51760191D01*
X72527673Y-51762745D01*
X72574813Y-51755824D01*
X72613603Y-51740496D01*
X72648947Y-51716547D01*
X72663550Y-51703136D01*
X72690903Y-51670497D01*
X72710728Y-51634818D01*
X72724031Y-51591045D01*
X72727791Y-51554338D01*
X72723992Y-51500863D01*
X72707953Y-51443678D01*
X72679487Y-51388210D01*
X72633075Y-51325142D01*
X72577230Y-51260812D01*
X72522675Y-51202856D01*
X72477749Y-51157216D01*
X72419167Y-51098635D01*
G37*
G36*
X73043884Y-51287431D02*
G01*
X71770559Y-50014106D01*
X71604595Y-50180070D01*
X72877921Y-51453395D01*
X73043884Y-51287431D01*
G37*
G36*
X72907365Y-50292106D02*
G01*
X72741402Y-50458069D01*
X72964400Y-50681067D01*
X73022109Y-50740011D01*
X73070819Y-50796263D01*
X73072097Y-50834777D01*
X73026359Y-50831328D01*
X72965503Y-50778242D01*
X72905503Y-50719514D01*
X72333226Y-50147237D01*
X72276804Y-50089543D01*
X72225834Y-50030802D01*
X72222017Y-49987090D01*
X72265749Y-49991991D01*
X72326325Y-50044573D01*
X72384876Y-50101581D01*
X72397372Y-50114039D01*
X72564551Y-50281218D01*
X72730514Y-50115255D01*
X72672762Y-50057502D01*
X72613696Y-49999106D01*
X72549202Y-49937180D01*
X72491672Y-49884144D01*
X72425798Y-49827258D01*
X72378314Y-49790449D01*
X72316310Y-49751841D01*
X72251912Y-49723723D01*
X72191907Y-49707385D01*
X72171474Y-49703827D01*
X72119300Y-49700873D01*
X72072325Y-49708471D01*
X72030550Y-49726621D01*
X71998260Y-49751158D01*
X71993973Y-49755322D01*
X71966918Y-49787402D01*
X71947191Y-49822203D01*
X71933619Y-49865307D01*
X71929619Y-49911965D01*
X71930115Y-49924185D01*
X71939541Y-49980474D01*
X71963199Y-50044702D01*
X72000734Y-50110704D01*
X72014701Y-50130850D01*
X72067052Y-50197601D01*
X72119312Y-50257803D01*
X72172145Y-50315174D01*
X72232398Y-50377870D01*
X72276689Y-50422626D01*
X72638680Y-50784618D01*
X72694504Y-50840009D01*
X72751125Y-50895076D01*
X72811136Y-50951555D01*
X72846027Y-50982922D01*
X72907589Y-51031079D01*
X72973566Y-51071537D01*
X73005507Y-51087613D01*
X73069220Y-51111954D01*
X73125135Y-51123236D01*
X73169115Y-51124620D01*
X73214772Y-51117432D01*
X73255618Y-51100809D01*
X73288264Y-51077781D01*
X73298280Y-51068406D01*
X73325350Y-51035914D01*
X73344657Y-51000343D01*
X73357217Y-50955919D01*
X73359637Y-50907473D01*
X73358657Y-50894733D01*
X73348311Y-50837203D01*
X73325689Y-50773947D01*
X73291353Y-50711395D01*
X73278769Y-50692766D01*
X73231241Y-50631095D01*
X73174977Y-50566146D01*
X73114924Y-50501493D01*
X73055411Y-50440266D01*
X73033924Y-50418664D01*
X72907365Y-50292106D01*
G37*
G36*
X73798831Y-50532484D02*
G01*
X73563583Y-50767732D01*
X72526893Y-49855412D01*
X72848877Y-49855412D01*
X72882629Y-49886774D01*
X72947804Y-49946876D01*
X73007974Y-50002004D01*
X73075281Y-50063398D01*
X73149725Y-50131056D01*
X73210242Y-50185911D01*
X73274774Y-50244289D01*
X73343320Y-50306191D01*
X73415882Y-50371618D01*
X73376080Y-50329859D01*
X73318165Y-50268898D01*
X73262394Y-50209952D01*
X73208768Y-50153018D01*
X73140602Y-50080239D01*
X73076248Y-50011040D01*
X73015706Y-49945420D01*
X72958977Y-49883379D01*
X72893426Y-49810863D01*
X72848877Y-49855412D01*
X72526893Y-49855412D01*
X72209005Y-49575660D01*
X72380953Y-49403712D01*
X72620168Y-49624309D01*
X72668839Y-49575637D01*
X72446780Y-49337885D01*
X72616865Y-49167800D01*
X73798831Y-50532484D01*
G37*
G36*
X73841026Y-49676776D02*
G01*
X73686234Y-49831568D01*
X73788475Y-49933810D01*
X73842357Y-49990637D01*
X73861193Y-50015837D01*
X73860689Y-50046185D01*
X73822851Y-50044784D01*
X73762079Y-49996403D01*
X73754150Y-49988584D01*
X73700193Y-49929189D01*
X73677859Y-49896867D01*
X73657103Y-49838674D01*
X73647807Y-49785058D01*
X73647166Y-49780000D01*
X73639175Y-49721525D01*
X73630390Y-49667143D01*
X73618291Y-49604922D01*
X73604952Y-49549095D01*
X73587306Y-49490545D01*
X73561000Y-49426803D01*
X73519488Y-49358164D01*
X73473101Y-49296816D01*
X73414376Y-49228500D01*
X73354220Y-49164398D01*
X73320743Y-49130428D01*
X73264557Y-49075743D01*
X73206633Y-49023213D01*
X73143661Y-48972501D01*
X73105818Y-48946887D01*
X73044448Y-48917171D01*
X72986252Y-48902251D01*
X72937255Y-48898807D01*
X72890184Y-48903935D01*
X72847747Y-48918156D01*
X72813914Y-48938431D01*
X72790942Y-48958352D01*
X72766101Y-48988060D01*
X72745835Y-49025804D01*
X72734235Y-49067593D01*
X72731544Y-49119440D01*
X72739225Y-49173729D01*
X72758863Y-49233407D01*
X72793962Y-49298271D01*
X72801863Y-49309976D01*
X72850186Y-49373307D01*
X72906759Y-49438634D01*
X72967450Y-49503327D01*
X73010355Y-49546927D01*
X73101543Y-49638115D01*
X73256336Y-49483323D01*
X73093855Y-49320841D01*
X73039471Y-49263864D01*
X73013379Y-49229993D01*
X73014864Y-49194243D01*
X73057194Y-49196678D01*
X73119483Y-49245734D01*
X73133888Y-49259807D01*
X73192179Y-49320747D01*
X73241889Y-49381823D01*
X73259041Y-49412089D01*
X73275138Y-49470250D01*
X73285495Y-49525283D01*
X73294706Y-49585793D01*
X73295858Y-49594124D01*
X73304032Y-49650194D01*
X73313161Y-49704837D01*
X73324254Y-49758983D01*
X73331809Y-49787527D01*
X73357928Y-49849418D01*
X73394956Y-49912294D01*
X73401326Y-49921940D01*
X73447392Y-49983565D01*
X73501444Y-50045571D01*
X73554081Y-50100228D01*
X73614416Y-50158807D01*
X73676584Y-50214666D01*
X73737869Y-50263371D01*
X73784654Y-50294097D01*
X73848306Y-50323939D01*
X73904733Y-50338332D01*
X73949532Y-50340886D01*
X73996672Y-50333965D01*
X74035462Y-50318637D01*
X74070806Y-50294688D01*
X74085409Y-50281277D01*
X74112762Y-50248638D01*
X74132587Y-50212959D01*
X74145890Y-50169186D01*
X74149650Y-50132479D01*
X74145851Y-50079004D01*
X74129812Y-50021819D01*
X74101346Y-49966351D01*
X74054934Y-49903283D01*
X73999089Y-49838953D01*
X73944534Y-49780997D01*
X73899608Y-49735357D01*
X73841026Y-49676776D01*
G37*
G36*
X74465743Y-49865572D02*
G01*
X73192418Y-48592247D01*
X73026454Y-48758211D01*
X74299780Y-50031536D01*
X74465743Y-49865572D01*
G37*
G36*
X74329224Y-48870247D02*
G01*
X74163261Y-49036210D01*
X74386259Y-49259208D01*
X74443968Y-49318152D01*
X74492678Y-49374404D01*
X74493956Y-49412918D01*
X74448218Y-49409469D01*
X74387362Y-49356383D01*
X74327362Y-49297655D01*
X73755085Y-48725378D01*
X73698663Y-48667684D01*
X73647693Y-48608943D01*
X73643876Y-48565231D01*
X73687608Y-48570132D01*
X73748184Y-48622714D01*
X73806735Y-48679722D01*
X73819231Y-48692180D01*
X73986410Y-48859359D01*
X74152373Y-48693396D01*
X74094621Y-48635643D01*
X74035555Y-48577247D01*
X73971061Y-48515321D01*
X73913531Y-48462285D01*
X73847657Y-48405399D01*
X73800173Y-48368590D01*
X73738169Y-48329982D01*
X73673771Y-48301864D01*
X73613766Y-48285526D01*
X73593333Y-48281968D01*
X73541159Y-48279014D01*
X73494184Y-48286612D01*
X73452409Y-48304762D01*
X73420119Y-48329299D01*
X73415832Y-48333463D01*
X73388777Y-48365543D01*
X73369050Y-48400344D01*
X73355478Y-48443448D01*
X73351478Y-48490106D01*
X73351974Y-48502326D01*
X73361400Y-48558615D01*
X73385058Y-48622843D01*
X73422593Y-48688845D01*
X73436560Y-48708991D01*
X73488911Y-48775742D01*
X73541171Y-48835944D01*
X73594004Y-48893315D01*
X73654257Y-48956011D01*
X73698548Y-49000767D01*
X74060539Y-49362759D01*
X74116363Y-49418150D01*
X74172984Y-49473217D01*
X74232995Y-49529696D01*
X74267886Y-49561063D01*
X74329448Y-49609220D01*
X74395425Y-49649678D01*
X74427366Y-49665754D01*
X74491079Y-49690095D01*
X74546994Y-49701377D01*
X74590974Y-49702761D01*
X74636631Y-49695573D01*
X74677477Y-49678950D01*
X74710123Y-49655922D01*
X74720139Y-49646547D01*
X74747209Y-49614055D01*
X74766516Y-49578484D01*
X74779076Y-49534060D01*
X74781496Y-49485614D01*
X74780516Y-49472874D01*
X74770170Y-49415344D01*
X74747548Y-49352088D01*
X74713212Y-49289536D01*
X74700628Y-49270907D01*
X74653100Y-49209236D01*
X74596836Y-49144287D01*
X74536783Y-49079634D01*
X74477270Y-49018407D01*
X74455783Y-48996805D01*
X74329224Y-48870247D01*
G37*
G36*
X75220690Y-49110625D02*
G01*
X74985442Y-49345873D01*
X73948752Y-48433553D01*
X74270736Y-48433553D01*
X74304488Y-48464915D01*
X74369663Y-48525017D01*
X74429833Y-48580145D01*
X74497140Y-48641539D01*
X74571584Y-48709197D01*
X74632101Y-48764052D01*
X74696633Y-48822430D01*
X74765179Y-48884332D01*
X74837741Y-48949759D01*
X74797939Y-48908000D01*
X74740024Y-48847039D01*
X74684253Y-48788093D01*
X74630627Y-48731159D01*
X74562461Y-48658380D01*
X74498107Y-48589181D01*
X74437565Y-48523561D01*
X74380836Y-48461520D01*
X74315285Y-48389004D01*
X74270736Y-48433553D01*
X73948752Y-48433553D01*
X73630864Y-48153801D01*
X73802812Y-47981853D01*
X74042027Y-48202450D01*
X74090698Y-48153778D01*
X73868639Y-47916026D01*
X74038724Y-47745941D01*
X75220690Y-49110625D01*
G37*
G36*
X75732452Y-47885351D02*
G01*
X75577659Y-48040143D01*
X75679901Y-48142385D01*
X75733782Y-48199212D01*
X75752618Y-48224412D01*
X75752114Y-48254760D01*
X75714276Y-48253359D01*
X75653504Y-48204978D01*
X75645575Y-48197159D01*
X75591618Y-48137763D01*
X75569284Y-48105442D01*
X75548528Y-48047249D01*
X75539232Y-47993632D01*
X75538591Y-47988575D01*
X75530600Y-47930100D01*
X75521815Y-47875718D01*
X75509716Y-47813497D01*
X75496377Y-47757670D01*
X75478732Y-47699120D01*
X75452425Y-47635378D01*
X75410914Y-47566739D01*
X75364526Y-47505390D01*
X75305801Y-47437075D01*
X75245646Y-47372973D01*
X75212168Y-47339003D01*
X75155982Y-47284318D01*
X75098058Y-47231788D01*
X75035086Y-47181076D01*
X74997243Y-47155461D01*
X74935873Y-47125746D01*
X74877677Y-47110825D01*
X74828680Y-47107382D01*
X74781610Y-47112510D01*
X74739172Y-47126731D01*
X74705340Y-47147006D01*
X74682368Y-47166927D01*
X74657526Y-47196635D01*
X74637260Y-47234379D01*
X74625660Y-47276168D01*
X74622969Y-47328015D01*
X74630650Y-47382304D01*
X74650288Y-47441982D01*
X74685387Y-47506846D01*
X74693288Y-47518551D01*
X74741611Y-47581882D01*
X74798184Y-47647209D01*
X74858875Y-47711902D01*
X74901780Y-47755502D01*
X74992969Y-47846690D01*
X75147761Y-47691898D01*
X74985280Y-47529416D01*
X74930896Y-47472439D01*
X74904804Y-47438568D01*
X74906289Y-47402818D01*
X74948619Y-47405253D01*
X75010909Y-47454309D01*
X75025313Y-47468382D01*
X75083604Y-47529322D01*
X75133314Y-47590398D01*
X75150466Y-47620663D01*
X75166563Y-47678825D01*
X75176920Y-47733858D01*
X75186132Y-47794368D01*
X75187283Y-47802699D01*
X75195457Y-47858769D01*
X75204586Y-47913412D01*
X75215679Y-47967558D01*
X75223234Y-47996102D01*
X75249353Y-48057993D01*
X75286382Y-48120868D01*
X75292751Y-48130515D01*
X75338817Y-48192140D01*
X75392869Y-48254146D01*
X75445506Y-48308803D01*
X75505841Y-48367382D01*
X75568009Y-48423241D01*
X75629295Y-48471945D01*
X75676079Y-48502672D01*
X75739731Y-48532513D01*
X75796158Y-48546907D01*
X75840957Y-48549461D01*
X75888097Y-48542540D01*
X75926887Y-48527212D01*
X75962231Y-48503263D01*
X75976834Y-48489852D01*
X76004187Y-48457213D01*
X76024012Y-48421534D01*
X76037316Y-48377761D01*
X76041075Y-48341054D01*
X76037277Y-48287579D01*
X76021237Y-48230394D01*
X75992771Y-48174926D01*
X75946359Y-48111858D01*
X75890514Y-48047527D01*
X75835959Y-47989572D01*
X75791033Y-47943932D01*
X75732452Y-47885351D01*
G37*
G36*
X76357168Y-48074147D02*
G01*
X75083843Y-46800822D01*
X74917880Y-46966786D01*
X76191205Y-48240111D01*
X76357168Y-48074147D01*
G37*
G36*
X76220649Y-47078821D02*
G01*
X76054686Y-47244785D01*
X76277684Y-47467783D01*
X76335394Y-47526727D01*
X76384103Y-47582979D01*
X76385381Y-47621492D01*
X76339644Y-47618043D01*
X76278787Y-47564958D01*
X76218788Y-47506230D01*
X75646510Y-46933952D01*
X75590088Y-46876259D01*
X75539118Y-46817518D01*
X75535301Y-46773806D01*
X75579034Y-46778707D01*
X75639610Y-46831289D01*
X75698160Y-46888297D01*
X75710656Y-46900755D01*
X75877835Y-47067934D01*
X76043799Y-46901971D01*
X75986046Y-46844218D01*
X75926981Y-46785822D01*
X75862486Y-46723895D01*
X75804956Y-46670860D01*
X75739082Y-46613974D01*
X75691598Y-46577165D01*
X75629594Y-46538557D01*
X75565196Y-46510439D01*
X75505191Y-46494100D01*
X75484759Y-46490542D01*
X75432585Y-46487589D01*
X75385610Y-46495187D01*
X75343834Y-46513337D01*
X75311545Y-46537873D01*
X75307257Y-46542038D01*
X75280202Y-46574118D01*
X75260475Y-46608919D01*
X75246903Y-46652023D01*
X75242903Y-46698681D01*
X75243399Y-46710901D01*
X75252825Y-46767190D01*
X75276483Y-46831418D01*
X75314018Y-46897420D01*
X75327985Y-46917566D01*
X75380336Y-46984317D01*
X75432596Y-47044519D01*
X75485429Y-47101889D01*
X75545682Y-47164586D01*
X75589973Y-47209342D01*
X75951964Y-47571333D01*
X76007788Y-47626725D01*
X76064409Y-47681792D01*
X76124421Y-47738271D01*
X76159311Y-47769638D01*
X76220873Y-47817795D01*
X76286851Y-47858252D01*
X76318791Y-47874328D01*
X76382504Y-47898670D01*
X76438419Y-47909952D01*
X76482399Y-47911336D01*
X76528056Y-47904148D01*
X76568902Y-47887525D01*
X76601548Y-47864496D01*
X76611564Y-47855122D01*
X76638634Y-47822630D01*
X76657941Y-47787059D01*
X76670501Y-47742635D01*
X76672921Y-47694189D01*
X76671942Y-47681449D01*
X76661596Y-47623918D01*
X76638973Y-47560663D01*
X76604638Y-47498110D01*
X76592053Y-47479482D01*
X76544525Y-47417811D01*
X76488261Y-47352862D01*
X76428208Y-47288209D01*
X76368695Y-47226981D01*
X76347208Y-47205380D01*
X76220649Y-47078821D01*
G37*
G36*
X77112115Y-47319200D02*
G01*
X76876867Y-47554448D01*
X75840177Y-46642128D01*
X76162161Y-46642128D01*
X76195913Y-46673490D01*
X76261088Y-46733592D01*
X76321258Y-46788720D01*
X76388565Y-46850114D01*
X76463009Y-46917772D01*
X76523526Y-46972626D01*
X76588058Y-47031005D01*
X76656605Y-47092907D01*
X76729166Y-47158333D01*
X76689364Y-47116575D01*
X76631449Y-47055614D01*
X76575678Y-46996668D01*
X76522052Y-46939734D01*
X76453886Y-46866955D01*
X76389532Y-46797756D01*
X76328990Y-46732136D01*
X76272261Y-46670095D01*
X76206710Y-46597579D01*
X76162161Y-46642128D01*
X75840177Y-46642128D01*
X75522289Y-46362376D01*
X75694237Y-46190428D01*
X75933452Y-46411025D01*
X75982124Y-46362353D01*
X75760064Y-46124601D01*
X75930150Y-45954516D01*
X77112115Y-47319200D01*
G37*
G36*
X77154311Y-46463492D02*
G01*
X76999518Y-46618284D01*
X77101760Y-46720526D01*
X77155641Y-46777353D01*
X77174477Y-46802553D01*
X77173973Y-46832901D01*
X77136135Y-46831500D01*
X77075363Y-46783119D01*
X77067434Y-46775300D01*
X77013477Y-46715904D01*
X76991143Y-46683583D01*
X76970387Y-46625390D01*
X76961091Y-46571773D01*
X76960450Y-46566716D01*
X76952459Y-46508241D01*
X76943674Y-46453859D01*
X76931575Y-46391638D01*
X76918236Y-46335811D01*
X76900591Y-46277261D01*
X76874284Y-46213519D01*
X76832773Y-46144880D01*
X76786385Y-46083531D01*
X76727660Y-46015216D01*
X76667505Y-45951114D01*
X76634027Y-45917144D01*
X76577841Y-45862459D01*
X76519917Y-45809929D01*
X76456945Y-45759217D01*
X76419102Y-45733602D01*
X76357732Y-45703887D01*
X76299536Y-45688966D01*
X76250539Y-45685523D01*
X76203469Y-45690651D01*
X76161031Y-45704872D01*
X76127199Y-45725147D01*
X76104227Y-45745068D01*
X76079385Y-45774776D01*
X76059119Y-45812520D01*
X76047519Y-45854309D01*
X76044828Y-45906156D01*
X76052509Y-45960445D01*
X76072147Y-46020123D01*
X76107246Y-46084987D01*
X76115147Y-46096692D01*
X76163470Y-46160023D01*
X76220043Y-46225350D01*
X76280734Y-46290043D01*
X76323639Y-46333643D01*
X76414828Y-46424831D01*
X76569620Y-46270039D01*
X76407139Y-46107557D01*
X76352755Y-46050580D01*
X76326663Y-46016709D01*
X76328148Y-45980959D01*
X76370478Y-45983394D01*
X76432768Y-46032450D01*
X76447172Y-46046523D01*
X76505463Y-46107463D01*
X76555173Y-46168539D01*
X76572325Y-46198804D01*
X76588422Y-46256966D01*
X76598779Y-46311999D01*
X76607991Y-46372509D01*
X76609142Y-46380840D01*
X76617316Y-46436910D01*
X76626445Y-46491553D01*
X76637538Y-46545699D01*
X76645093Y-46574243D01*
X76671212Y-46636134D01*
X76708241Y-46699009D01*
X76714610Y-46708656D01*
X76760676Y-46770281D01*
X76814728Y-46832287D01*
X76867365Y-46886944D01*
X76927700Y-46945523D01*
X76989868Y-47001382D01*
X77051154Y-47050086D01*
X77097938Y-47080813D01*
X77161590Y-47110654D01*
X77218017Y-47125048D01*
X77262816Y-47127602D01*
X77309956Y-47120681D01*
X77348746Y-47105353D01*
X77384090Y-47081404D01*
X77398693Y-47067993D01*
X77426046Y-47035354D01*
X77445871Y-46999675D01*
X77459175Y-46955902D01*
X77462934Y-46919195D01*
X77459136Y-46865720D01*
X77443096Y-46808535D01*
X77414630Y-46753067D01*
X77368218Y-46689999D01*
X77312373Y-46625668D01*
X77257818Y-46567713D01*
X77212892Y-46522073D01*
X77154311Y-46463492D01*
G37*
G36*
X77779027Y-46652288D02*
G01*
X76505702Y-45378963D01*
X76339739Y-45544927D01*
X77613064Y-46818252D01*
X77779027Y-46652288D01*
G37*
G36*
X77642508Y-45656962D02*
G01*
X77476545Y-45822926D01*
X77699543Y-46045924D01*
X77757253Y-46104868D01*
X77805962Y-46161120D01*
X77807240Y-46199633D01*
X77761503Y-46196184D01*
X77700646Y-46143099D01*
X77640647Y-46084371D01*
X77068369Y-45512093D01*
X77011947Y-45454400D01*
X76960977Y-45395659D01*
X76957160Y-45351947D01*
X77000893Y-45356848D01*
X77061469Y-45409430D01*
X77120019Y-45466438D01*
X77132515Y-45478896D01*
X77299694Y-45646075D01*
X77465658Y-45480112D01*
X77407905Y-45422359D01*
X77348840Y-45363963D01*
X77284345Y-45302036D01*
X77226815Y-45249001D01*
X77160941Y-45192115D01*
X77113457Y-45155306D01*
X77051453Y-45116698D01*
X76987055Y-45088580D01*
X76927050Y-45072241D01*
X76906618Y-45068683D01*
X76854444Y-45065730D01*
X76807469Y-45073328D01*
X76765693Y-45091478D01*
X76733404Y-45116014D01*
X76729116Y-45120179D01*
X76702061Y-45152259D01*
X76682334Y-45187060D01*
X76668762Y-45230164D01*
X76664762Y-45276822D01*
X76665258Y-45289042D01*
X76674684Y-45345331D01*
X76698342Y-45409559D01*
X76735877Y-45475561D01*
X76749844Y-45495707D01*
X76802195Y-45562458D01*
X76854455Y-45622660D01*
X76907288Y-45680030D01*
X76967541Y-45742727D01*
X77011832Y-45787483D01*
X77373823Y-46149474D01*
X77429647Y-46204866D01*
X77486268Y-46259933D01*
X77546280Y-46316412D01*
X77581170Y-46347779D01*
X77642732Y-46395936D01*
X77708710Y-46436393D01*
X77740650Y-46452469D01*
X77804363Y-46476811D01*
X77860278Y-46488093D01*
X77904258Y-46489477D01*
X77949915Y-46482289D01*
X77990761Y-46465666D01*
X78023407Y-46442637D01*
X78033423Y-46433263D01*
X78060493Y-46400771D01*
X78079800Y-46365200D01*
X78092360Y-46320776D01*
X78094780Y-46272330D01*
X78093801Y-46259590D01*
X78083455Y-46202059D01*
X78060832Y-46138804D01*
X78026497Y-46076251D01*
X78013912Y-46057623D01*
X77966384Y-45995952D01*
X77910120Y-45931003D01*
X77850067Y-45866350D01*
X77790554Y-45805122D01*
X77769067Y-45783521D01*
X77642508Y-45656962D01*
G37*
G36*
X78533974Y-45897341D02*
G01*
X78298726Y-46132589D01*
X77262036Y-45220269D01*
X77584020Y-45220269D01*
X77617772Y-45251631D01*
X77682947Y-45311733D01*
X77743117Y-45366861D01*
X77810424Y-45428255D01*
X77884868Y-45495913D01*
X77945385Y-45550767D01*
X78009917Y-45609146D01*
X78078464Y-45671048D01*
X78151025Y-45736474D01*
X78111223Y-45694716D01*
X78053308Y-45633755D01*
X77997537Y-45574809D01*
X77943911Y-45517875D01*
X77875745Y-45445096D01*
X77811391Y-45375897D01*
X77750849Y-45310277D01*
X77694120Y-45248236D01*
X77628569Y-45175720D01*
X77584020Y-45220269D01*
X77262036Y-45220269D01*
X76944148Y-44940517D01*
X77116096Y-44768569D01*
X77355311Y-44989166D01*
X77403983Y-44940494D01*
X77181923Y-44702742D01*
X77352009Y-44532657D01*
X78533974Y-45897341D01*
G37*
G36*
X78576170Y-45041633D02*
G01*
X78421377Y-45196425D01*
X78523619Y-45298667D01*
X78577500Y-45355494D01*
X78596336Y-45380694D01*
X78595832Y-45411042D01*
X78557994Y-45409641D01*
X78497222Y-45361260D01*
X78489293Y-45353441D01*
X78435336Y-45294045D01*
X78413002Y-45261724D01*
X78392246Y-45203531D01*
X78382950Y-45149914D01*
X78382309Y-45144857D01*
X78374318Y-45086382D01*
X78365533Y-45032000D01*
X78353434Y-44969779D01*
X78340095Y-44913952D01*
X78322450Y-44855402D01*
X78296143Y-44791660D01*
X78254632Y-44723021D01*
X78208244Y-44661672D01*
X78149519Y-44593357D01*
X78089364Y-44529255D01*
X78055886Y-44495285D01*
X77999700Y-44440600D01*
X77941776Y-44388070D01*
X77878804Y-44337358D01*
X77840961Y-44311743D01*
X77779591Y-44282028D01*
X77721395Y-44267107D01*
X77672398Y-44263664D01*
X77625328Y-44268792D01*
X77582890Y-44283013D01*
X77549058Y-44303288D01*
X77526086Y-44323209D01*
X77501244Y-44352917D01*
X77480978Y-44390661D01*
X77469378Y-44432450D01*
X77466687Y-44484297D01*
X77474368Y-44538586D01*
X77494006Y-44598264D01*
X77529105Y-44663128D01*
X77537006Y-44674833D01*
X77585329Y-44738164D01*
X77641902Y-44803491D01*
X77702593Y-44868184D01*
X77745498Y-44911784D01*
X77836687Y-45002972D01*
X77991479Y-44848180D01*
X77828998Y-44685698D01*
X77774614Y-44628721D01*
X77748522Y-44594850D01*
X77750007Y-44559100D01*
X77792337Y-44561535D01*
X77854627Y-44610591D01*
X77869031Y-44624664D01*
X77927322Y-44685604D01*
X77977032Y-44746680D01*
X77994184Y-44776945D01*
X78010281Y-44835107D01*
X78020638Y-44890140D01*
X78029850Y-44950650D01*
X78031001Y-44958981D01*
X78039175Y-45015051D01*
X78048304Y-45069694D01*
X78059397Y-45123840D01*
X78066952Y-45152384D01*
X78093071Y-45214275D01*
X78130100Y-45277150D01*
X78136469Y-45286797D01*
X78182535Y-45348422D01*
X78236587Y-45410428D01*
X78289224Y-45465085D01*
X78349559Y-45523664D01*
X78411727Y-45579523D01*
X78473013Y-45628227D01*
X78519797Y-45658954D01*
X78583449Y-45688795D01*
X78639876Y-45703189D01*
X78684675Y-45705743D01*
X78731815Y-45698822D01*
X78770605Y-45683494D01*
X78805949Y-45659545D01*
X78820552Y-45646134D01*
X78847905Y-45613495D01*
X78867730Y-45577816D01*
X78881034Y-45534043D01*
X78884793Y-45497336D01*
X78880995Y-45443861D01*
X78864955Y-45386676D01*
X78836489Y-45331208D01*
X78790077Y-45268140D01*
X78734232Y-45203809D01*
X78679677Y-45145854D01*
X78634751Y-45100214D01*
X78576170Y-45041633D01*
G37*
G36*
X79200886Y-45230429D02*
G01*
X77927561Y-43957104D01*
X77761598Y-44123068D01*
X79034923Y-45396393D01*
X79200886Y-45230429D01*
G37*
G36*
X79064367Y-44235103D02*
G01*
X78898404Y-44401067D01*
X79121402Y-44624065D01*
X79179112Y-44683009D01*
X79227821Y-44739261D01*
X79229099Y-44777774D01*
X79183362Y-44774325D01*
X79122505Y-44721240D01*
X79062506Y-44662512D01*
X78490228Y-44090234D01*
X78433806Y-44032541D01*
X78382836Y-43973800D01*
X78379019Y-43930088D01*
X78422752Y-43934989D01*
X78483328Y-43987571D01*
X78541878Y-44044579D01*
X78554374Y-44057037D01*
X78721553Y-44224216D01*
X78887517Y-44058253D01*
X78829764Y-44000500D01*
X78770699Y-43942104D01*
X78706204Y-43880177D01*
X78648674Y-43827142D01*
X78582800Y-43770256D01*
X78535316Y-43733447D01*
X78473312Y-43694839D01*
X78408914Y-43666721D01*
X78348909Y-43650382D01*
X78328477Y-43646824D01*
X78276303Y-43643871D01*
X78229328Y-43651469D01*
X78187552Y-43669619D01*
X78155263Y-43694155D01*
X78150975Y-43698320D01*
X78123920Y-43730400D01*
X78104193Y-43765201D01*
X78090621Y-43808305D01*
X78086621Y-43854963D01*
X78087117Y-43867183D01*
X78096543Y-43923472D01*
X78120201Y-43987700D01*
X78157736Y-44053702D01*
X78171703Y-44073848D01*
X78224054Y-44140599D01*
X78276314Y-44200801D01*
X78329147Y-44258171D01*
X78389400Y-44320868D01*
X78433691Y-44365624D01*
X78795682Y-44727615D01*
X78851506Y-44783007D01*
X78908127Y-44838074D01*
X78968139Y-44894553D01*
X79003029Y-44925920D01*
X79064591Y-44974077D01*
X79130569Y-45014534D01*
X79162509Y-45030610D01*
X79226222Y-45054952D01*
X79282137Y-45066234D01*
X79326117Y-45067618D01*
X79371774Y-45060430D01*
X79412620Y-45043807D01*
X79445266Y-45020778D01*
X79455282Y-45011404D01*
X79482352Y-44978912D01*
X79501659Y-44943341D01*
X79514219Y-44898917D01*
X79516639Y-44850471D01*
X79515660Y-44837731D01*
X79505314Y-44780200D01*
X79482691Y-44716945D01*
X79448356Y-44654392D01*
X79435771Y-44635764D01*
X79388243Y-44574093D01*
X79331979Y-44509144D01*
X79271926Y-44444491D01*
X79212413Y-44383263D01*
X79190926Y-44361662D01*
X79064367Y-44235103D01*
G37*
G36*
X69212853Y-38402480D02*
G01*
X69040905Y-38574428D01*
X68801690Y-38353831D01*
X68753019Y-38402503D01*
X68975078Y-38640255D01*
X68804993Y-38810340D01*
X67762355Y-37606522D01*
X68005976Y-37606522D01*
X68045778Y-37648281D01*
X68103693Y-37709242D01*
X68159464Y-37768188D01*
X68213090Y-37825122D01*
X68281256Y-37897901D01*
X68345610Y-37967100D01*
X68406152Y-38032720D01*
X68462881Y-38094761D01*
X68528432Y-38167277D01*
X68572981Y-38122728D01*
X68539229Y-38091366D01*
X68474054Y-38031264D01*
X68413884Y-37976136D01*
X68346577Y-37914742D01*
X68272133Y-37847084D01*
X68211616Y-37792229D01*
X68147084Y-37733851D01*
X68078538Y-37671949D01*
X68005976Y-37606522D01*
X67762355Y-37606522D01*
X67623027Y-37445656D01*
X67858275Y-37210408D01*
X69212853Y-38402480D01*
G37*
G36*
X67580832Y-38301364D02*
G01*
X67735624Y-38146572D01*
X67633383Y-38044330D01*
X67579501Y-37987503D01*
X67560665Y-37962303D01*
X67561169Y-37931955D01*
X67599007Y-37933356D01*
X67659779Y-37981737D01*
X67667708Y-37989556D01*
X67721665Y-38048951D01*
X67743999Y-38081273D01*
X67764755Y-38139466D01*
X67774051Y-38193082D01*
X67774692Y-38198140D01*
X67782683Y-38256615D01*
X67791468Y-38310997D01*
X67803567Y-38373218D01*
X67816906Y-38429045D01*
X67834552Y-38487595D01*
X67860858Y-38551337D01*
X67902370Y-38619976D01*
X67948757Y-38681324D01*
X68007482Y-38749640D01*
X68067638Y-38813742D01*
X68101115Y-38847712D01*
X68157301Y-38902397D01*
X68215225Y-38954927D01*
X68278197Y-39005639D01*
X68316040Y-39031253D01*
X68377410Y-39060969D01*
X68435606Y-39075889D01*
X68484603Y-39079333D01*
X68531674Y-39074205D01*
X68574111Y-39059984D01*
X68607944Y-39039709D01*
X68630916Y-39019788D01*
X68655757Y-38990080D01*
X68676023Y-38952336D01*
X68687623Y-38910547D01*
X68690314Y-38858700D01*
X68682633Y-38804411D01*
X68662995Y-38744733D01*
X68627896Y-38679869D01*
X68619995Y-38668164D01*
X68571672Y-38604833D01*
X68515099Y-38539506D01*
X68454408Y-38474813D01*
X68411503Y-38431213D01*
X68320315Y-38340025D01*
X68165522Y-38494817D01*
X68328003Y-38657299D01*
X68382387Y-38714276D01*
X68408479Y-38748147D01*
X68406994Y-38783897D01*
X68364664Y-38781462D01*
X68302375Y-38732406D01*
X68287970Y-38718333D01*
X68229679Y-38657393D01*
X68179969Y-38596317D01*
X68162817Y-38566051D01*
X68146720Y-38507890D01*
X68136363Y-38452857D01*
X68127152Y-38392347D01*
X68126000Y-38384016D01*
X68117826Y-38327946D01*
X68108697Y-38273303D01*
X68097604Y-38219157D01*
X68090049Y-38190613D01*
X68063930Y-38128722D01*
X68026902Y-38065846D01*
X68020532Y-38056200D01*
X67974466Y-37994575D01*
X67920414Y-37932569D01*
X67867777Y-37877912D01*
X67807442Y-37819333D01*
X67745274Y-37763474D01*
X67683989Y-37714769D01*
X67637204Y-37684043D01*
X67573552Y-37654201D01*
X67517125Y-37639808D01*
X67472326Y-37637254D01*
X67425186Y-37644175D01*
X67386396Y-37659503D01*
X67351052Y-37683452D01*
X67336449Y-37696863D01*
X67309096Y-37729502D01*
X67289271Y-37765181D01*
X67275968Y-37808954D01*
X67272208Y-37845661D01*
X67276007Y-37899136D01*
X67292046Y-37956321D01*
X67320512Y-38011789D01*
X67366924Y-38074857D01*
X67422769Y-38139187D01*
X67477324Y-38197143D01*
X67522250Y-38242783D01*
X67580832Y-38301364D01*
G37*
G36*
X66956115Y-38112568D02*
G01*
X68229440Y-39385893D01*
X68395404Y-39219929D01*
X67122078Y-37946604D01*
X66956115Y-38112568D01*
G37*
G36*
X67092634Y-39107893D02*
G01*
X67258597Y-38941930D01*
X67035599Y-38718932D01*
X66977890Y-38659988D01*
X66929180Y-38603736D01*
X66927902Y-38565222D01*
X66973640Y-38568671D01*
X67034496Y-38621757D01*
X67094496Y-38680485D01*
X67666773Y-39252762D01*
X67723195Y-39310456D01*
X67774165Y-39369197D01*
X67777982Y-39412909D01*
X67734250Y-39408008D01*
X67673674Y-39355426D01*
X67615123Y-39298418D01*
X67602627Y-39285960D01*
X67435448Y-39118781D01*
X67269485Y-39284744D01*
X67327237Y-39342497D01*
X67386303Y-39400893D01*
X67450797Y-39462819D01*
X67508327Y-39515855D01*
X67574201Y-39572741D01*
X67621685Y-39609550D01*
X67683689Y-39648158D01*
X67748087Y-39676276D01*
X67808092Y-39692614D01*
X67828525Y-39696172D01*
X67880699Y-39699126D01*
X67927674Y-39691528D01*
X67969449Y-39673378D01*
X68001739Y-39648841D01*
X68006026Y-39644677D01*
X68033081Y-39612597D01*
X68052808Y-39577796D01*
X68066380Y-39534692D01*
X68070380Y-39488034D01*
X68069884Y-39475814D01*
X68060458Y-39419525D01*
X68036800Y-39355297D01*
X67999265Y-39289295D01*
X67985298Y-39269149D01*
X67932947Y-39202398D01*
X67880687Y-39142196D01*
X67827854Y-39084825D01*
X67767601Y-39022129D01*
X67723310Y-38977373D01*
X67361319Y-38615381D01*
X67305495Y-38559990D01*
X67248874Y-38504923D01*
X67188863Y-38448444D01*
X67153972Y-38417077D01*
X67092410Y-38368920D01*
X67026433Y-38328462D01*
X66994492Y-38312386D01*
X66930779Y-38288045D01*
X66874864Y-38276763D01*
X66830884Y-38275379D01*
X66785227Y-38282567D01*
X66744381Y-38299190D01*
X66711735Y-38322218D01*
X66701719Y-38331593D01*
X66674649Y-38364085D01*
X66655342Y-38399656D01*
X66642782Y-38444080D01*
X66640362Y-38492526D01*
X66641342Y-38505266D01*
X66651688Y-38562796D01*
X66674310Y-38626052D01*
X66708646Y-38688604D01*
X66721230Y-38707233D01*
X66768758Y-38768904D01*
X66825022Y-38833853D01*
X66885075Y-38898506D01*
X66944588Y-38959733D01*
X66966075Y-38981335D01*
X67092634Y-39107893D01*
G37*
D11*
X72607004Y-57818202D02*
X73407004Y-57818202D01*
X73407004Y-57351536D02*
X73407004Y-57218202D01*
X73407004Y-57218202D02*
X73368909Y-57151536D01*
X73368909Y-57151536D02*
X73292719Y-57084869D01*
X73292719Y-57084869D02*
X73140338Y-57051536D01*
X73140338Y-57051536D02*
X72873671Y-57051536D01*
X72873671Y-57051536D02*
X72721290Y-57084869D01*
X72721290Y-57084869D02*
X72645100Y-57151536D01*
X72645100Y-57151536D02*
X72607004Y-57218202D01*
X72607004Y-57218202D02*
X72607004Y-57351536D01*
X72607004Y-57351536D02*
X72645100Y-57418202D01*
X72645100Y-57418202D02*
X72721290Y-57484869D01*
X72721290Y-57484869D02*
X72873671Y-57518202D01*
X72873671Y-57518202D02*
X73140338Y-57518202D01*
X73140338Y-57518202D02*
X73292719Y-57484869D01*
X73292719Y-57484869D02*
X73368909Y-57418202D01*
X73368909Y-57418202D02*
X73407004Y-57351536D01*
X72607004Y-56384869D02*
X72607004Y-56784869D01*
X72607004Y-56584869D02*
X73407004Y-56584869D01*
X73407004Y-56584869D02*
X73292719Y-56651536D01*
X73292719Y-56651536D02*
X73216528Y-56718203D01*
X73216528Y-56718203D02*
X73178433Y-56784869D01*
X72907004Y-65081797D02*
X73707004Y-65081797D01*
X73707004Y-64615131D02*
X73707004Y-64481797D01*
X73707004Y-64481797D02*
X73668909Y-64415131D01*
X73668909Y-64415131D02*
X73592719Y-64348464D01*
X73592719Y-64348464D02*
X73440338Y-64315131D01*
X73440338Y-64315131D02*
X73173671Y-64315131D01*
X73173671Y-64315131D02*
X73021290Y-64348464D01*
X73021290Y-64348464D02*
X72945100Y-64415131D01*
X72945100Y-64415131D02*
X72907004Y-64481797D01*
X72907004Y-64481797D02*
X72907004Y-64615131D01*
X72907004Y-64615131D02*
X72945100Y-64681797D01*
X72945100Y-64681797D02*
X73021290Y-64748464D01*
X73021290Y-64748464D02*
X73173671Y-64781797D01*
X73173671Y-64781797D02*
X73440338Y-64781797D01*
X73440338Y-64781797D02*
X73592719Y-64748464D01*
X73592719Y-64748464D02*
X73668909Y-64681797D01*
X73668909Y-64681797D02*
X73707004Y-64615131D01*
X73630814Y-64048464D02*
X73668909Y-64015131D01*
X73668909Y-64015131D02*
X73707004Y-63948464D01*
X73707004Y-63948464D02*
X73707004Y-63781798D01*
X73707004Y-63781798D02*
X73668909Y-63715131D01*
X73668909Y-63715131D02*
X73630814Y-63681798D01*
X73630814Y-63681798D02*
X73554623Y-63648464D01*
X73554623Y-63648464D02*
X73478433Y-63648464D01*
X73478433Y-63648464D02*
X73364147Y-63681798D01*
X73364147Y-63681798D02*
X72907004Y-64081798D01*
X72907004Y-64081798D02*
X72907004Y-63648464D01*
X70045100Y-65215131D02*
X70007004Y-65115131D01*
X70007004Y-65115131D02*
X70007004Y-64948465D01*
X70007004Y-64948465D02*
X70045100Y-64881798D01*
X70045100Y-64881798D02*
X70083195Y-64848465D01*
X70083195Y-64848465D02*
X70159385Y-64815131D01*
X70159385Y-64815131D02*
X70235576Y-64815131D01*
X70235576Y-64815131D02*
X70311766Y-64848465D01*
X70311766Y-64848465D02*
X70349861Y-64881798D01*
X70349861Y-64881798D02*
X70387957Y-64948465D01*
X70387957Y-64948465D02*
X70426052Y-65081798D01*
X70426052Y-65081798D02*
X70464147Y-65148465D01*
X70464147Y-65148465D02*
X70502242Y-65181798D01*
X70502242Y-65181798D02*
X70578433Y-65215131D01*
X70578433Y-65215131D02*
X70654623Y-65215131D01*
X70654623Y-65215131D02*
X70730814Y-65181798D01*
X70730814Y-65181798D02*
X70768909Y-65148465D01*
X70768909Y-65148465D02*
X70807004Y-65081798D01*
X70807004Y-65081798D02*
X70807004Y-64915131D01*
X70807004Y-64915131D02*
X70768909Y-64815131D01*
X70083195Y-64115131D02*
X70045100Y-64148464D01*
X70045100Y-64148464D02*
X70007004Y-64248464D01*
X70007004Y-64248464D02*
X70007004Y-64315131D01*
X70007004Y-64315131D02*
X70045100Y-64415131D01*
X70045100Y-64415131D02*
X70121290Y-64481798D01*
X70121290Y-64481798D02*
X70197480Y-64515131D01*
X70197480Y-64515131D02*
X70349861Y-64548464D01*
X70349861Y-64548464D02*
X70464147Y-64548464D01*
X70464147Y-64548464D02*
X70616528Y-64515131D01*
X70616528Y-64515131D02*
X70692719Y-64481798D01*
X70692719Y-64481798D02*
X70768909Y-64415131D01*
X70768909Y-64415131D02*
X70807004Y-64315131D01*
X70807004Y-64315131D02*
X70807004Y-64248464D01*
X70807004Y-64248464D02*
X70768909Y-64148464D01*
X70768909Y-64148464D02*
X70730814Y-64115131D01*
X70007004Y-63481798D02*
X70007004Y-63815131D01*
X70007004Y-63815131D02*
X70807004Y-63815131D01*
D10*
G36*
X72589591Y-36258275D02*
G01*
X71397519Y-37612853D01*
X71225571Y-37440905D01*
X71446168Y-37201690D01*
X71397496Y-37153019D01*
X71159744Y-37375078D01*
X70989659Y-37204993D01*
X71308973Y-36928432D01*
X71632722Y-36928432D01*
X71677271Y-36972981D01*
X71708633Y-36939229D01*
X71768735Y-36874054D01*
X71823863Y-36813884D01*
X71885257Y-36746577D01*
X71952915Y-36672133D01*
X72007770Y-36611616D01*
X72066148Y-36547084D01*
X72128050Y-36478538D01*
X72193477Y-36405976D01*
X72151718Y-36445778D01*
X72090757Y-36503693D01*
X72031811Y-36559464D01*
X71974877Y-36613090D01*
X71902098Y-36681256D01*
X71832899Y-36745610D01*
X71767279Y-36806152D01*
X71705238Y-36862881D01*
X71632722Y-36928432D01*
X71308973Y-36928432D01*
X72354343Y-36023027D01*
X72589591Y-36258275D01*
G37*
G36*
X71498635Y-35980832D02*
G01*
X71653427Y-36135624D01*
X71755669Y-36033383D01*
X71812496Y-35979501D01*
X71837696Y-35960665D01*
X71868044Y-35961169D01*
X71866643Y-35999007D01*
X71818262Y-36059779D01*
X71810443Y-36067708D01*
X71751048Y-36121665D01*
X71718726Y-36143999D01*
X71660533Y-36164755D01*
X71606917Y-36174051D01*
X71601859Y-36174692D01*
X71543384Y-36182683D01*
X71489002Y-36191468D01*
X71426781Y-36203567D01*
X71370954Y-36216906D01*
X71312404Y-36234552D01*
X71248662Y-36260858D01*
X71180023Y-36302370D01*
X71118675Y-36348757D01*
X71050359Y-36407482D01*
X70986257Y-36467638D01*
X70952287Y-36501115D01*
X70897602Y-36557301D01*
X70845072Y-36615225D01*
X70794360Y-36678197D01*
X70768746Y-36716040D01*
X70739030Y-36777410D01*
X70724110Y-36835606D01*
X70720666Y-36884603D01*
X70725794Y-36931674D01*
X70740015Y-36974111D01*
X70760290Y-37007944D01*
X70780211Y-37030916D01*
X70809919Y-37055757D01*
X70847663Y-37076023D01*
X70889452Y-37087623D01*
X70941299Y-37090314D01*
X70995588Y-37082633D01*
X71055266Y-37062995D01*
X71120130Y-37027896D01*
X71131835Y-37019995D01*
X71195166Y-36971672D01*
X71260493Y-36915099D01*
X71325186Y-36854408D01*
X71368786Y-36811503D01*
X71459974Y-36720315D01*
X71305182Y-36565522D01*
X71142700Y-36728003D01*
X71085723Y-36782387D01*
X71051852Y-36808479D01*
X71016102Y-36806994D01*
X71018537Y-36764664D01*
X71067593Y-36702375D01*
X71081666Y-36687970D01*
X71142606Y-36629679D01*
X71203682Y-36579969D01*
X71233948Y-36562817D01*
X71292109Y-36546720D01*
X71347142Y-36536363D01*
X71407652Y-36527152D01*
X71415983Y-36526000D01*
X71472053Y-36517826D01*
X71526696Y-36508697D01*
X71580842Y-36497604D01*
X71609386Y-36490049D01*
X71671277Y-36463930D01*
X71734153Y-36426902D01*
X71743799Y-36420532D01*
X71805424Y-36374466D01*
X71867430Y-36320414D01*
X71922087Y-36267777D01*
X71980666Y-36207442D01*
X72036525Y-36145274D01*
X72085230Y-36083989D01*
X72115956Y-36037204D01*
X72145798Y-35973552D01*
X72160191Y-35917125D01*
X72162745Y-35872326D01*
X72155824Y-35825186D01*
X72140496Y-35786396D01*
X72116547Y-35751052D01*
X72103136Y-35736449D01*
X72070497Y-35709096D01*
X72034818Y-35689271D01*
X71991045Y-35675968D01*
X71954338Y-35672208D01*
X71900863Y-35676007D01*
X71843678Y-35692046D01*
X71788210Y-35720512D01*
X71725142Y-35766924D01*
X71660812Y-35822769D01*
X71602856Y-35877324D01*
X71557216Y-35922250D01*
X71498635Y-35980832D01*
G37*
D12*
X47988861Y-59443155D02*
X47977458Y-60009367D01*
X47977458Y-60009367D02*
X47627595Y-59564033D01*
X47110419Y-60299474D02*
X47543938Y-60154420D01*
X47327178Y-60226947D02*
X47073335Y-59468288D01*
X47073335Y-59468288D02*
X47181851Y-59552493D01*
X47181851Y-59552493D02*
X47278280Y-59600570D01*
X47278280Y-59600570D02*
X47362621Y-59612521D01*
X46761103Y-60336011D02*
X46737064Y-60384225D01*
X46737064Y-60384225D02*
X46785279Y-60408264D01*
X46785279Y-60408264D02*
X46809318Y-60360050D01*
X46809318Y-60360050D02*
X46761103Y-60336011D01*
X46761103Y-60336011D02*
X46785279Y-60408264D01*
X46025663Y-59818834D02*
X45953410Y-59843010D01*
X45953410Y-59843010D02*
X45893244Y-59903312D01*
X45893244Y-59903312D02*
X45869205Y-59951527D01*
X45869205Y-59951527D02*
X45857254Y-60035868D01*
X45857254Y-60035868D02*
X45869479Y-60192462D01*
X45869479Y-60192462D02*
X45929918Y-60373095D01*
X45929918Y-60373095D02*
X46014396Y-60505514D01*
X46014396Y-60505514D02*
X46074698Y-60565679D01*
X46074698Y-60565679D02*
X46122912Y-60589718D01*
X46122912Y-60589718D02*
X46207253Y-60601669D01*
X46207253Y-60601669D02*
X46279507Y-60577493D01*
X46279507Y-60577493D02*
X46339672Y-60517191D01*
X46339672Y-60517191D02*
X46363711Y-60468977D01*
X46363711Y-60468977D02*
X46375662Y-60384636D01*
X46375662Y-60384636D02*
X46363437Y-60228041D01*
X46363437Y-60228041D02*
X46302998Y-60047408D01*
X46302998Y-60047408D02*
X46218521Y-59914990D01*
X46218521Y-59914990D02*
X46158218Y-59854824D01*
X46158218Y-59854824D02*
X46110004Y-59830785D01*
X46110004Y-59830785D02*
X46025663Y-59818834D01*
D11*
X70145100Y-57851535D02*
X70107004Y-57751535D01*
X70107004Y-57751535D02*
X70107004Y-57584869D01*
X70107004Y-57584869D02*
X70145100Y-57518202D01*
X70145100Y-57518202D02*
X70183195Y-57484869D01*
X70183195Y-57484869D02*
X70259385Y-57451535D01*
X70259385Y-57451535D02*
X70335576Y-57451535D01*
X70335576Y-57451535D02*
X70411766Y-57484869D01*
X70411766Y-57484869D02*
X70449861Y-57518202D01*
X70449861Y-57518202D02*
X70487957Y-57584869D01*
X70487957Y-57584869D02*
X70526052Y-57718202D01*
X70526052Y-57718202D02*
X70564147Y-57784869D01*
X70564147Y-57784869D02*
X70602242Y-57818202D01*
X70602242Y-57818202D02*
X70678433Y-57851535D01*
X70678433Y-57851535D02*
X70754623Y-57851535D01*
X70754623Y-57851535D02*
X70830814Y-57818202D01*
X70830814Y-57818202D02*
X70868909Y-57784869D01*
X70868909Y-57784869D02*
X70907004Y-57718202D01*
X70907004Y-57718202D02*
X70907004Y-57551535D01*
X70907004Y-57551535D02*
X70868909Y-57451535D01*
X70107004Y-57151535D02*
X70907004Y-57151535D01*
X70907004Y-57151535D02*
X70907004Y-56984868D01*
X70907004Y-56984868D02*
X70868909Y-56884868D01*
X70868909Y-56884868D02*
X70792719Y-56818202D01*
X70792719Y-56818202D02*
X70716528Y-56784868D01*
X70716528Y-56784868D02*
X70564147Y-56751535D01*
X70564147Y-56751535D02*
X70449861Y-56751535D01*
X70449861Y-56751535D02*
X70297480Y-56784868D01*
X70297480Y-56784868D02*
X70221290Y-56818202D01*
X70221290Y-56818202D02*
X70145100Y-56884868D01*
X70145100Y-56884868D02*
X70107004Y-56984868D01*
X70107004Y-56984868D02*
X70107004Y-57151535D01*
X70335576Y-56484868D02*
X70335576Y-56151535D01*
X70107004Y-56551535D02*
X70907004Y-56318202D01*
X70907004Y-56318202D02*
X70107004Y-56084868D01*
D10*
G36*
X66612853Y-41002480D02*
G01*
X66440905Y-41174428D01*
X66201690Y-40953831D01*
X66153019Y-41002503D01*
X66375078Y-41240255D01*
X66204993Y-41410340D01*
X65162355Y-40206522D01*
X65405976Y-40206522D01*
X65445778Y-40248281D01*
X65503693Y-40309242D01*
X65559464Y-40368188D01*
X65613090Y-40425122D01*
X65681256Y-40497901D01*
X65745610Y-40567100D01*
X65806152Y-40632720D01*
X65862881Y-40694761D01*
X65928432Y-40767277D01*
X65972981Y-40722728D01*
X65939229Y-40691366D01*
X65874054Y-40631264D01*
X65813884Y-40576136D01*
X65746577Y-40514742D01*
X65672133Y-40447084D01*
X65611616Y-40392229D01*
X65547084Y-40333851D01*
X65478538Y-40271949D01*
X65405976Y-40206522D01*
X65162355Y-40206522D01*
X65023027Y-40045656D01*
X65258275Y-39810408D01*
X66612853Y-41002480D01*
G37*
G36*
X64980832Y-40901364D02*
G01*
X65135624Y-40746572D01*
X65033383Y-40644330D01*
X64979501Y-40587503D01*
X64960665Y-40562303D01*
X64961169Y-40531955D01*
X64999007Y-40533356D01*
X65059779Y-40581737D01*
X65067708Y-40589556D01*
X65121665Y-40648951D01*
X65143999Y-40681273D01*
X65164755Y-40739466D01*
X65174051Y-40793082D01*
X65174692Y-40798140D01*
X65182683Y-40856615D01*
X65191468Y-40910997D01*
X65203567Y-40973218D01*
X65216906Y-41029045D01*
X65234552Y-41087595D01*
X65260858Y-41151337D01*
X65302370Y-41219976D01*
X65348757Y-41281324D01*
X65407482Y-41349640D01*
X65467638Y-41413742D01*
X65501115Y-41447712D01*
X65557301Y-41502397D01*
X65615225Y-41554927D01*
X65678197Y-41605639D01*
X65716040Y-41631253D01*
X65777410Y-41660969D01*
X65835606Y-41675889D01*
X65884603Y-41679333D01*
X65931674Y-41674205D01*
X65974111Y-41659984D01*
X66007944Y-41639709D01*
X66030916Y-41619788D01*
X66055757Y-41590080D01*
X66076023Y-41552336D01*
X66087623Y-41510547D01*
X66090314Y-41458700D01*
X66082633Y-41404411D01*
X66062995Y-41344733D01*
X66027896Y-41279869D01*
X66019995Y-41268164D01*
X65971672Y-41204833D01*
X65915099Y-41139506D01*
X65854408Y-41074813D01*
X65811503Y-41031213D01*
X65720315Y-40940025D01*
X65565522Y-41094817D01*
X65728003Y-41257299D01*
X65782387Y-41314276D01*
X65808479Y-41348147D01*
X65806994Y-41383897D01*
X65764664Y-41381462D01*
X65702375Y-41332406D01*
X65687970Y-41318333D01*
X65629679Y-41257393D01*
X65579969Y-41196317D01*
X65562817Y-41166051D01*
X65546720Y-41107890D01*
X65536363Y-41052857D01*
X65527152Y-40992347D01*
X65526000Y-40984016D01*
X65517826Y-40927946D01*
X65508697Y-40873303D01*
X65497604Y-40819157D01*
X65490049Y-40790613D01*
X65463930Y-40728722D01*
X65426902Y-40665846D01*
X65420532Y-40656200D01*
X65374466Y-40594575D01*
X65320414Y-40532569D01*
X65267777Y-40477912D01*
X65207442Y-40419333D01*
X65145274Y-40363474D01*
X65083989Y-40314769D01*
X65037204Y-40284043D01*
X64973552Y-40254201D01*
X64917125Y-40239808D01*
X64872326Y-40237254D01*
X64825186Y-40244175D01*
X64786396Y-40259503D01*
X64751052Y-40283452D01*
X64736449Y-40296863D01*
X64709096Y-40329502D01*
X64689271Y-40365181D01*
X64675968Y-40408954D01*
X64672208Y-40445661D01*
X64676007Y-40499136D01*
X64692046Y-40556321D01*
X64720512Y-40611789D01*
X64766924Y-40674857D01*
X64822769Y-40739187D01*
X64877324Y-40797143D01*
X64922250Y-40842783D01*
X64980832Y-40901364D01*
G37*
G36*
X64356115Y-40712568D02*
G01*
X65629440Y-41985893D01*
X65795404Y-41819929D01*
X64522078Y-40546604D01*
X64356115Y-40712568D01*
G37*
G36*
X64492634Y-41707893D02*
G01*
X64658597Y-41541930D01*
X64435599Y-41318932D01*
X64377890Y-41259988D01*
X64329180Y-41203736D01*
X64327902Y-41165222D01*
X64373640Y-41168671D01*
X64434496Y-41221757D01*
X64494496Y-41280485D01*
X65066773Y-41852762D01*
X65123195Y-41910456D01*
X65174165Y-41969197D01*
X65177982Y-42012909D01*
X65134250Y-42008008D01*
X65073674Y-41955426D01*
X65015123Y-41898418D01*
X65002627Y-41885960D01*
X64835448Y-41718781D01*
X64669485Y-41884744D01*
X64727237Y-41942497D01*
X64786303Y-42000893D01*
X64850797Y-42062819D01*
X64908327Y-42115855D01*
X64974201Y-42172741D01*
X65021685Y-42209550D01*
X65083689Y-42248158D01*
X65148087Y-42276276D01*
X65208092Y-42292614D01*
X65228525Y-42296172D01*
X65280699Y-42299126D01*
X65327674Y-42291528D01*
X65369449Y-42273378D01*
X65401739Y-42248841D01*
X65406026Y-42244677D01*
X65433081Y-42212597D01*
X65452808Y-42177796D01*
X65466380Y-42134692D01*
X65470380Y-42088034D01*
X65469884Y-42075814D01*
X65460458Y-42019525D01*
X65436800Y-41955297D01*
X65399265Y-41889295D01*
X65385298Y-41869149D01*
X65332947Y-41802398D01*
X65280687Y-41742196D01*
X65227854Y-41684825D01*
X65167601Y-41622129D01*
X65123310Y-41577373D01*
X64761319Y-41215381D01*
X64705495Y-41159990D01*
X64648874Y-41104923D01*
X64588863Y-41048444D01*
X64553972Y-41017077D01*
X64492410Y-40968920D01*
X64426433Y-40928462D01*
X64394492Y-40912386D01*
X64330779Y-40888045D01*
X64274864Y-40876763D01*
X64230884Y-40875379D01*
X64185227Y-40882567D01*
X64144381Y-40899190D01*
X64111735Y-40922218D01*
X64101719Y-40931593D01*
X64074649Y-40964085D01*
X64055342Y-40999656D01*
X64042782Y-41044080D01*
X64040362Y-41092526D01*
X64041342Y-41105266D01*
X64051688Y-41162796D01*
X64074310Y-41226052D01*
X64108646Y-41288604D01*
X64121230Y-41307233D01*
X64168758Y-41368904D01*
X64225022Y-41433853D01*
X64285075Y-41498506D01*
X64344588Y-41559733D01*
X64366075Y-41581335D01*
X64492634Y-41707893D01*
G37*
G36*
X65190994Y-42424339D02*
G01*
X65019046Y-42596287D01*
X64779831Y-42375690D01*
X64731160Y-42424362D01*
X64953219Y-42662114D01*
X64783134Y-42832199D01*
X63740496Y-41628381D01*
X63984117Y-41628381D01*
X64023919Y-41670140D01*
X64081834Y-41731101D01*
X64137605Y-41790047D01*
X64191231Y-41846981D01*
X64259397Y-41919760D01*
X64323751Y-41988959D01*
X64384293Y-42054579D01*
X64441022Y-42116620D01*
X64506573Y-42189136D01*
X64551122Y-42144587D01*
X64517370Y-42113225D01*
X64452195Y-42053123D01*
X64392025Y-41997995D01*
X64324718Y-41936601D01*
X64250274Y-41868943D01*
X64189757Y-41814088D01*
X64125225Y-41755710D01*
X64056679Y-41693808D01*
X63984117Y-41628381D01*
X63740496Y-41628381D01*
X63601168Y-41467515D01*
X63836416Y-41232267D01*
X65190994Y-42424339D01*
G37*
G36*
X63558973Y-42323223D02*
G01*
X63713765Y-42168431D01*
X63611524Y-42066189D01*
X63557642Y-42009362D01*
X63538806Y-41984162D01*
X63539310Y-41953814D01*
X63577148Y-41955215D01*
X63637920Y-42003596D01*
X63645849Y-42011415D01*
X63699806Y-42070810D01*
X63722140Y-42103132D01*
X63742896Y-42161325D01*
X63752192Y-42214941D01*
X63752833Y-42219999D01*
X63760824Y-42278474D01*
X63769609Y-42332856D01*
X63781708Y-42395077D01*
X63795047Y-42450904D01*
X63812693Y-42509454D01*
X63838999Y-42573196D01*
X63880511Y-42641835D01*
X63926898Y-42703183D01*
X63985623Y-42771499D01*
X64045779Y-42835601D01*
X64079256Y-42869571D01*
X64135442Y-42924256D01*
X64193366Y-42976786D01*
X64256338Y-43027498D01*
X64294181Y-43053112D01*
X64355551Y-43082828D01*
X64413747Y-43097748D01*
X64462744Y-43101192D01*
X64509815Y-43096064D01*
X64552252Y-43081843D01*
X64586085Y-43061568D01*
X64609057Y-43041647D01*
X64633898Y-43011939D01*
X64654164Y-42974195D01*
X64665764Y-42932406D01*
X64668455Y-42880559D01*
X64660774Y-42826270D01*
X64641136Y-42766592D01*
X64606037Y-42701728D01*
X64598136Y-42690023D01*
X64549813Y-42626692D01*
X64493240Y-42561365D01*
X64432549Y-42496672D01*
X64389644Y-42453072D01*
X64298456Y-42361884D01*
X64143663Y-42516676D01*
X64306144Y-42679158D01*
X64360528Y-42736135D01*
X64386620Y-42770006D01*
X64385135Y-42805756D01*
X64342805Y-42803321D01*
X64280516Y-42754265D01*
X64266111Y-42740192D01*
X64207820Y-42679252D01*
X64158110Y-42618176D01*
X64140958Y-42587910D01*
X64124861Y-42529749D01*
X64114504Y-42474716D01*
X64105293Y-42414206D01*
X64104141Y-42405875D01*
X64095967Y-42349805D01*
X64086838Y-42295162D01*
X64075745Y-42241016D01*
X64068190Y-42212472D01*
X64042071Y-42150581D01*
X64005043Y-42087705D01*
X63998673Y-42078059D01*
X63952607Y-42016434D01*
X63898555Y-41954428D01*
X63845918Y-41899771D01*
X63785583Y-41841192D01*
X63723415Y-41785333D01*
X63662130Y-41736628D01*
X63615345Y-41705902D01*
X63551693Y-41676060D01*
X63495266Y-41661667D01*
X63450467Y-41659113D01*
X63403327Y-41666034D01*
X63364537Y-41681362D01*
X63329193Y-41705311D01*
X63314590Y-41718722D01*
X63287237Y-41751361D01*
X63267412Y-41787040D01*
X63254109Y-41830813D01*
X63250349Y-41867520D01*
X63254148Y-41920995D01*
X63270187Y-41978180D01*
X63298653Y-42033648D01*
X63345065Y-42096716D01*
X63400910Y-42161046D01*
X63455465Y-42219002D01*
X63500391Y-42264642D01*
X63558973Y-42323223D01*
G37*
G36*
X62934256Y-42134427D02*
G01*
X64207581Y-43407752D01*
X64373545Y-43241788D01*
X63100219Y-41968463D01*
X62934256Y-42134427D01*
G37*
G36*
X63070775Y-43129752D02*
G01*
X63236738Y-42963789D01*
X63013740Y-42740791D01*
X62956031Y-42681847D01*
X62907321Y-42625595D01*
X62906043Y-42587081D01*
X62951781Y-42590530D01*
X63012637Y-42643616D01*
X63072637Y-42702344D01*
X63644914Y-43274621D01*
X63701336Y-43332315D01*
X63752306Y-43391056D01*
X63756123Y-43434768D01*
X63712391Y-43429867D01*
X63651815Y-43377285D01*
X63593264Y-43320277D01*
X63580768Y-43307819D01*
X63413589Y-43140640D01*
X63247626Y-43306603D01*
X63305378Y-43364356D01*
X63364444Y-43422752D01*
X63428938Y-43484678D01*
X63486468Y-43537714D01*
X63552342Y-43594600D01*
X63599826Y-43631409D01*
X63661830Y-43670017D01*
X63726228Y-43698135D01*
X63786233Y-43714473D01*
X63806666Y-43718031D01*
X63858840Y-43720985D01*
X63905815Y-43713387D01*
X63947590Y-43695237D01*
X63979880Y-43670700D01*
X63984167Y-43666536D01*
X64011222Y-43634456D01*
X64030949Y-43599655D01*
X64044521Y-43556551D01*
X64048521Y-43509893D01*
X64048025Y-43497673D01*
X64038599Y-43441384D01*
X64014941Y-43377156D01*
X63977406Y-43311154D01*
X63963439Y-43291008D01*
X63911088Y-43224257D01*
X63858828Y-43164055D01*
X63805995Y-43106684D01*
X63745742Y-43043988D01*
X63701451Y-42999232D01*
X63339460Y-42637240D01*
X63283636Y-42581849D01*
X63227015Y-42526782D01*
X63167004Y-42470303D01*
X63132113Y-42438936D01*
X63070551Y-42390779D01*
X63004574Y-42350321D01*
X62972633Y-42334245D01*
X62908920Y-42309904D01*
X62853005Y-42298622D01*
X62809025Y-42297238D01*
X62763368Y-42304426D01*
X62722522Y-42321049D01*
X62689876Y-42344077D01*
X62679860Y-42353452D01*
X62652790Y-42385944D01*
X62633483Y-42421515D01*
X62620923Y-42465939D01*
X62618503Y-42514385D01*
X62619483Y-42527125D01*
X62629829Y-42584655D01*
X62652451Y-42647911D01*
X62686787Y-42710463D01*
X62699371Y-42729092D01*
X62746899Y-42790763D01*
X62803163Y-42855712D01*
X62863216Y-42920365D01*
X62922729Y-42981592D01*
X62944216Y-43003194D01*
X63070775Y-43129752D01*
G37*
G36*
X63974428Y-44059094D02*
G01*
X63753831Y-44298309D01*
X63802503Y-44346980D01*
X64040255Y-44124921D01*
X64210340Y-44295006D01*
X62845656Y-45476972D01*
X62610408Y-45241724D01*
X62740390Y-45094023D01*
X63006522Y-45094023D01*
X63048281Y-45054221D01*
X63109242Y-44996306D01*
X63168188Y-44940535D01*
X63225122Y-44886909D01*
X63297901Y-44818743D01*
X63367100Y-44754389D01*
X63432720Y-44693847D01*
X63494761Y-44637118D01*
X63567277Y-44571567D01*
X63522728Y-44527018D01*
X63491366Y-44560770D01*
X63431264Y-44625945D01*
X63376136Y-44686115D01*
X63314742Y-44753422D01*
X63247084Y-44827866D01*
X63192229Y-44888383D01*
X63133851Y-44952915D01*
X63071949Y-45021461D01*
X63006522Y-45094023D01*
X62740390Y-45094023D01*
X63802480Y-43887146D01*
X63974428Y-44059094D01*
G37*
G36*
X63701364Y-45519167D02*
G01*
X63546572Y-45364375D01*
X63444330Y-45466616D01*
X63387503Y-45520498D01*
X63362303Y-45539334D01*
X63331955Y-45538830D01*
X63333356Y-45500992D01*
X63381737Y-45440220D01*
X63389556Y-45432291D01*
X63448951Y-45378334D01*
X63481273Y-45356000D01*
X63539466Y-45335244D01*
X63593082Y-45325948D01*
X63598140Y-45325307D01*
X63656615Y-45317316D01*
X63710997Y-45308531D01*
X63773218Y-45296432D01*
X63829045Y-45283093D01*
X63887595Y-45265447D01*
X63951337Y-45239141D01*
X64019976Y-45197629D01*
X64081324Y-45151242D01*
X64149640Y-45092517D01*
X64213742Y-45032361D01*
X64247712Y-44998884D01*
X64302397Y-44942698D01*
X64354927Y-44884774D01*
X64405639Y-44821802D01*
X64431253Y-44783959D01*
X64460969Y-44722589D01*
X64475889Y-44664393D01*
X64479333Y-44615396D01*
X64474205Y-44568325D01*
X64459984Y-44525888D01*
X64439709Y-44492055D01*
X64419788Y-44469083D01*
X64390080Y-44444242D01*
X64352336Y-44423976D01*
X64310547Y-44412376D01*
X64258700Y-44409685D01*
X64204411Y-44417366D01*
X64144733Y-44437004D01*
X64079869Y-44472103D01*
X64068164Y-44480004D01*
X64004833Y-44528327D01*
X63939506Y-44584900D01*
X63874813Y-44645591D01*
X63831213Y-44688496D01*
X63740025Y-44779684D01*
X63894817Y-44934477D01*
X64057299Y-44771996D01*
X64114276Y-44717612D01*
X64148147Y-44691520D01*
X64183897Y-44693005D01*
X64181462Y-44735335D01*
X64132406Y-44797624D01*
X64118333Y-44812029D01*
X64057393Y-44870320D01*
X63996317Y-44920030D01*
X63966051Y-44937182D01*
X63907890Y-44953279D01*
X63852857Y-44963636D01*
X63792347Y-44972847D01*
X63784016Y-44973999D01*
X63727946Y-44982173D01*
X63673303Y-44991302D01*
X63619157Y-45002395D01*
X63590613Y-45009950D01*
X63528722Y-45036069D01*
X63465846Y-45073097D01*
X63456200Y-45079467D01*
X63394575Y-45125533D01*
X63332569Y-45179585D01*
X63277912Y-45232222D01*
X63219333Y-45292557D01*
X63163474Y-45354725D01*
X63114769Y-45416010D01*
X63084043Y-45462795D01*
X63054201Y-45526447D01*
X63039808Y-45582874D01*
X63037254Y-45627673D01*
X63044175Y-45674813D01*
X63059503Y-45713603D01*
X63083452Y-45748947D01*
X63096863Y-45763550D01*
X63129502Y-45790903D01*
X63165181Y-45810728D01*
X63208954Y-45824031D01*
X63245661Y-45827791D01*
X63299136Y-45823992D01*
X63356321Y-45807953D01*
X63411789Y-45779487D01*
X63474857Y-45733075D01*
X63539187Y-45677230D01*
X63597143Y-45622675D01*
X63642783Y-45577749D01*
X63701364Y-45519167D01*
G37*
G36*
X63512568Y-46143884D02*
G01*
X64785893Y-44870559D01*
X64619929Y-44704595D01*
X63346604Y-45977921D01*
X63512568Y-46143884D01*
G37*
G36*
X77489591Y-40958275D02*
G01*
X76297519Y-42312853D01*
X76125571Y-42140905D01*
X76346168Y-41901690D01*
X76297496Y-41853019D01*
X76059744Y-42075078D01*
X75889659Y-41904993D01*
X76208973Y-41628432D01*
X76532722Y-41628432D01*
X76577271Y-41672981D01*
X76608633Y-41639229D01*
X76668735Y-41574054D01*
X76723863Y-41513884D01*
X76785257Y-41446577D01*
X76852915Y-41372133D01*
X76907770Y-41311616D01*
X76966148Y-41247084D01*
X77028050Y-41178538D01*
X77093477Y-41105976D01*
X77051718Y-41145778D01*
X76990757Y-41203693D01*
X76931811Y-41259464D01*
X76874877Y-41313090D01*
X76802098Y-41381256D01*
X76732899Y-41445610D01*
X76667279Y-41506152D01*
X76605238Y-41562881D01*
X76532722Y-41628432D01*
X76208973Y-41628432D01*
X77254343Y-40723027D01*
X77489591Y-40958275D01*
G37*
G36*
X76398635Y-40680832D02*
G01*
X76553427Y-40835624D01*
X76655669Y-40733383D01*
X76712496Y-40679501D01*
X76737696Y-40660665D01*
X76768044Y-40661169D01*
X76766643Y-40699007D01*
X76718262Y-40759779D01*
X76710443Y-40767708D01*
X76651048Y-40821665D01*
X76618726Y-40843999D01*
X76560533Y-40864755D01*
X76506917Y-40874051D01*
X76501859Y-40874692D01*
X76443384Y-40882683D01*
X76389002Y-40891468D01*
X76326781Y-40903567D01*
X76270954Y-40916906D01*
X76212404Y-40934552D01*
X76148662Y-40960858D01*
X76080023Y-41002370D01*
X76018675Y-41048757D01*
X75950359Y-41107482D01*
X75886257Y-41167638D01*
X75852287Y-41201115D01*
X75797602Y-41257301D01*
X75745072Y-41315225D01*
X75694360Y-41378197D01*
X75668746Y-41416040D01*
X75639030Y-41477410D01*
X75624110Y-41535606D01*
X75620666Y-41584603D01*
X75625794Y-41631674D01*
X75640015Y-41674111D01*
X75660290Y-41707944D01*
X75680211Y-41730916D01*
X75709919Y-41755757D01*
X75747663Y-41776023D01*
X75789452Y-41787623D01*
X75841299Y-41790314D01*
X75895588Y-41782633D01*
X75955266Y-41762995D01*
X76020130Y-41727896D01*
X76031835Y-41719995D01*
X76095166Y-41671672D01*
X76160493Y-41615099D01*
X76225186Y-41554408D01*
X76268786Y-41511503D01*
X76359974Y-41420315D01*
X76205182Y-41265522D01*
X76042700Y-41428003D01*
X75985723Y-41482387D01*
X75951852Y-41508479D01*
X75916102Y-41506994D01*
X75918537Y-41464664D01*
X75967593Y-41402375D01*
X75981666Y-41387970D01*
X76042606Y-41329679D01*
X76103682Y-41279969D01*
X76133948Y-41262817D01*
X76192109Y-41246720D01*
X76247142Y-41236363D01*
X76307652Y-41227152D01*
X76315983Y-41226000D01*
X76372053Y-41217826D01*
X76426696Y-41208697D01*
X76480842Y-41197604D01*
X76509386Y-41190049D01*
X76571277Y-41163930D01*
X76634153Y-41126902D01*
X76643799Y-41120532D01*
X76705424Y-41074466D01*
X76767430Y-41020414D01*
X76822087Y-40967777D01*
X76880666Y-40907442D01*
X76936525Y-40845274D01*
X76985230Y-40783989D01*
X77015956Y-40737204D01*
X77045798Y-40673552D01*
X77060191Y-40617125D01*
X77062745Y-40572326D01*
X77055824Y-40525186D01*
X77040496Y-40486396D01*
X77016547Y-40451052D01*
X77003136Y-40436449D01*
X76970497Y-40409096D01*
X76934818Y-40389271D01*
X76891045Y-40375968D01*
X76854338Y-40372208D01*
X76800863Y-40376007D01*
X76743678Y-40392046D01*
X76688210Y-40420512D01*
X76625142Y-40466924D01*
X76560812Y-40522769D01*
X76502856Y-40577324D01*
X76457216Y-40622250D01*
X76398635Y-40680832D01*
G37*
G36*
X76587431Y-40056115D02*
G01*
X75314106Y-41329440D01*
X75480070Y-41495404D01*
X76753395Y-40222078D01*
X76587431Y-40056115D01*
G37*
G36*
X75592106Y-40192634D02*
G01*
X75758069Y-40358597D01*
X75981067Y-40135599D01*
X76040011Y-40077890D01*
X76096263Y-40029180D01*
X76134777Y-40027902D01*
X76131328Y-40073640D01*
X76078242Y-40134496D01*
X76019514Y-40194496D01*
X75447237Y-40766773D01*
X75389543Y-40823195D01*
X75330802Y-40874165D01*
X75287090Y-40877982D01*
X75291991Y-40834250D01*
X75344573Y-40773674D01*
X75401581Y-40715123D01*
X75414039Y-40702627D01*
X75581218Y-40535448D01*
X75415255Y-40369485D01*
X75357502Y-40427237D01*
X75299106Y-40486303D01*
X75237180Y-40550797D01*
X75184144Y-40608327D01*
X75127258Y-40674201D01*
X75090449Y-40721685D01*
X75051841Y-40783689D01*
X75023723Y-40848087D01*
X75007385Y-40908092D01*
X75003827Y-40928525D01*
X75000873Y-40980699D01*
X75008471Y-41027674D01*
X75026621Y-41069449D01*
X75051158Y-41101739D01*
X75055322Y-41106026D01*
X75087402Y-41133081D01*
X75122203Y-41152808D01*
X75165307Y-41166380D01*
X75211965Y-41170380D01*
X75224185Y-41169884D01*
X75280474Y-41160458D01*
X75344702Y-41136800D01*
X75410704Y-41099265D01*
X75430850Y-41085298D01*
X75497601Y-41032947D01*
X75557803Y-40980687D01*
X75615174Y-40927854D01*
X75677870Y-40867601D01*
X75722626Y-40823310D01*
X76084618Y-40461319D01*
X76140009Y-40405495D01*
X76195076Y-40348874D01*
X76251555Y-40288863D01*
X76282922Y-40253972D01*
X76331079Y-40192410D01*
X76371537Y-40126433D01*
X76387613Y-40094492D01*
X76411954Y-40030779D01*
X76423236Y-39974864D01*
X76424620Y-39930884D01*
X76417432Y-39885227D01*
X76400809Y-39844381D01*
X76377781Y-39811735D01*
X76368406Y-39801719D01*
X76335914Y-39774649D01*
X76300343Y-39755342D01*
X76255919Y-39742782D01*
X76207473Y-39740362D01*
X76194733Y-39741342D01*
X76137203Y-39751688D01*
X76073947Y-39774310D01*
X76011395Y-39808646D01*
X75992766Y-39821230D01*
X75931095Y-39868758D01*
X75866146Y-39925022D01*
X75801493Y-39985075D01*
X75740266Y-40044588D01*
X75718664Y-40066075D01*
X75592106Y-40192634D01*
G37*
G36*
X76067732Y-39536416D02*
G01*
X74875660Y-40890994D01*
X74703712Y-40719046D01*
X74924309Y-40479831D01*
X74875637Y-40431160D01*
X74637885Y-40653219D01*
X74467800Y-40483134D01*
X74787114Y-40206573D01*
X75110863Y-40206573D01*
X75155412Y-40251122D01*
X75186774Y-40217370D01*
X75246876Y-40152195D01*
X75302004Y-40092025D01*
X75363398Y-40024718D01*
X75431056Y-39950274D01*
X75485911Y-39889757D01*
X75544289Y-39825225D01*
X75606191Y-39756679D01*
X75671618Y-39684117D01*
X75629859Y-39723919D01*
X75568898Y-39781834D01*
X75509952Y-39837605D01*
X75453018Y-39891231D01*
X75380239Y-39959397D01*
X75311040Y-40023751D01*
X75245420Y-40084293D01*
X75183379Y-40141022D01*
X75110863Y-40206573D01*
X74787114Y-40206573D01*
X75832484Y-39301168D01*
X76067732Y-39536416D01*
G37*
G36*
X74976776Y-39258973D02*
G01*
X75131568Y-39413765D01*
X75233810Y-39311524D01*
X75290637Y-39257642D01*
X75315837Y-39238806D01*
X75346185Y-39239310D01*
X75344784Y-39277148D01*
X75296403Y-39337920D01*
X75288584Y-39345849D01*
X75229189Y-39399806D01*
X75196867Y-39422140D01*
X75138674Y-39442896D01*
X75085058Y-39452192D01*
X75080000Y-39452833D01*
X75021525Y-39460824D01*
X74967143Y-39469609D01*
X74904922Y-39481708D01*
X74849095Y-39495047D01*
X74790545Y-39512693D01*
X74726803Y-39538999D01*
X74658164Y-39580511D01*
X74596816Y-39626898D01*
X74528500Y-39685623D01*
X74464398Y-39745779D01*
X74430428Y-39779256D01*
X74375743Y-39835442D01*
X74323213Y-39893366D01*
X74272501Y-39956338D01*
X74246887Y-39994181D01*
X74217171Y-40055551D01*
X74202251Y-40113747D01*
X74198807Y-40162744D01*
X74203935Y-40209815D01*
X74218156Y-40252252D01*
X74238431Y-40286085D01*
X74258352Y-40309057D01*
X74288060Y-40333898D01*
X74325804Y-40354164D01*
X74367593Y-40365764D01*
X74419440Y-40368455D01*
X74473729Y-40360774D01*
X74533407Y-40341136D01*
X74598271Y-40306037D01*
X74609976Y-40298136D01*
X74673307Y-40249813D01*
X74738634Y-40193240D01*
X74803327Y-40132549D01*
X74846927Y-40089644D01*
X74938115Y-39998456D01*
X74783323Y-39843663D01*
X74620841Y-40006144D01*
X74563864Y-40060528D01*
X74529993Y-40086620D01*
X74494243Y-40085135D01*
X74496678Y-40042805D01*
X74545734Y-39980516D01*
X74559807Y-39966111D01*
X74620747Y-39907820D01*
X74681823Y-39858110D01*
X74712089Y-39840958D01*
X74770250Y-39824861D01*
X74825283Y-39814504D01*
X74885793Y-39805293D01*
X74894124Y-39804141D01*
X74950194Y-39795967D01*
X75004837Y-39786838D01*
X75058983Y-39775745D01*
X75087527Y-39768190D01*
X75149418Y-39742071D01*
X75212294Y-39705043D01*
X75221940Y-39698673D01*
X75283565Y-39652607D01*
X75345571Y-39598555D01*
X75400228Y-39545918D01*
X75458807Y-39485583D01*
X75514666Y-39423415D01*
X75563371Y-39362130D01*
X75594097Y-39315345D01*
X75623939Y-39251693D01*
X75638332Y-39195266D01*
X75640886Y-39150467D01*
X75633965Y-39103327D01*
X75618637Y-39064537D01*
X75594688Y-39029193D01*
X75581277Y-39014590D01*
X75548638Y-38987237D01*
X75512959Y-38967412D01*
X75469186Y-38954109D01*
X75432479Y-38950349D01*
X75379004Y-38954148D01*
X75321819Y-38970187D01*
X75266351Y-38998653D01*
X75203283Y-39045065D01*
X75138953Y-39100910D01*
X75080997Y-39155465D01*
X75035357Y-39200391D01*
X74976776Y-39258973D01*
G37*
G36*
X75165572Y-38634256D02*
G01*
X73892247Y-39907581D01*
X74058211Y-40073545D01*
X75331536Y-38800219D01*
X75165572Y-38634256D01*
G37*
G36*
X74170247Y-38770775D02*
G01*
X74336210Y-38936738D01*
X74559208Y-38713740D01*
X74618152Y-38656031D01*
X74674404Y-38607321D01*
X74712918Y-38606043D01*
X74709469Y-38651781D01*
X74656383Y-38712637D01*
X74597655Y-38772637D01*
X74025378Y-39344914D01*
X73967684Y-39401336D01*
X73908943Y-39452306D01*
X73865231Y-39456123D01*
X73870132Y-39412391D01*
X73922714Y-39351815D01*
X73979722Y-39293264D01*
X73992180Y-39280768D01*
X74159359Y-39113589D01*
X73993396Y-38947626D01*
X73935643Y-39005378D01*
X73877247Y-39064444D01*
X73815321Y-39128938D01*
X73762285Y-39186468D01*
X73705399Y-39252342D01*
X73668590Y-39299826D01*
X73629982Y-39361830D01*
X73601864Y-39426228D01*
X73585526Y-39486233D01*
X73581968Y-39506666D01*
X73579014Y-39558840D01*
X73586612Y-39605815D01*
X73604762Y-39647590D01*
X73629299Y-39679880D01*
X73633463Y-39684167D01*
X73665543Y-39711222D01*
X73700344Y-39730949D01*
X73743448Y-39744521D01*
X73790106Y-39748521D01*
X73802326Y-39748025D01*
X73858615Y-39738599D01*
X73922843Y-39714941D01*
X73988845Y-39677406D01*
X74008991Y-39663439D01*
X74075742Y-39611088D01*
X74135944Y-39558828D01*
X74193315Y-39505995D01*
X74256011Y-39445742D01*
X74300767Y-39401451D01*
X74662759Y-39039460D01*
X74718150Y-38983636D01*
X74773217Y-38927015D01*
X74829696Y-38867004D01*
X74861063Y-38832113D01*
X74909220Y-38770551D01*
X74949678Y-38704574D01*
X74965754Y-38672633D01*
X74990095Y-38608920D01*
X75001377Y-38553005D01*
X75002761Y-38509025D01*
X74995573Y-38463368D01*
X74978950Y-38422522D01*
X74955922Y-38389876D01*
X74946547Y-38379860D01*
X74914055Y-38352790D01*
X74878484Y-38333483D01*
X74834060Y-38320923D01*
X74785614Y-38318503D01*
X74772874Y-38319483D01*
X74715344Y-38329829D01*
X74652088Y-38352451D01*
X74589536Y-38386787D01*
X74570907Y-38399371D01*
X74509236Y-38446899D01*
X74444287Y-38503163D01*
X74379634Y-38563216D01*
X74318407Y-38622729D01*
X74296805Y-38644216D01*
X74170247Y-38770775D01*
G37*
G36*
X74645873Y-38114557D02*
G01*
X73453801Y-39469135D01*
X73281853Y-39297187D01*
X73502450Y-39057972D01*
X73453778Y-39009301D01*
X73216026Y-39231360D01*
X73045941Y-39061275D01*
X73365255Y-38784714D01*
X73689004Y-38784714D01*
X73733553Y-38829263D01*
X73764915Y-38795511D01*
X73825017Y-38730336D01*
X73880145Y-38670166D01*
X73941539Y-38602859D01*
X74009197Y-38528415D01*
X74064052Y-38467898D01*
X74122430Y-38403366D01*
X74184332Y-38334820D01*
X74249759Y-38262258D01*
X74208000Y-38302060D01*
X74147039Y-38359975D01*
X74088093Y-38415746D01*
X74031159Y-38469372D01*
X73958380Y-38537538D01*
X73889181Y-38601892D01*
X73823561Y-38662434D01*
X73761520Y-38719163D01*
X73689004Y-38784714D01*
X73365255Y-38784714D01*
X74410625Y-37879309D01*
X74645873Y-38114557D01*
G37*
G36*
X73554917Y-37837114D02*
G01*
X73709709Y-37991906D01*
X73811951Y-37889665D01*
X73868778Y-37835783D01*
X73893978Y-37816947D01*
X73924326Y-37817451D01*
X73922925Y-37855289D01*
X73874544Y-37916061D01*
X73866725Y-37923990D01*
X73807330Y-37977947D01*
X73775008Y-38000281D01*
X73716815Y-38021037D01*
X73663199Y-38030333D01*
X73658141Y-38030974D01*
X73599666Y-38038965D01*
X73545284Y-38047750D01*
X73483063Y-38059849D01*
X73427236Y-38073188D01*
X73368686Y-38090834D01*
X73304944Y-38117140D01*
X73236305Y-38158652D01*
X73174957Y-38205039D01*
X73106641Y-38263764D01*
X73042539Y-38323920D01*
X73008569Y-38357397D01*
X72953884Y-38413583D01*
X72901354Y-38471507D01*
X72850642Y-38534479D01*
X72825028Y-38572322D01*
X72795312Y-38633692D01*
X72780392Y-38691888D01*
X72776948Y-38740885D01*
X72782076Y-38787956D01*
X72796297Y-38830393D01*
X72816572Y-38864226D01*
X72836493Y-38887198D01*
X72866201Y-38912039D01*
X72903945Y-38932305D01*
X72945734Y-38943905D01*
X72997581Y-38946596D01*
X73051870Y-38938915D01*
X73111548Y-38919277D01*
X73176412Y-38884178D01*
X73188117Y-38876277D01*
X73251448Y-38827954D01*
X73316775Y-38771381D01*
X73381468Y-38710690D01*
X73425068Y-38667785D01*
X73516256Y-38576597D01*
X73361464Y-38421804D01*
X73198982Y-38584285D01*
X73142005Y-38638669D01*
X73108134Y-38664761D01*
X73072384Y-38663276D01*
X73074819Y-38620946D01*
X73123875Y-38558657D01*
X73137948Y-38544252D01*
X73198888Y-38485961D01*
X73259964Y-38436251D01*
X73290230Y-38419099D01*
X73348391Y-38403002D01*
X73403424Y-38392645D01*
X73463934Y-38383434D01*
X73472265Y-38382282D01*
X73528335Y-38374108D01*
X73582978Y-38364979D01*
X73637124Y-38353886D01*
X73665668Y-38346331D01*
X73727559Y-38320212D01*
X73790435Y-38283184D01*
X73800081Y-38276814D01*
X73861706Y-38230748D01*
X73923712Y-38176696D01*
X73978369Y-38124059D01*
X74036948Y-38063724D01*
X74092807Y-38001556D01*
X74141512Y-37940271D01*
X74172238Y-37893486D01*
X74202080Y-37829834D01*
X74216473Y-37773407D01*
X74219027Y-37728608D01*
X74212106Y-37681468D01*
X74196778Y-37642678D01*
X74172829Y-37607334D01*
X74159418Y-37592731D01*
X74126779Y-37565378D01*
X74091100Y-37545553D01*
X74047327Y-37532250D01*
X74010620Y-37528490D01*
X73957145Y-37532289D01*
X73899960Y-37548328D01*
X73844492Y-37576794D01*
X73781424Y-37623206D01*
X73717094Y-37679051D01*
X73659138Y-37733606D01*
X73613498Y-37778532D01*
X73554917Y-37837114D01*
G37*
G36*
X73743713Y-37212397D02*
G01*
X72470388Y-38485722D01*
X72636352Y-38651686D01*
X73909677Y-37378360D01*
X73743713Y-37212397D01*
G37*
G36*
X72748388Y-37348916D02*
G01*
X72914351Y-37514879D01*
X73137349Y-37291881D01*
X73196293Y-37234172D01*
X73252545Y-37185462D01*
X73291059Y-37184184D01*
X73287610Y-37229922D01*
X73234524Y-37290778D01*
X73175796Y-37350778D01*
X72603519Y-37923055D01*
X72545825Y-37979477D01*
X72487084Y-38030447D01*
X72443372Y-38034264D01*
X72448273Y-37990532D01*
X72500855Y-37929956D01*
X72557863Y-37871405D01*
X72570321Y-37858909D01*
X72737500Y-37691730D01*
X72571537Y-37525767D01*
X72513784Y-37583519D01*
X72455388Y-37642585D01*
X72393462Y-37707079D01*
X72340426Y-37764609D01*
X72283540Y-37830483D01*
X72246731Y-37877967D01*
X72208123Y-37939971D01*
X72180005Y-38004369D01*
X72163667Y-38064374D01*
X72160109Y-38084807D01*
X72157155Y-38136981D01*
X72164753Y-38183956D01*
X72182903Y-38225731D01*
X72207440Y-38258021D01*
X72211604Y-38262308D01*
X72243684Y-38289363D01*
X72278485Y-38309090D01*
X72321589Y-38322662D01*
X72368247Y-38326662D01*
X72380467Y-38326166D01*
X72436756Y-38316740D01*
X72500984Y-38293082D01*
X72566986Y-38255547D01*
X72587132Y-38241580D01*
X72653883Y-38189229D01*
X72714085Y-38136969D01*
X72771456Y-38084136D01*
X72834152Y-38023883D01*
X72878908Y-37979592D01*
X73240900Y-37617601D01*
X73296291Y-37561777D01*
X73351358Y-37505156D01*
X73407837Y-37445145D01*
X73439204Y-37410254D01*
X73487361Y-37348692D01*
X73527819Y-37282715D01*
X73543895Y-37250774D01*
X73568236Y-37187061D01*
X73579518Y-37131146D01*
X73580902Y-37087166D01*
X73573714Y-37041509D01*
X73557091Y-37000663D01*
X73534063Y-36968017D01*
X73524688Y-36958001D01*
X73492196Y-36930931D01*
X73456625Y-36911624D01*
X73412201Y-36899064D01*
X73363755Y-36896644D01*
X73351015Y-36897624D01*
X73293485Y-36907970D01*
X73230229Y-36930592D01*
X73167677Y-36964928D01*
X73149048Y-36977512D01*
X73087377Y-37025040D01*
X73022428Y-37081304D01*
X72957775Y-37141357D01*
X72896548Y-37200870D01*
X72874946Y-37222357D01*
X72748388Y-37348916D01*
G37*
G36*
X69336994Y-35931689D02*
G01*
X70610319Y-37205014D01*
X70776282Y-37039051D01*
X69502957Y-35765725D01*
X69336994Y-35931689D01*
G37*
G36*
X69473513Y-36927015D02*
G01*
X69639476Y-36761051D01*
X69416478Y-36538054D01*
X69358768Y-36479109D01*
X69310059Y-36422857D01*
X69308781Y-36384344D01*
X69354518Y-36387793D01*
X69415375Y-36440878D01*
X69475374Y-36499606D01*
X70047652Y-37071884D01*
X70104074Y-37129577D01*
X70155044Y-37188318D01*
X70158861Y-37232030D01*
X70115128Y-37227129D01*
X70054552Y-37174547D01*
X69996001Y-37117539D01*
X69983506Y-37105081D01*
X69816327Y-36937902D01*
X69650363Y-37103865D01*
X69708116Y-37161618D01*
X69767181Y-37220014D01*
X69831676Y-37281941D01*
X69889206Y-37334977D01*
X69955080Y-37391862D01*
X70002564Y-37428671D01*
X70064568Y-37467279D01*
X70128966Y-37495397D01*
X70188971Y-37511736D01*
X70209403Y-37515294D01*
X70261577Y-37518247D01*
X70308552Y-37510649D01*
X70350328Y-37492499D01*
X70382617Y-37467963D01*
X70386905Y-37463798D01*
X70413960Y-37431718D01*
X70433687Y-37396917D01*
X70447259Y-37353813D01*
X70451259Y-37307155D01*
X70450763Y-37294935D01*
X70441336Y-37238646D01*
X70417679Y-37174418D01*
X70380144Y-37108416D01*
X70366177Y-37088270D01*
X70313826Y-37021519D01*
X70261566Y-36961317D01*
X70208733Y-36903947D01*
X70148480Y-36841250D01*
X70104189Y-36796494D01*
X69742198Y-36434503D01*
X69686374Y-36379112D01*
X69629753Y-36324044D01*
X69569741Y-36267565D01*
X69534851Y-36236198D01*
X69473289Y-36188041D01*
X69407311Y-36147584D01*
X69375371Y-36131508D01*
X69311658Y-36107166D01*
X69255742Y-36095884D01*
X69211763Y-36094500D01*
X69166105Y-36101688D01*
X69125260Y-36118311D01*
X69092614Y-36141340D01*
X69082598Y-36150714D01*
X69055528Y-36183206D01*
X69036221Y-36218777D01*
X69023661Y-36263201D01*
X69021241Y-36311647D01*
X69022220Y-36324387D01*
X69032566Y-36381918D01*
X69055189Y-36445173D01*
X69089524Y-36507726D01*
X69102109Y-36526354D01*
X69149637Y-36588025D01*
X69205901Y-36652974D01*
X69265954Y-36717627D01*
X69325467Y-36778855D01*
X69346954Y-36800456D01*
X69473513Y-36927015D01*
G37*
D11*
X68307004Y-57918202D02*
X67507004Y-57684869D01*
X67507004Y-57684869D02*
X68307004Y-57451535D01*
X67583195Y-56818202D02*
X67545100Y-56851535D01*
X67545100Y-56851535D02*
X67507004Y-56951535D01*
X67507004Y-56951535D02*
X67507004Y-57018202D01*
X67507004Y-57018202D02*
X67545100Y-57118202D01*
X67545100Y-57118202D02*
X67621290Y-57184869D01*
X67621290Y-57184869D02*
X67697480Y-57218202D01*
X67697480Y-57218202D02*
X67849861Y-57251535D01*
X67849861Y-57251535D02*
X67964147Y-57251535D01*
X67964147Y-57251535D02*
X68116528Y-57218202D01*
X68116528Y-57218202D02*
X68192719Y-57184869D01*
X68192719Y-57184869D02*
X68268909Y-57118202D01*
X68268909Y-57118202D02*
X68307004Y-57018202D01*
X68307004Y-57018202D02*
X68307004Y-56951535D01*
X68307004Y-56951535D02*
X68268909Y-56851535D01*
X68268909Y-56851535D02*
X68230814Y-56818202D01*
X67583195Y-56118202D02*
X67545100Y-56151535D01*
X67545100Y-56151535D02*
X67507004Y-56251535D01*
X67507004Y-56251535D02*
X67507004Y-56318202D01*
X67507004Y-56318202D02*
X67545100Y-56418202D01*
X67545100Y-56418202D02*
X67621290Y-56484869D01*
X67621290Y-56484869D02*
X67697480Y-56518202D01*
X67697480Y-56518202D02*
X67849861Y-56551535D01*
X67849861Y-56551535D02*
X67964147Y-56551535D01*
X67964147Y-56551535D02*
X68116528Y-56518202D01*
X68116528Y-56518202D02*
X68192719Y-56484869D01*
X68192719Y-56484869D02*
X68268909Y-56418202D01*
X68268909Y-56418202D02*
X68307004Y-56318202D01*
X68307004Y-56318202D02*
X68307004Y-56251535D01*
X68307004Y-56251535D02*
X68268909Y-56151535D01*
X68268909Y-56151535D02*
X68230814Y-56118202D01*
D13*
%TO.C,U2*%
X64289663Y-43915938D02*
X64625539Y-44251814D01*
X64625539Y-43580062D02*
X64289663Y-43915938D01*
X70473312Y-37732289D02*
X70809188Y-37396413D01*
X70809188Y-37396413D02*
X71145064Y-37732289D01*
X70809188Y-50435463D02*
X70473312Y-50099587D01*
X71145064Y-50099587D02*
X70809188Y-50435463D01*
X77116580Y-43703806D02*
X76992837Y-43580062D01*
X77159007Y-44085644D02*
X76992837Y-44251814D01*
X77731763Y-43852298D02*
X77328713Y-43915938D01*
X77392352Y-43512887D01*
X77731763Y-43852298D01*
G36*
X77731763Y-43852298D02*
G01*
X77328713Y-43915938D01*
X77392352Y-43512887D01*
X77731763Y-43852298D01*
G37*
%TO.C,R24*%
X53062742Y-51177500D02*
X53537258Y-51177500D01*
X53062742Y-52222500D02*
X53537258Y-52222500D01*
%TO.C,R15*%
X51231359Y-53920000D02*
X51538641Y-53920000D01*
X51231359Y-54680000D02*
X51538641Y-54680000D01*
%TO.C,C19*%
X52561252Y-49165000D02*
X52038748Y-49165000D01*
X52561252Y-50635000D02*
X52038748Y-50635000D01*
%TO.C,R17*%
X65446359Y-37520000D02*
X65753641Y-37520000D01*
X65446359Y-38280000D02*
X65753641Y-38280000D01*
%TO.C,R22*%
X57777500Y-42237258D02*
X57777500Y-41762742D01*
X58822500Y-42237258D02*
X58822500Y-41762742D01*
%TO.C,C18*%
X57765000Y-44938748D02*
X57765000Y-45461252D01*
X59235000Y-44938748D02*
X59235000Y-45461252D01*
%TO.C,C13*%
X68661104Y-37370221D02*
X68508601Y-37217718D01*
X69170221Y-36861104D02*
X69017718Y-36708601D01*
%TO.C,R1*%
X75020000Y-59246359D02*
X75020000Y-59553641D01*
X75780000Y-59246359D02*
X75780000Y-59553641D01*
%TO.C,C1*%
X79238748Y-55265000D02*
X79761252Y-55265000D01*
X79238748Y-56735000D02*
X79761252Y-56735000D01*
%TO.C,R9*%
X47446359Y-53920000D02*
X47753641Y-53920000D01*
X47446359Y-54680000D02*
X47753641Y-54680000D01*
%TO.C,U3*%
X48465000Y-43250000D02*
X48465000Y-45200000D01*
X48465000Y-47150000D02*
X48465000Y-45200000D01*
X57335000Y-43250000D02*
X57335000Y-45200000D01*
X57335000Y-47150000D02*
X57335000Y-45200000D01*
X48530000Y-42500000D02*
X48200000Y-42740000D01*
X48200000Y-42260000D01*
X48530000Y-42500000D01*
G36*
X48530000Y-42500000D02*
G01*
X48200000Y-42740000D01*
X48200000Y-42260000D01*
X48530000Y-42500000D01*
G37*
%TO.C,R16*%
X51577500Y-39762742D02*
X51577500Y-40237258D01*
X52622500Y-39762742D02*
X52622500Y-40237258D01*
%TO.C,R23*%
X50646359Y-51020000D02*
X50953641Y-51020000D01*
X50646359Y-51780000D02*
X50953641Y-51780000D01*
%TO.C,C17*%
X53165000Y-39538748D02*
X53165000Y-40061252D01*
X54635000Y-39538748D02*
X54635000Y-40061252D01*
%TO.C,Q1*%
X46840000Y-56050000D02*
X46840000Y-56700000D01*
X46840000Y-57350000D02*
X46840000Y-56700000D01*
X49960000Y-56050000D02*
X49960000Y-56700000D01*
X49960000Y-57350000D02*
X49960000Y-56700000D01*
X46890000Y-55537500D02*
X46560000Y-55777500D01*
X46560000Y-55297500D01*
X46890000Y-55537500D01*
G36*
X46890000Y-55537500D02*
G01*
X46560000Y-55777500D01*
X46560000Y-55297500D01*
X46890000Y-55537500D01*
G37*
%TO.C,J1*%
X65530000Y-58100000D02*
X65530000Y-63300000D01*
X65530000Y-58100000D02*
X66100000Y-58100000D01*
X65530000Y-63300000D02*
X66100000Y-63300000D01*
X67620000Y-58100000D02*
X68640000Y-58100000D01*
X67620000Y-63300000D02*
X68640000Y-63300000D01*
X70160000Y-58100000D02*
X71180000Y-58100000D01*
X70160000Y-63300000D02*
X71180000Y-63300000D01*
X72700000Y-58100000D02*
X73270000Y-58100000D01*
X72700000Y-63300000D02*
X72700000Y-64740000D01*
X72700000Y-63300000D02*
X73270000Y-63300000D01*
X73270000Y-58100000D02*
X73270000Y-63300000D01*
%TO.C,Q3*%
X50240000Y-56050000D02*
X50240000Y-56700000D01*
X50240000Y-57350000D02*
X50240000Y-56700000D01*
X53360000Y-56050000D02*
X53360000Y-56700000D01*
X53360000Y-57350000D02*
X53360000Y-56700000D01*
X50290000Y-55537500D02*
X49960000Y-55777500D01*
X49960000Y-55297500D01*
X50290000Y-55537500D01*
G36*
X50290000Y-55537500D02*
G01*
X49960000Y-55777500D01*
X49960000Y-55297500D01*
X50290000Y-55537500D01*
G37*
%TO.C,Q2*%
X43240000Y-56050000D02*
X43240000Y-56700000D01*
X43240000Y-57350000D02*
X43240000Y-56700000D01*
X46360000Y-56050000D02*
X46360000Y-56700000D01*
X46360000Y-57350000D02*
X46360000Y-56700000D01*
X43290000Y-55537500D02*
X42960000Y-55777500D01*
X42960000Y-55297500D01*
X43290000Y-55537500D01*
G36*
X43290000Y-55537500D02*
G01*
X42960000Y-55777500D01*
X42960000Y-55297500D01*
X43290000Y-55537500D01*
G37*
%TO.C,C11*%
X68921693Y-51069190D02*
X68769190Y-51221693D01*
X69430810Y-51578307D02*
X69278307Y-51730810D01*
%TO.C,C4*%
X63265000Y-55738748D02*
X63265000Y-56261252D01*
X64735000Y-55738748D02*
X64735000Y-56261252D01*
%TO.C,U1*%
X77940000Y-52100000D02*
X77940000Y-52900000D01*
X77940000Y-53700000D02*
X77940000Y-52900000D01*
X81060000Y-52100000D02*
X81060000Y-52900000D01*
X81060000Y-53700000D02*
X81060000Y-52900000D01*
X81340000Y-54440000D02*
X81010000Y-54200000D01*
X81340000Y-53960000D01*
X81340000Y-54440000D01*
G36*
X81340000Y-54440000D02*
G01*
X81010000Y-54200000D01*
X81340000Y-53960000D01*
X81340000Y-54440000D01*
G37*
%TO.C,C16*%
X45940000Y-47417164D02*
X45940000Y-47632836D01*
X46660000Y-47417164D02*
X46660000Y-47632836D01*
%TO.C,C3*%
X79792164Y-48540000D02*
X80007836Y-48540000D01*
X79792164Y-49260000D02*
X80007836Y-49260000D01*
%TO.C,R6*%
X70546359Y-53520000D02*
X70853641Y-53520000D01*
X70546359Y-54280000D02*
X70853641Y-54280000D01*
%TO.C,C10*%
X64061104Y-45929779D02*
X63908601Y-46082282D01*
X64570221Y-46438896D02*
X64417718Y-46591399D01*
%TO.C,C14*%
X65439970Y-50638781D02*
X65638781Y-50439970D01*
X66161219Y-51360030D02*
X66360030Y-51161219D01*
%TO.C,R8*%
X47753641Y-52920000D02*
X47446359Y-52920000D01*
X47753641Y-53680000D02*
X47446359Y-53680000D01*
%TO.C,C12*%
X65721693Y-39830810D02*
X65569190Y-39678307D01*
X66230810Y-39321693D02*
X66078307Y-39169190D01*
D14*
%TO.C,REF\u002A\u002A*%
G36*
X60159282Y-56634246D02*
G01*
X60374843Y-56654155D01*
X60586459Y-56686855D01*
X60793737Y-56731949D01*
X60996288Y-56789042D01*
X61193718Y-56857740D01*
X61385637Y-56937646D01*
X61571654Y-57028365D01*
X61751376Y-57129502D01*
X61924412Y-57240662D01*
X62090372Y-57361449D01*
X62248863Y-57491468D01*
X62399494Y-57630324D01*
X62541874Y-57777621D01*
X62675610Y-57932965D01*
X62800313Y-58095958D01*
X62839005Y-58150900D01*
X62876690Y-58206577D01*
X62913352Y-58262983D01*
X62948975Y-58320110D01*
X62983544Y-58377950D01*
X63017044Y-58436496D01*
X63049458Y-58495739D01*
X63080771Y-58555672D01*
X63110968Y-58616287D01*
X63140033Y-58677577D01*
X63167952Y-58739533D01*
X63194707Y-58802148D01*
X63220284Y-58865414D01*
X63244668Y-58929324D01*
X63267842Y-58993869D01*
X63289792Y-59059042D01*
X61339812Y-59059042D01*
X61339812Y-61442938D01*
X60300000Y-61442938D01*
X60300000Y-60800000D01*
X59699396Y-60800000D01*
X59699396Y-63123042D01*
X59729280Y-63125775D01*
X59759382Y-63128044D01*
X59789670Y-63129878D01*
X59820112Y-63131309D01*
X59850679Y-63132369D01*
X59881339Y-63133087D01*
X59942813Y-63133624D01*
X60096168Y-63129734D01*
X60247535Y-63118187D01*
X60396726Y-63099174D01*
X60543552Y-63072884D01*
X60687823Y-63039505D01*
X60829352Y-62999226D01*
X60967949Y-62952236D01*
X61103424Y-62898724D01*
X61235590Y-62838879D01*
X61364257Y-62772891D01*
X61489237Y-62700947D01*
X61610339Y-62623237D01*
X61727376Y-62539950D01*
X61840158Y-62451275D01*
X61948497Y-62357400D01*
X62052204Y-62258515D01*
X62151089Y-62154809D01*
X62244963Y-62046470D01*
X62333638Y-61933688D01*
X62416925Y-61816651D01*
X62494635Y-61695548D01*
X62566579Y-61570569D01*
X62632568Y-61441902D01*
X62692412Y-61309736D01*
X62745924Y-61174260D01*
X62792914Y-61035663D01*
X62833193Y-60894135D01*
X62866572Y-60749863D01*
X62892863Y-60603037D01*
X62911876Y-60453846D01*
X62923422Y-60302479D01*
X62927313Y-60149125D01*
X62925587Y-60047431D01*
X62920450Y-59946760D01*
X62911965Y-59847143D01*
X62900193Y-59748612D01*
X62885197Y-59651197D01*
X62867037Y-59554929D01*
X62845778Y-59459839D01*
X62821479Y-59365958D01*
X63377105Y-59365958D01*
X63397568Y-59460707D01*
X63415304Y-59556417D01*
X63430310Y-59653057D01*
X63442589Y-59750596D01*
X63452139Y-59849003D01*
X63458960Y-59948248D01*
X63463053Y-60048299D01*
X63464417Y-60149125D01*
X63459826Y-60330092D01*
X63446203Y-60508713D01*
X63423771Y-60684764D01*
X63392752Y-60858022D01*
X63353369Y-61028265D01*
X63305845Y-61195270D01*
X63250403Y-61358814D01*
X63187266Y-61518674D01*
X63116656Y-61674628D01*
X63038797Y-61826451D01*
X62953911Y-61973923D01*
X62862221Y-62116819D01*
X62763950Y-62254916D01*
X62659321Y-62387993D01*
X62548557Y-62515826D01*
X62431880Y-62638192D01*
X62309514Y-62754869D01*
X62181681Y-62865633D01*
X62048604Y-62970262D01*
X61910507Y-63068533D01*
X61767611Y-63160223D01*
X61620139Y-63245109D01*
X61468316Y-63322968D01*
X61312362Y-63393578D01*
X61152502Y-63456715D01*
X60988958Y-63512157D01*
X60821953Y-63559681D01*
X60651710Y-63599064D01*
X60478452Y-63630083D01*
X60302401Y-63652515D01*
X60123780Y-63666138D01*
X59942813Y-63670728D01*
X59881711Y-63670232D01*
X59821104Y-63668744D01*
X59760498Y-63666264D01*
X59699396Y-63662792D01*
X59682529Y-63661681D01*
X59665661Y-63660352D01*
X59631927Y-63657169D01*
X59598193Y-63653490D01*
X59564458Y-63649562D01*
X59553875Y-63649562D01*
X59437422Y-63634809D01*
X59322241Y-63616365D01*
X59208361Y-63594263D01*
X59095815Y-63568534D01*
X58984633Y-63539207D01*
X58874847Y-63506315D01*
X58766487Y-63469889D01*
X58659584Y-63429958D01*
X58659584Y-60800000D01*
X57638292Y-60800000D01*
X57638292Y-59836917D01*
X60297354Y-59836917D01*
X60297354Y-59056396D01*
X59278709Y-59056396D01*
X59278709Y-58093313D01*
X62101813Y-58093313D01*
X61997483Y-57988703D01*
X61888038Y-57889326D01*
X61773693Y-57795390D01*
X61654667Y-57707104D01*
X61531176Y-57624679D01*
X61403437Y-57548323D01*
X61271667Y-57478246D01*
X61136084Y-57414657D01*
X60996904Y-57357765D01*
X60854344Y-57307780D01*
X60708621Y-57264910D01*
X60559953Y-57229366D01*
X60408557Y-57201356D01*
X60254649Y-57181090D01*
X60098446Y-57168777D01*
X59940166Y-57164626D01*
X59786812Y-57168517D01*
X59635445Y-57180063D01*
X59486254Y-57199076D01*
X59339428Y-57225366D01*
X59195156Y-57258746D01*
X59053628Y-57299025D01*
X58915031Y-57346014D01*
X58779555Y-57399526D01*
X58647389Y-57459371D01*
X58518722Y-57525360D01*
X58393743Y-57597303D01*
X58272640Y-57675013D01*
X58155604Y-57758300D01*
X58042821Y-57846976D01*
X57934482Y-57940850D01*
X57830776Y-58039735D01*
X57731891Y-58143442D01*
X57638017Y-58251780D01*
X57549341Y-58364563D01*
X57466054Y-58481600D01*
X57388344Y-58602702D01*
X57316401Y-58727682D01*
X57250412Y-58856349D01*
X57190567Y-58988514D01*
X57137056Y-59123990D01*
X57090066Y-59262587D01*
X57049787Y-59404116D01*
X57016408Y-59548387D01*
X56990117Y-59695213D01*
X56971104Y-59844404D01*
X56959558Y-59995771D01*
X56955667Y-60149126D01*
X56962111Y-60346503D01*
X56981175Y-60540497D01*
X57012454Y-60730701D01*
X57055547Y-60916707D01*
X57110050Y-61098109D01*
X57175561Y-61274499D01*
X57251675Y-61445471D01*
X57337990Y-61610618D01*
X57434103Y-61769533D01*
X57539611Y-61921808D01*
X57654110Y-62067038D01*
X57777198Y-62204814D01*
X57908472Y-62334731D01*
X58047528Y-62456380D01*
X58193964Y-62569356D01*
X58347375Y-62673251D01*
X58347375Y-63292375D01*
X58241038Y-63236035D01*
X58136888Y-63176208D01*
X58035002Y-63112972D01*
X57935458Y-63046406D01*
X57838334Y-62976588D01*
X57743709Y-62903597D01*
X57651660Y-62827511D01*
X57562266Y-62748409D01*
X57475604Y-62666369D01*
X57391753Y-62581469D01*
X57310789Y-62493789D01*
X57232793Y-62403406D01*
X57157840Y-62310400D01*
X57086010Y-62214848D01*
X57017381Y-62116830D01*
X56952029Y-62016422D01*
X56890035Y-61913705D01*
X56831474Y-61808757D01*
X56776426Y-61701655D01*
X56724968Y-61592479D01*
X56677179Y-61481307D01*
X56633136Y-61368218D01*
X56592917Y-61253289D01*
X56556601Y-61136600D01*
X56524265Y-61018229D01*
X56495988Y-60898254D01*
X56471847Y-60776754D01*
X56451920Y-60653808D01*
X56436286Y-60529493D01*
X56425022Y-60403889D01*
X56418206Y-60277074D01*
X56415917Y-60149125D01*
X56420748Y-59968158D01*
X56434596Y-59789538D01*
X56457240Y-59613487D01*
X56488455Y-59440228D01*
X56528022Y-59269985D01*
X56575716Y-59102980D01*
X56631315Y-58939436D01*
X56694598Y-58779576D01*
X56765341Y-58623623D01*
X56843323Y-58471799D01*
X56928321Y-58324328D01*
X57020113Y-58181432D01*
X57118476Y-58043334D01*
X57223188Y-57910257D01*
X57334026Y-57782424D01*
X57450769Y-57660058D01*
X57573193Y-57543381D01*
X57701077Y-57432617D01*
X57834198Y-57327988D01*
X57972334Y-57229717D01*
X58115262Y-57138027D01*
X58262760Y-57053141D01*
X58414605Y-56975282D01*
X58570576Y-56904672D01*
X58730450Y-56841535D01*
X58894004Y-56786093D01*
X59061016Y-56738569D01*
X59231264Y-56699186D01*
X59404526Y-56668167D01*
X59580578Y-56645735D01*
X59759199Y-56632112D01*
X59940166Y-56627521D01*
X60159282Y-56634246D01*
G37*
D13*
%TO.C,C8*%
X77869190Y-42321693D02*
X78021693Y-42169190D01*
X78378307Y-42830810D02*
X78530810Y-42678307D01*
%TO.C,R20*%
X47146359Y-45220000D02*
X47453641Y-45220000D01*
X47146359Y-45980000D02*
X47453641Y-45980000D01*
%TO.C,R10*%
X51690760Y-60977017D02*
X51789787Y-61267905D01*
X52410213Y-60732095D02*
X52509240Y-61022983D01*
D15*
%TO.C,D1*%
X43299476Y-63121198D02*
G75*
G02*
X43099480Y-63121198I-99998J0D01*
G01*
X43099480Y-63121198D02*
G75*
G02*
X43299476Y-63121198I99998J0D01*
G01*
D13*
%TO.C,R21*%
X58346359Y-47020000D02*
X58653641Y-47020000D01*
X58346359Y-47780000D02*
X58653641Y-47780000D01*
%TO.C,C5*%
X72269190Y-36721693D02*
X72421693Y-36569190D01*
X72778307Y-37230810D02*
X72930810Y-37078307D01*
D14*
%TO.C,TTCurvyText*%
G36*
X69039843Y-68909459D02*
G01*
X69008894Y-69590886D01*
X68379092Y-69562276D01*
X68410040Y-68880853D01*
X69039843Y-68909459D01*
G37*
G36*
X86777396Y-57848088D02*
G01*
X86034527Y-58281179D01*
X85814860Y-57904386D01*
X86557728Y-57471295D01*
X86777396Y-57848088D01*
G37*
G36*
X88243237Y-60362409D02*
G01*
X87500368Y-60795499D01*
X86118855Y-58425820D01*
X86861723Y-57992730D01*
X88243237Y-60362409D01*
G37*
G36*
X81667023Y-61422132D02*
G01*
X81251858Y-61726354D01*
X82834055Y-63885545D01*
X82132109Y-64399911D01*
X80549912Y-62240720D01*
X80133080Y-62546163D01*
X79737225Y-62005948D01*
X81271168Y-60881917D01*
X81667023Y-61422132D01*
G37*
G36*
X89020813Y-56882093D02*
G01*
X88568014Y-57126813D01*
X89840748Y-59481725D01*
X89075175Y-59895486D01*
X87802441Y-57540574D01*
X87347824Y-57786275D01*
X87029396Y-57197091D01*
X88702385Y-56292909D01*
X89020813Y-56882093D01*
G37*
G36*
X70688414Y-66566873D02*
G01*
X70671885Y-66998571D01*
X70851588Y-67005471D01*
X70834978Y-67439233D01*
X70655276Y-67432332D01*
X70601954Y-68824506D01*
X70597859Y-68922089D01*
X70593411Y-69010350D01*
X70588609Y-69089289D01*
X70583453Y-69158906D01*
X70577944Y-69219200D01*
X70572081Y-69270173D01*
X70565865Y-69311823D01*
X70562624Y-69329153D01*
X70559294Y-69344152D01*
X70555659Y-69357628D01*
X70551483Y-69370906D01*
X70546764Y-69383985D01*
X70541503Y-69396865D01*
X70535701Y-69409547D01*
X70529357Y-69422031D01*
X70522471Y-69434316D01*
X70515043Y-69446402D01*
X70507073Y-69458290D01*
X70498561Y-69469979D01*
X70489507Y-69481470D01*
X70479911Y-69492763D01*
X70469774Y-69503856D01*
X70459094Y-69514752D01*
X70447873Y-69525449D01*
X70436110Y-69535947D01*
X70423982Y-69545850D01*
X70411645Y-69555275D01*
X70399101Y-69564225D01*
X70386349Y-69572697D01*
X70373389Y-69580694D01*
X70360220Y-69588213D01*
X70346844Y-69595256D01*
X70333260Y-69601822D01*
X70319468Y-69607912D01*
X70305468Y-69613524D01*
X70291259Y-69618661D01*
X70276843Y-69623320D01*
X70262220Y-69627503D01*
X70247388Y-69631210D01*
X70232348Y-69634440D01*
X70217100Y-69637193D01*
X70183880Y-69641245D01*
X70145587Y-69644394D01*
X70102222Y-69646638D01*
X70053785Y-69647978D01*
X70000276Y-69648413D01*
X69941695Y-69647944D01*
X69878042Y-69646570D01*
X69809317Y-69644292D01*
X69472636Y-69631402D01*
X69489565Y-69189378D01*
X69514445Y-69190210D01*
X69537963Y-69190748D01*
X69560118Y-69190991D01*
X69580910Y-69190940D01*
X69600341Y-69190594D01*
X69618409Y-69189953D01*
X69635114Y-69189017D01*
X69650458Y-69187787D01*
X69664439Y-69186262D01*
X69677057Y-69184443D01*
X69688313Y-69182328D01*
X69698207Y-69179919D01*
X69706738Y-69177216D01*
X69710493Y-69175753D01*
X69713907Y-69174217D01*
X69716981Y-69172608D01*
X69719713Y-69170924D01*
X69722106Y-69169167D01*
X69724158Y-69167337D01*
X69727593Y-69162652D01*
X69730891Y-69156088D01*
X69734050Y-69147644D01*
X69737072Y-69137319D01*
X69742700Y-69111031D01*
X69747776Y-69077223D01*
X69752299Y-69035896D01*
X69756271Y-68987049D01*
X69759690Y-68930682D01*
X69762556Y-68866796D01*
X69818728Y-67400262D01*
X69593584Y-67391664D01*
X69610194Y-66957902D01*
X69835337Y-66966500D01*
X69851866Y-66534803D01*
X70688414Y-66566873D01*
G37*
G36*
X84436167Y-62209424D02*
G01*
X84460294Y-62265791D01*
X84481829Y-62315550D01*
X84500773Y-62358702D01*
X84517125Y-62395246D01*
X84530886Y-62425182D01*
X84542055Y-62448511D01*
X84550632Y-62465232D01*
X84553949Y-62471115D01*
X84556618Y-62475347D01*
X84561530Y-62482092D01*
X84566590Y-62488283D01*
X84571798Y-62493922D01*
X84577155Y-62499007D01*
X84582660Y-62503539D01*
X84588314Y-62507518D01*
X84594116Y-62510944D01*
X84600066Y-62513816D01*
X84603096Y-62515045D01*
X84606164Y-62516135D01*
X84609269Y-62517087D01*
X84612411Y-62517901D01*
X84615590Y-62518576D01*
X84618806Y-62519113D01*
X84622060Y-62519512D01*
X84625350Y-62519773D01*
X84632042Y-62519879D01*
X84638882Y-62519431D01*
X84645871Y-62518431D01*
X84653008Y-62516877D01*
X84660476Y-62514467D01*
X84668753Y-62511323D01*
X84687733Y-62502836D01*
X84709947Y-62491415D01*
X84735395Y-62477059D01*
X84764077Y-62459770D01*
X84795993Y-62439547D01*
X84831144Y-62416390D01*
X84869528Y-62390298D01*
X85118141Y-62751165D01*
X84701104Y-63038476D01*
X84631582Y-63085353D01*
X84566001Y-63127475D01*
X84504362Y-63164842D01*
X84475020Y-63181743D01*
X84446663Y-63197455D01*
X84419291Y-63211978D01*
X84392905Y-63225312D01*
X84367504Y-63237458D01*
X84343088Y-63248416D01*
X84319657Y-63258184D01*
X84297211Y-63266764D01*
X84275751Y-63274156D01*
X84255276Y-63280358D01*
X84235321Y-63285983D01*
X84215552Y-63290911D01*
X84195970Y-63295141D01*
X84176574Y-63298674D01*
X84157365Y-63301509D01*
X84138342Y-63303647D01*
X84119506Y-63305087D01*
X84100856Y-63305830D01*
X84082392Y-63305875D01*
X84064115Y-63305222D01*
X84046024Y-63303873D01*
X84028120Y-63301825D01*
X84010403Y-63299080D01*
X83992871Y-63295638D01*
X83975527Y-63291498D01*
X83958369Y-63286660D01*
X83941337Y-63281167D01*
X83924372Y-63275058D01*
X83907473Y-63268335D01*
X83890642Y-63260997D01*
X83873877Y-63253044D01*
X83857179Y-63244477D01*
X83840548Y-63235295D01*
X83823983Y-63225498D01*
X83807486Y-63215086D01*
X83791055Y-63204060D01*
X83774691Y-63192419D01*
X83758394Y-63180163D01*
X83742163Y-63167293D01*
X83726000Y-63153808D01*
X83709903Y-63139708D01*
X83693873Y-63124993D01*
X83658584Y-63091533D01*
X83617556Y-63050653D01*
X83570789Y-63002353D01*
X83518282Y-62946634D01*
X83396051Y-62812935D01*
X83250862Y-62649556D01*
X81927609Y-61151483D01*
X82552311Y-60721051D01*
X83710823Y-62169465D01*
X82885943Y-60491201D01*
X83510647Y-60060819D01*
X84436167Y-62209424D01*
G37*
G36*
X87009262Y-61082727D02*
G01*
X86303192Y-61528642D01*
X85313126Y-59960958D01*
X85273435Y-59898776D01*
X85237144Y-59843309D01*
X85204254Y-59794558D01*
X85174764Y-59752521D01*
X85161295Y-59734020D01*
X85148675Y-59717198D01*
X85136906Y-59702055D01*
X85125987Y-59688591D01*
X85115917Y-59676805D01*
X85106698Y-59666699D01*
X85098330Y-59658270D01*
X85090811Y-59651521D01*
X85083511Y-59645766D01*
X85076076Y-59640765D01*
X85068506Y-59636518D01*
X85060801Y-59633025D01*
X85056898Y-59631561D01*
X85052961Y-59630286D01*
X85048991Y-59629199D01*
X85044986Y-59628301D01*
X85040948Y-59627591D01*
X85036876Y-59627070D01*
X85032770Y-59626737D01*
X85028631Y-59626593D01*
X85020250Y-59626870D01*
X85011735Y-59627901D01*
X85003084Y-59629686D01*
X84994298Y-59632226D01*
X84985377Y-59635519D01*
X84976321Y-59639566D01*
X84967130Y-59644367D01*
X84957804Y-59649922D01*
X84949196Y-59655646D01*
X84941283Y-59661504D01*
X84934066Y-59667495D01*
X84927544Y-59673620D01*
X84921717Y-59679878D01*
X84919065Y-59683057D01*
X84916587Y-59686270D01*
X84914282Y-59689516D01*
X84912151Y-59692796D01*
X84910195Y-59696109D01*
X84908412Y-59699455D01*
X84906803Y-59702835D01*
X84905368Y-59706248D01*
X84904106Y-59709694D01*
X84903019Y-59713174D01*
X84902106Y-59716688D01*
X84901366Y-59720234D01*
X84900800Y-59723815D01*
X84900409Y-59727428D01*
X84900191Y-59731075D01*
X84900147Y-59734755D01*
X84900276Y-59738469D01*
X84900580Y-59742216D01*
X84901058Y-59745997D01*
X84901709Y-59749811D01*
X84902535Y-59753658D01*
X84903534Y-59757539D01*
X84906230Y-59766026D01*
X84909971Y-59775897D01*
X84920591Y-59799788D01*
X84935392Y-59829213D01*
X84954376Y-59864172D01*
X84977542Y-59904663D01*
X85004890Y-59950688D01*
X85036420Y-60002247D01*
X85072132Y-60059339D01*
X86086481Y-61665471D01*
X85380411Y-62111386D01*
X84353922Y-60486028D01*
X84308152Y-60412406D01*
X84266869Y-60343591D01*
X84230073Y-60279582D01*
X84197763Y-60220379D01*
X84169941Y-60165982D01*
X84157713Y-60140586D01*
X84146606Y-60116391D01*
X84136622Y-60093398D01*
X84127759Y-60071607D01*
X84120017Y-60051017D01*
X84113398Y-60031629D01*
X84107635Y-60012598D01*
X84102737Y-59993516D01*
X84098705Y-59974385D01*
X84095540Y-59955203D01*
X84093240Y-59935971D01*
X84091806Y-59916688D01*
X84091238Y-59897355D01*
X84091535Y-59877972D01*
X84092699Y-59858539D01*
X84094728Y-59839055D01*
X84097624Y-59819521D01*
X84101385Y-59799937D01*
X84106012Y-59780302D01*
X84111505Y-59760617D01*
X84117863Y-59740882D01*
X84125088Y-59721097D01*
X84133217Y-59701457D01*
X84142287Y-59682159D01*
X84152298Y-59663202D01*
X84163251Y-59644586D01*
X84175145Y-59626312D01*
X84187981Y-59608379D01*
X84201758Y-59590787D01*
X84216476Y-59573537D01*
X84232136Y-59556628D01*
X84248737Y-59540060D01*
X84266279Y-59523834D01*
X84284763Y-59507949D01*
X84304189Y-59492406D01*
X84324555Y-59477204D01*
X84345863Y-59462343D01*
X84368113Y-59447824D01*
X84386275Y-59436709D01*
X84404497Y-59426263D01*
X84422779Y-59416486D01*
X84441120Y-59407377D01*
X84459520Y-59398937D01*
X84477981Y-59391166D01*
X84496501Y-59384064D01*
X84515081Y-59377630D01*
X84533720Y-59371865D01*
X84552419Y-59366769D01*
X84571177Y-59362341D01*
X84589995Y-59358582D01*
X84608873Y-59355492D01*
X84627810Y-59353070D01*
X84646807Y-59351317D01*
X84665863Y-59350232D01*
X84684623Y-59349739D01*
X84703443Y-59349915D01*
X84722322Y-59350760D01*
X84741261Y-59352274D01*
X84760259Y-59354457D01*
X84779317Y-59357310D01*
X84798435Y-59360831D01*
X84817612Y-59365021D01*
X84836849Y-59369881D01*
X84856145Y-59375409D01*
X84875502Y-59381607D01*
X84894918Y-59388474D01*
X84914393Y-59396009D01*
X84933928Y-59404214D01*
X84953523Y-59413088D01*
X84973177Y-59422631D01*
X84826287Y-59217137D01*
X85544583Y-58763532D01*
X87009262Y-61082727D01*
G37*
G36*
X73008017Y-68621038D02*
G01*
X73016065Y-68705371D01*
X73022951Y-68782485D01*
X73028673Y-68852379D01*
X73033232Y-68915052D01*
X73036627Y-68970506D01*
X73038860Y-69018739D01*
X73039929Y-69059752D01*
X73039835Y-69093545D01*
X73039301Y-69108363D01*
X73038423Y-69123150D01*
X73037201Y-69137906D01*
X73035635Y-69152631D01*
X73033726Y-69167324D01*
X73031473Y-69181987D01*
X73028876Y-69196618D01*
X73025935Y-69211218D01*
X73022651Y-69225787D01*
X73019023Y-69240325D01*
X73015051Y-69254832D01*
X73010735Y-69269308D01*
X73006076Y-69283752D01*
X73001073Y-69298165D01*
X72995725Y-69312547D01*
X72990034Y-69326898D01*
X72983649Y-69341114D01*
X72976732Y-69355041D01*
X72969284Y-69368680D01*
X72961305Y-69382030D01*
X72952794Y-69395091D01*
X72943752Y-69407864D01*
X72934178Y-69420348D01*
X72924073Y-69432544D01*
X72913437Y-69444451D01*
X72902269Y-69456069D01*
X72890570Y-69467399D01*
X72878339Y-69478440D01*
X72865577Y-69489193D01*
X72852284Y-69499657D01*
X72838459Y-69509832D01*
X72824103Y-69519719D01*
X72809206Y-69529229D01*
X72793762Y-69538273D01*
X72777768Y-69546852D01*
X72761226Y-69554966D01*
X72744135Y-69562614D01*
X72726496Y-69569796D01*
X72708308Y-69576514D01*
X72689571Y-69582766D01*
X72670286Y-69588552D01*
X72650452Y-69593873D01*
X72630069Y-69598729D01*
X72609138Y-69603120D01*
X72587658Y-69607045D01*
X72565630Y-69610505D01*
X72543052Y-69613500D01*
X72519926Y-69616029D01*
X72499482Y-69617768D01*
X72479290Y-69618946D01*
X72459352Y-69619564D01*
X72439667Y-69619622D01*
X72420235Y-69619119D01*
X72401057Y-69618055D01*
X72382132Y-69616432D01*
X72363460Y-69614247D01*
X72345041Y-69611503D01*
X72326876Y-69608198D01*
X72308964Y-69604332D01*
X72291306Y-69599907D01*
X72273900Y-69594921D01*
X72256748Y-69589374D01*
X72239849Y-69583267D01*
X72223204Y-69576600D01*
X72206537Y-69569140D01*
X72190140Y-69561118D01*
X72174013Y-69552535D01*
X72158154Y-69543389D01*
X72142566Y-69533682D01*
X72127246Y-69523413D01*
X72112197Y-69512581D01*
X72097416Y-69501188D01*
X72082905Y-69489233D01*
X72068664Y-69476716D01*
X72054692Y-69463638D01*
X72040990Y-69449997D01*
X72027557Y-69435794D01*
X72014393Y-69421029D01*
X72001499Y-69405702D01*
X71988875Y-69389814D01*
X72025473Y-69614690D01*
X71179972Y-69697640D01*
X70912150Y-66967763D01*
X71743243Y-66886220D01*
X71923476Y-68723279D01*
X71931570Y-68802805D01*
X71939404Y-68873724D01*
X71946977Y-68936037D01*
X71954291Y-68989743D01*
X71961345Y-69034842D01*
X71968138Y-69071334D01*
X71971437Y-69086352D01*
X71974671Y-69099219D01*
X71977840Y-69109934D01*
X71980944Y-69118497D01*
X71984032Y-69125742D01*
X71987668Y-69132446D01*
X71991850Y-69138609D01*
X71996580Y-69144232D01*
X72001857Y-69149314D01*
X72007682Y-69153855D01*
X72014054Y-69157855D01*
X72020973Y-69161314D01*
X72028439Y-69164233D01*
X72036453Y-69166610D01*
X72045014Y-69168447D01*
X72054123Y-69169743D01*
X72063778Y-69170498D01*
X72073981Y-69170713D01*
X72084732Y-69170386D01*
X72096030Y-69169519D01*
X72106549Y-69168252D01*
X72116509Y-69166570D01*
X72121279Y-69165573D01*
X72125909Y-69164472D01*
X72130399Y-69163267D01*
X72134749Y-69161958D01*
X72138958Y-69160546D01*
X72143028Y-69159029D01*
X72146958Y-69157408D01*
X72150748Y-69155684D01*
X72154398Y-69153855D01*
X72157908Y-69151923D01*
X72161278Y-69149887D01*
X72164508Y-69147747D01*
X72167598Y-69145503D01*
X72170548Y-69143154D01*
X72173358Y-69140702D01*
X72176028Y-69138147D01*
X72178558Y-69135487D01*
X72180948Y-69132723D01*
X72183198Y-69129855D01*
X72185309Y-69126884D01*
X72187279Y-69123808D01*
X72189109Y-69120629D01*
X72190799Y-69117346D01*
X72192349Y-69113958D01*
X72193759Y-69110467D01*
X72195029Y-69106872D01*
X72196159Y-69103173D01*
X72197150Y-69099370D01*
X72199629Y-69079980D01*
X72200734Y-69052547D01*
X72200467Y-69017070D01*
X72198826Y-68973549D01*
X72195812Y-68921985D01*
X72191425Y-68862378D01*
X72178530Y-68719033D01*
X71996279Y-66861402D01*
X72827380Y-66779862D01*
X73008017Y-68621038D01*
G37*
G36*
X79821430Y-66629998D02*
G01*
X79136807Y-67108190D01*
X78776980Y-66593026D01*
X78775733Y-66615310D01*
X78774025Y-66637246D01*
X78771858Y-66658833D01*
X78769231Y-66680071D01*
X78766143Y-66700962D01*
X78762595Y-66721503D01*
X78758588Y-66741696D01*
X78754120Y-66761541D01*
X78749192Y-66781037D01*
X78743803Y-66800185D01*
X78737955Y-66818984D01*
X78731647Y-66837435D01*
X78724878Y-66855537D01*
X78717649Y-66873291D01*
X78709960Y-66890697D01*
X78701811Y-66907754D01*
X78693198Y-66924457D01*
X78684116Y-66940798D01*
X78674564Y-66956777D01*
X78664543Y-66972395D01*
X78654053Y-66987650D01*
X78643093Y-67002545D01*
X78631664Y-67017077D01*
X78619766Y-67031248D01*
X78607399Y-67045057D01*
X78594562Y-67058504D01*
X78581256Y-67071590D01*
X78567481Y-67084314D01*
X78553237Y-67096676D01*
X78538523Y-67108677D01*
X78523341Y-67120316D01*
X78507689Y-67131593D01*
X78487754Y-67145069D01*
X78467774Y-67157691D01*
X78447749Y-67169459D01*
X78427678Y-67180373D01*
X78407562Y-67190432D01*
X78387400Y-67199638D01*
X78367194Y-67207989D01*
X78346941Y-67215487D01*
X78326644Y-67222130D01*
X78306300Y-67227919D01*
X78285912Y-67232854D01*
X78265478Y-67236935D01*
X78244998Y-67240162D01*
X78224473Y-67242535D01*
X78203903Y-67244053D01*
X78183287Y-67244718D01*
X78162455Y-67244476D01*
X78141954Y-67243411D01*
X78121786Y-67241524D01*
X78101948Y-67238815D01*
X78082442Y-67235282D01*
X78063268Y-67230928D01*
X78044425Y-67225750D01*
X78025914Y-67219750D01*
X78007734Y-67212927D01*
X77989885Y-67205282D01*
X77972369Y-67196814D01*
X77955183Y-67187524D01*
X77938330Y-67177411D01*
X77921807Y-67166475D01*
X77905617Y-67154717D01*
X77889757Y-67142137D01*
X77873369Y-67128291D01*
X77856310Y-67112865D01*
X77820182Y-67077272D01*
X77781371Y-67035357D01*
X77739879Y-66987121D01*
X77695706Y-66932564D01*
X77648851Y-66871686D01*
X77599313Y-66804486D01*
X77547095Y-66730966D01*
X76885439Y-65783677D01*
X76840836Y-65718861D01*
X76800536Y-65658288D01*
X76764540Y-65601959D01*
X76732847Y-65549873D01*
X76705458Y-65502031D01*
X76693377Y-65479701D01*
X76682372Y-65458431D01*
X76672443Y-65438223D01*
X76663590Y-65419075D01*
X76655812Y-65400988D01*
X76649111Y-65383962D01*
X76643360Y-65367331D01*
X76638446Y-65350432D01*
X76634369Y-65333263D01*
X76631129Y-65315826D01*
X76628725Y-65298119D01*
X76627158Y-65280144D01*
X76626428Y-65261899D01*
X76626535Y-65243385D01*
X76627478Y-65224603D01*
X76629258Y-65205551D01*
X76631875Y-65186230D01*
X76635329Y-65166641D01*
X76639619Y-65146782D01*
X76644746Y-65126654D01*
X76650710Y-65106257D01*
X76657511Y-65085591D01*
X76664778Y-65064945D01*
X76669059Y-65054238D01*
X77428575Y-65054238D01*
X77428632Y-65057591D01*
X77428855Y-65060956D01*
X77429244Y-65064333D01*
X77429799Y-65067722D01*
X77430519Y-65071123D01*
X77431406Y-65074536D01*
X77433855Y-65081976D01*
X77437320Y-65090616D01*
X77447297Y-65111499D01*
X77461339Y-65137187D01*
X77479446Y-65167679D01*
X77501617Y-65202975D01*
X77527852Y-65243075D01*
X77558152Y-65287978D01*
X77592516Y-65337686D01*
X78266016Y-66301923D01*
X78296204Y-66344581D01*
X78324036Y-66382737D01*
X78337069Y-66400128D01*
X78349513Y-66416394D01*
X78361369Y-66431534D01*
X78372635Y-66445549D01*
X78383313Y-66458439D01*
X78393402Y-66470204D01*
X78402901Y-66480843D01*
X78411813Y-66490358D01*
X78420135Y-66498747D01*
X78427868Y-66506011D01*
X78435013Y-66512150D01*
X78441569Y-66517163D01*
X78447544Y-66521234D01*
X78453667Y-66524670D01*
X78459937Y-66527470D01*
X78466354Y-66529636D01*
X78472920Y-66531167D01*
X78479632Y-66532063D01*
X78486492Y-66532324D01*
X78493500Y-66531950D01*
X78500655Y-66530941D01*
X78507957Y-66529298D01*
X78515407Y-66527019D01*
X78523004Y-66524106D01*
X78530749Y-66520558D01*
X78538642Y-66516375D01*
X78546682Y-66511557D01*
X78554869Y-66506105D01*
X78563017Y-66500117D01*
X78570517Y-66493991D01*
X78577370Y-66487727D01*
X78583574Y-66481324D01*
X78589130Y-66474784D01*
X78594038Y-66468105D01*
X78598298Y-66461288D01*
X78601910Y-66454333D01*
X78603473Y-66450804D01*
X78604874Y-66447240D01*
X78606113Y-66443642D01*
X78607190Y-66440009D01*
X78608105Y-66436341D01*
X78608858Y-66432639D01*
X78609449Y-66428902D01*
X78609878Y-66425131D01*
X78610145Y-66421325D01*
X78610250Y-66417485D01*
X78609974Y-66409700D01*
X78609050Y-66401777D01*
X78607477Y-66393716D01*
X78605085Y-66385045D01*
X78601702Y-66375294D01*
X78597327Y-66364463D01*
X78591961Y-66352551D01*
X78578257Y-66325485D01*
X78560588Y-66294097D01*
X78538954Y-66258387D01*
X78513356Y-66218354D01*
X78483793Y-66173999D01*
X78450266Y-66125321D01*
X77799265Y-65193284D01*
X77766516Y-65147018D01*
X77751101Y-65125725D01*
X77736328Y-65105660D01*
X77722194Y-65086821D01*
X77708701Y-65069210D01*
X77695849Y-65052825D01*
X77683637Y-65037668D01*
X77672065Y-65023738D01*
X77661134Y-65011034D01*
X77650843Y-64999558D01*
X77641193Y-64989309D01*
X77632183Y-64980287D01*
X77623814Y-64972492D01*
X77616084Y-64965924D01*
X77608996Y-64960584D01*
X77601968Y-64956332D01*
X77594846Y-64952737D01*
X77587632Y-64949797D01*
X77580324Y-64947514D01*
X77572923Y-64945887D01*
X77565429Y-64944916D01*
X77557842Y-64944601D01*
X77550162Y-64944943D01*
X77542388Y-64945940D01*
X77534522Y-64947594D01*
X77526562Y-64949904D01*
X77518509Y-64952870D01*
X77510363Y-64956492D01*
X77502123Y-64960770D01*
X77493791Y-64965705D01*
X77485365Y-64971295D01*
X77477013Y-64977386D01*
X77469324Y-64983524D01*
X77462299Y-64989711D01*
X77455939Y-64995947D01*
X77450242Y-65002230D01*
X77445210Y-65008562D01*
X77442943Y-65011746D01*
X77440841Y-65014942D01*
X77438906Y-65018151D01*
X77437137Y-65021371D01*
X77435534Y-65024603D01*
X77434097Y-65027848D01*
X77432825Y-65031104D01*
X77431720Y-65034373D01*
X77430781Y-65037654D01*
X77430008Y-65040946D01*
X77429401Y-65044251D01*
X77428959Y-65047568D01*
X77428684Y-65050897D01*
X77428575Y-65054238D01*
X76669059Y-65054238D01*
X76672860Y-65044733D01*
X76681758Y-65024956D01*
X76691472Y-65005614D01*
X76702001Y-64986706D01*
X76713346Y-64968233D01*
X76725508Y-64950195D01*
X76738485Y-64932592D01*
X76752278Y-64915423D01*
X76766886Y-64898690D01*
X76782311Y-64882391D01*
X76798551Y-64866526D01*
X76815608Y-64851097D01*
X76833480Y-64836102D01*
X76852168Y-64821542D01*
X76871672Y-64807416D01*
X76888065Y-64796311D01*
X76904623Y-64785781D01*
X76921346Y-64775825D01*
X76938233Y-64766443D01*
X76955285Y-64757635D01*
X76972502Y-64749401D01*
X76989884Y-64741742D01*
X77007430Y-64734657D01*
X77025142Y-64728147D01*
X77043018Y-64722210D01*
X77061059Y-64716848D01*
X77079264Y-64712060D01*
X77097635Y-64707847D01*
X77116170Y-64704207D01*
X77134870Y-64701142D01*
X77153734Y-64698651D01*
X77172775Y-64696738D01*
X77192003Y-64695403D01*
X77211419Y-64694647D01*
X77231021Y-64694468D01*
X77250811Y-64694868D01*
X77270789Y-64695846D01*
X77290953Y-64697402D01*
X77311305Y-64699536D01*
X77331844Y-64702249D01*
X77352570Y-64705540D01*
X77373484Y-64709410D01*
X77394585Y-64713857D01*
X77415873Y-64718883D01*
X77437348Y-64724488D01*
X77459010Y-64730671D01*
X77480860Y-64737432D01*
X77330511Y-64547448D01*
X78027033Y-64060964D01*
X79672996Y-66417485D01*
X79821430Y-66629998D01*
G37*
G36*
X62350370Y-64333057D02*
G01*
X62372295Y-64334686D01*
X62394332Y-64337304D01*
X62416482Y-64340910D01*
X62438746Y-64345504D01*
X62461122Y-64351087D01*
X62483612Y-64357659D01*
X62506214Y-64365219D01*
X62528929Y-64373768D01*
X62551758Y-64383305D01*
X62574699Y-64393831D01*
X62597753Y-64405345D01*
X62620920Y-64417848D01*
X62638259Y-64427903D01*
X62655101Y-64438383D01*
X62671446Y-64449288D01*
X62687293Y-64460619D01*
X62702644Y-64472374D01*
X62717498Y-64484554D01*
X62731854Y-64497160D01*
X62745714Y-64510191D01*
X62759076Y-64523646D01*
X62771941Y-64537527D01*
X62784310Y-64551833D01*
X62796181Y-64566564D01*
X62807556Y-64581720D01*
X62818433Y-64597301D01*
X62828814Y-64613307D01*
X62838698Y-64629739D01*
X62848217Y-64646374D01*
X62857254Y-64663442D01*
X62865808Y-64680943D01*
X62873880Y-64698877D01*
X62881468Y-64717244D01*
X62888574Y-64736044D01*
X62895196Y-64755276D01*
X62901336Y-64774942D01*
X62906993Y-64795041D01*
X62912167Y-64815572D01*
X62916858Y-64836537D01*
X62921066Y-64857934D01*
X62924791Y-64879765D01*
X62928034Y-64902028D01*
X62930793Y-64924725D01*
X62933070Y-64947854D01*
X62972861Y-64927097D01*
X63012442Y-64908997D01*
X63051813Y-64893556D01*
X63090972Y-64880773D01*
X63129921Y-64870648D01*
X63168660Y-64863181D01*
X63207188Y-64858372D01*
X63245505Y-64856221D01*
X63283611Y-64856728D01*
X63321507Y-64859894D01*
X63359192Y-64865717D01*
X63396667Y-64874199D01*
X63433931Y-64885338D01*
X63470984Y-64899136D01*
X63507827Y-64915591D01*
X63544459Y-64934705D01*
X63562895Y-64945375D01*
X63580779Y-64956439D01*
X63598109Y-64967896D01*
X63614886Y-64979747D01*
X63631110Y-64991991D01*
X63646781Y-65004629D01*
X63661898Y-65017660D01*
X63676462Y-65031085D01*
X63690473Y-65044904D01*
X63703931Y-65059116D01*
X63716836Y-65073721D01*
X63729187Y-65088721D01*
X63740985Y-65104113D01*
X63752229Y-65119900D01*
X63762920Y-65136080D01*
X63773058Y-65152654D01*
X63782764Y-65169395D01*
X63791917Y-65186530D01*
X63800517Y-65204058D01*
X63808564Y-65221980D01*
X63816059Y-65240295D01*
X63823001Y-65259004D01*
X63829390Y-65278107D01*
X63835226Y-65297603D01*
X63840509Y-65317492D01*
X63845240Y-65337775D01*
X63849418Y-65358452D01*
X63853043Y-65379523D01*
X63856116Y-65400986D01*
X63858636Y-65422844D01*
X63860603Y-65445095D01*
X63862017Y-65467740D01*
X63976588Y-65233396D01*
X64696303Y-65636205D01*
X63356707Y-68029828D01*
X62649622Y-67634107D01*
X63578356Y-65974622D01*
X63622358Y-65895467D01*
X63657455Y-65831166D01*
X63671664Y-65804587D01*
X63683647Y-65781721D01*
X63693403Y-65762568D01*
X63700934Y-65747129D01*
X63704108Y-65740116D01*
X63706965Y-65733110D01*
X63709502Y-65726111D01*
X63711722Y-65719119D01*
X63713623Y-65712133D01*
X63715206Y-65705154D01*
X63716470Y-65698182D01*
X63717416Y-65691217D01*
X63718044Y-65684258D01*
X63718353Y-65677306D01*
X63718344Y-65670361D01*
X63718016Y-65663423D01*
X63717370Y-65656492D01*
X63716406Y-65649568D01*
X63715123Y-65642650D01*
X63713522Y-65635739D01*
X63711749Y-65628723D01*
X63709697Y-65621940D01*
X63707367Y-65615389D01*
X63704759Y-65609072D01*
X63701872Y-65602987D01*
X63698707Y-65597135D01*
X63695264Y-65591516D01*
X63691543Y-65586129D01*
X63687543Y-65580976D01*
X63683265Y-65576055D01*
X63678709Y-65571367D01*
X63673874Y-65566912D01*
X63668761Y-65562689D01*
X63663369Y-65558700D01*
X63657699Y-65554943D01*
X63651751Y-65551419D01*
X63642141Y-65546402D01*
X63637400Y-65544199D01*
X63632702Y-65542202D01*
X63628047Y-65540408D01*
X63623435Y-65538819D01*
X63618866Y-65537435D01*
X63614340Y-65536255D01*
X63609857Y-65535280D01*
X63605416Y-65534509D01*
X63601019Y-65533942D01*
X63596665Y-65533580D01*
X63592353Y-65533422D01*
X63588084Y-65533469D01*
X63583858Y-65533720D01*
X63579675Y-65534175D01*
X63575535Y-65534836D01*
X63571438Y-65535700D01*
X63567384Y-65536769D01*
X63563373Y-65538042D01*
X63559405Y-65539520D01*
X63555479Y-65541202D01*
X63551596Y-65543089D01*
X63547757Y-65545180D01*
X63543960Y-65547476D01*
X63540206Y-65549975D01*
X63536495Y-65552680D01*
X63532827Y-65555589D01*
X63529202Y-65558702D01*
X63525620Y-65562020D01*
X63522080Y-65565542D01*
X63518584Y-65569268D01*
X63502053Y-65588886D01*
X63481164Y-65617612D01*
X63455918Y-65655448D01*
X63426315Y-65702392D01*
X63392354Y-65758445D01*
X63354036Y-65823608D01*
X63264326Y-65981259D01*
X62413325Y-67501851D01*
X61706240Y-67106130D01*
X62579451Y-65545854D01*
X62620203Y-65472244D01*
X62656146Y-65405639D01*
X62687280Y-65346041D01*
X62713604Y-65293449D01*
X62735119Y-65247863D01*
X62744073Y-65227697D01*
X62751825Y-65209283D01*
X62758374Y-65192621D01*
X62763721Y-65177709D01*
X62767865Y-65164550D01*
X62770808Y-65153142D01*
X62771773Y-65147854D01*
X62772555Y-65142647D01*
X62773152Y-65137522D01*
X62773564Y-65132479D01*
X62773792Y-65127517D01*
X62773835Y-65122638D01*
X62773693Y-65117840D01*
X62773367Y-65113123D01*
X62772857Y-65108489D01*
X62772162Y-65103936D01*
X62771282Y-65099465D01*
X62770218Y-65095076D01*
X62768969Y-65090769D01*
X62767536Y-65086543D01*
X62765918Y-65082399D01*
X62764116Y-65078337D01*
X62762129Y-65074357D01*
X62759957Y-65070458D01*
X62757601Y-65066641D01*
X62755060Y-65062906D01*
X62752335Y-65059253D01*
X62749425Y-65055681D01*
X62746331Y-65052191D01*
X62743052Y-65048783D01*
X62739589Y-65045457D01*
X62735941Y-65042212D01*
X62732108Y-65039049D01*
X62728091Y-65035968D01*
X62723889Y-65032969D01*
X62719503Y-65030051D01*
X62714932Y-65027215D01*
X62710177Y-65024461D01*
X62700764Y-65019572D01*
X62696100Y-65017436D01*
X62691464Y-65015505D01*
X62686857Y-65013780D01*
X62682278Y-65012261D01*
X62677727Y-65010947D01*
X62673205Y-65009839D01*
X62668711Y-65008936D01*
X62664246Y-65008239D01*
X62659809Y-65007748D01*
X62655400Y-65007462D01*
X62651020Y-65007381D01*
X62646668Y-65007506D01*
X62642345Y-65007837D01*
X62638050Y-65008373D01*
X62633783Y-65009115D01*
X62629545Y-65010063D01*
X62625335Y-65011216D01*
X62621153Y-65012574D01*
X62617000Y-65014138D01*
X62612875Y-65015908D01*
X62608779Y-65017883D01*
X62604711Y-65020064D01*
X62600671Y-65022451D01*
X62596660Y-65025043D01*
X62592677Y-65027840D01*
X62588722Y-65030843D01*
X62584796Y-65034052D01*
X62580898Y-65037466D01*
X62573187Y-65044911D01*
X62565006Y-65053379D01*
X62555968Y-65063774D01*
X62535324Y-65090342D01*
X62511256Y-65124618D01*
X62483764Y-65166599D01*
X62452846Y-65216288D01*
X62418505Y-65273682D01*
X62380739Y-65338784D01*
X62339548Y-65411592D01*
X61466337Y-66971868D01*
X60759253Y-66576146D01*
X61711203Y-64875177D01*
X61751440Y-64804537D01*
X61789878Y-64739626D01*
X61826515Y-64680444D01*
X61861353Y-64626991D01*
X61878097Y-64602413D01*
X61894391Y-64579267D01*
X61910235Y-64557553D01*
X61925629Y-64537272D01*
X61940573Y-64518422D01*
X61955067Y-64501005D01*
X61969112Y-64485020D01*
X61982706Y-64470468D01*
X61996456Y-64456760D01*
X62010716Y-64443764D01*
X62025484Y-64431478D01*
X62040761Y-64419903D01*
X62056548Y-64409038D01*
X62072844Y-64398884D01*
X62089649Y-64389441D01*
X62106963Y-64380708D01*
X62124786Y-64372686D01*
X62143119Y-64365374D01*
X62161960Y-64358773D01*
X62181311Y-64352883D01*
X62201170Y-64347703D01*
X62221539Y-64343234D01*
X62242417Y-64339475D01*
X62263804Y-64336427D01*
X62285276Y-64334102D01*
X62306861Y-64332765D01*
X62328559Y-64332417D01*
X62350370Y-64333057D01*
G37*
G36*
X77121416Y-66827333D02*
G01*
X77156252Y-66892874D01*
X77187736Y-66955089D01*
X77215870Y-67013979D01*
X77240653Y-67069544D01*
X77262085Y-67121783D01*
X77280166Y-67170696D01*
X77287950Y-67193906D01*
X77294897Y-67216284D01*
X77301005Y-67237831D01*
X77306277Y-67258546D01*
X77310726Y-67278660D01*
X77314615Y-67298859D01*
X77317943Y-67319141D01*
X77320710Y-67339508D01*
X77322916Y-67359959D01*
X77324562Y-67380494D01*
X77325646Y-67401113D01*
X77326170Y-67421816D01*
X77326133Y-67442603D01*
X77325536Y-67463475D01*
X77324378Y-67484430D01*
X77322658Y-67505470D01*
X77320379Y-67526594D01*
X77317538Y-67547802D01*
X77314137Y-67569094D01*
X77310175Y-67590470D01*
X77305173Y-67611759D01*
X77299352Y-67632995D01*
X77292713Y-67654180D01*
X77285255Y-67675313D01*
X77276979Y-67696395D01*
X77267885Y-67717425D01*
X77257973Y-67738404D01*
X77247242Y-67759331D01*
X77235693Y-67780206D01*
X77223325Y-67801030D01*
X77210140Y-67821802D01*
X77196136Y-67842523D01*
X77181314Y-67863192D01*
X77165673Y-67883809D01*
X77149214Y-67904375D01*
X77131937Y-67924890D01*
X77113896Y-67945231D01*
X77095143Y-67965278D01*
X77075680Y-67985031D01*
X77055505Y-68004491D01*
X77034620Y-68023657D01*
X77013023Y-68042530D01*
X76990716Y-68061108D01*
X76967697Y-68079393D01*
X76943968Y-68097384D01*
X76919528Y-68115081D01*
X76894377Y-68132485D01*
X76868514Y-68149595D01*
X76841941Y-68166411D01*
X76814657Y-68182933D01*
X76786662Y-68199162D01*
X76757956Y-68215097D01*
X76728163Y-68230942D01*
X76698724Y-68245915D01*
X76669638Y-68260017D01*
X76640906Y-68273247D01*
X76612526Y-68285604D01*
X76584500Y-68297090D01*
X76556828Y-68307704D01*
X76529508Y-68317446D01*
X76502542Y-68326316D01*
X76475930Y-68334314D01*
X76449670Y-68341439D01*
X76423764Y-68347693D01*
X76398211Y-68353075D01*
X76373011Y-68357585D01*
X76348165Y-68361222D01*
X76323672Y-68363988D01*
X76299082Y-68365833D01*
X76274647Y-68366913D01*
X76250367Y-68367229D01*
X76226242Y-68366782D01*
X76202271Y-68365570D01*
X76178455Y-68363595D01*
X76154794Y-68360855D01*
X76131287Y-68357351D01*
X76107935Y-68353084D01*
X76084738Y-68348052D01*
X76061695Y-68342257D01*
X76038807Y-68335697D01*
X76016074Y-68328374D01*
X75993495Y-68320286D01*
X75971071Y-68311435D01*
X75948801Y-68301820D01*
X75926942Y-68291724D01*
X75905748Y-68281432D01*
X75885219Y-68270944D01*
X75865355Y-68260260D01*
X75846157Y-68249380D01*
X75827624Y-68238304D01*
X75809757Y-68227032D01*
X75792555Y-68215563D01*
X75776019Y-68203899D01*
X75760147Y-68192039D01*
X75744941Y-68179983D01*
X75730401Y-68167730D01*
X75716526Y-68155282D01*
X75703316Y-68142638D01*
X75690771Y-68129798D01*
X75678892Y-68116761D01*
X75654922Y-68088874D01*
X75630101Y-68057259D01*
X75604431Y-68021914D01*
X75577912Y-67982841D01*
X75550543Y-67940039D01*
X75522325Y-67893508D01*
X75493257Y-67843249D01*
X75463339Y-67789262D01*
X75366640Y-67611260D01*
X76062296Y-67233338D01*
X76234976Y-67551198D01*
X76247054Y-67573160D01*
X76258865Y-67594090D01*
X76270410Y-67613989D01*
X76281689Y-67632856D01*
X76292701Y-67650691D01*
X76303447Y-67667495D01*
X76313927Y-67683268D01*
X76324140Y-67698009D01*
X76334087Y-67711718D01*
X76343768Y-67724395D01*
X76353183Y-67736042D01*
X76362331Y-67746656D01*
X76371213Y-67756239D01*
X76379829Y-67764790D01*
X76388178Y-67772310D01*
X76396262Y-67778798D01*
X76403950Y-67784311D01*
X76411816Y-67789102D01*
X76419860Y-67793172D01*
X76428082Y-67796519D01*
X76436481Y-67799145D01*
X76445058Y-67801050D01*
X76453813Y-67802232D01*
X76462746Y-67802693D01*
X76471856Y-67802432D01*
X76481144Y-67801449D01*
X76490610Y-67799745D01*
X76500254Y-67797319D01*
X76510075Y-67794171D01*
X76520074Y-67790301D01*
X76530251Y-67785710D01*
X76540606Y-67780397D01*
X76548731Y-67775741D01*
X76556315Y-67770901D01*
X76563359Y-67765877D01*
X76569863Y-67760670D01*
X76575826Y-67755278D01*
X76581249Y-67749703D01*
X76586132Y-67743944D01*
X76590474Y-67738001D01*
X76594277Y-67731874D01*
X76597538Y-67725563D01*
X76600260Y-67719068D01*
X76602441Y-67712390D01*
X76604083Y-67705527D01*
X76605184Y-67698480D01*
X76605744Y-67691250D01*
X76605765Y-67683835D01*
X76605170Y-67675925D01*
X76603898Y-67667206D01*
X76601949Y-67657680D01*
X76599321Y-67647346D01*
X76596015Y-67636203D01*
X76592032Y-67624253D01*
X76582032Y-67597929D01*
X76569320Y-67568373D01*
X76553896Y-67535585D01*
X76535761Y-67499565D01*
X76514914Y-67460313D01*
X76231718Y-66939027D01*
X75281779Y-67455094D01*
X75108107Y-67135388D01*
X75084956Y-67092014D01*
X75063115Y-67049526D01*
X75042583Y-67007926D01*
X75023360Y-66967214D01*
X75005446Y-66927389D01*
X74988842Y-66888452D01*
X74973546Y-66850403D01*
X74959560Y-66813241D01*
X74946883Y-66776967D01*
X74935516Y-66741580D01*
X74925457Y-66707081D01*
X74916708Y-66673470D01*
X74909268Y-66640747D01*
X74903138Y-66608911D01*
X74898316Y-66577963D01*
X74894804Y-66547902D01*
X74892237Y-66518228D01*
X74890953Y-66488648D01*
X74890950Y-66459161D01*
X74892230Y-66429768D01*
X74894792Y-66400469D01*
X74898636Y-66371264D01*
X74903763Y-66342152D01*
X74910171Y-66313134D01*
X74917862Y-66284210D01*
X74926835Y-66255379D01*
X74937091Y-66226643D01*
X74940297Y-66218684D01*
X75596003Y-66218684D01*
X75596367Y-66226480D01*
X75597288Y-66234525D01*
X75598850Y-66243169D01*
X75601131Y-66252763D01*
X75607849Y-66274806D01*
X75617443Y-66300653D01*
X75629912Y-66330304D01*
X75645257Y-66363759D01*
X75663477Y-66401019D01*
X75684573Y-66442083D01*
X75708544Y-66486951D01*
X75804255Y-66663137D01*
X76018584Y-66546693D01*
X75922873Y-66370507D01*
X75896301Y-66322273D01*
X75871845Y-66279285D01*
X75860410Y-66259759D01*
X75849504Y-66241544D01*
X75839126Y-66224640D01*
X75829278Y-66209049D01*
X75819958Y-66194769D01*
X75811167Y-66181801D01*
X75802905Y-66170144D01*
X75795171Y-66159799D01*
X75787967Y-66150766D01*
X75781291Y-66143044D01*
X75775144Y-66136634D01*
X75769526Y-66131536D01*
X75763922Y-66127176D01*
X75758065Y-66123432D01*
X75751954Y-66120304D01*
X75745589Y-66117791D01*
X75738971Y-66115893D01*
X75732098Y-66114611D01*
X75724972Y-66113944D01*
X75717593Y-66113892D01*
X75709959Y-66114456D01*
X75702072Y-66115636D01*
X75693931Y-66117430D01*
X75685536Y-66119841D01*
X75676888Y-66122866D01*
X75667986Y-66126508D01*
X75658830Y-66130764D01*
X75649420Y-66135636D01*
X75641982Y-66139953D01*
X75635101Y-66144518D01*
X75628778Y-66149331D01*
X75623011Y-66154393D01*
X75617803Y-66159704D01*
X75613151Y-66165263D01*
X75609057Y-66171071D01*
X75605520Y-66177127D01*
X75602541Y-66183432D01*
X75600118Y-66189985D01*
X75598253Y-66196787D01*
X75596946Y-66203837D01*
X75596196Y-66211136D01*
X75596003Y-66218684D01*
X74940297Y-66218684D01*
X74948628Y-66197999D01*
X74961448Y-66169450D01*
X74975550Y-66140994D01*
X74990934Y-66112632D01*
X75007601Y-66084363D01*
X75025235Y-66056268D01*
X75044221Y-66028633D01*
X75064559Y-66001457D01*
X75086250Y-65974742D01*
X75109293Y-65948486D01*
X75133689Y-65922689D01*
X75159438Y-65897353D01*
X75186539Y-65872476D01*
X75214992Y-65848059D01*
X75244798Y-65824102D01*
X75275956Y-65800605D01*
X75308467Y-65777567D01*
X75342331Y-65754989D01*
X75377547Y-65732871D01*
X75414115Y-65711213D01*
X75452036Y-65690015D01*
X75483576Y-65673377D01*
X75515079Y-65657752D01*
X75546543Y-65643139D01*
X75577970Y-65629540D01*
X75609359Y-65616954D01*
X75640710Y-65605380D01*
X75672023Y-65594820D01*
X75703298Y-65585272D01*
X75734535Y-65576738D01*
X75765735Y-65569216D01*
X75796897Y-65562708D01*
X75828021Y-65557212D01*
X75859107Y-65552729D01*
X75890155Y-65549259D01*
X75921166Y-65546802D01*
X75952139Y-65545358D01*
X75982729Y-65544765D01*
X76012837Y-65545316D01*
X76042464Y-65547011D01*
X76071610Y-65549850D01*
X76100274Y-65553832D01*
X76128457Y-65558957D01*
X76156158Y-65565227D01*
X76183379Y-65572640D01*
X76210117Y-65581197D01*
X76236375Y-65590897D01*
X76262151Y-65601741D01*
X76287445Y-65613729D01*
X76312259Y-65626860D01*
X76336591Y-65641135D01*
X76360441Y-65656554D01*
X76383810Y-65673116D01*
X76406768Y-65690729D01*
X76429628Y-65709754D01*
X76452393Y-65730191D01*
X76475060Y-65752041D01*
X76497632Y-65775304D01*
X76520107Y-65799979D01*
X76542485Y-65826066D01*
X76564767Y-65853566D01*
X76586952Y-65882479D01*
X76609041Y-65912803D01*
X76631033Y-65944541D01*
X76652929Y-65977690D01*
X76674728Y-66012252D01*
X76696431Y-66048227D01*
X76718037Y-66085614D01*
X76739546Y-66124414D01*
X76968955Y-66546693D01*
X77121416Y-66827333D01*
G37*
G36*
X67379262Y-66595205D02*
G01*
X67416417Y-66597374D01*
X67454061Y-66600761D01*
X67492196Y-66605365D01*
X67530821Y-66611186D01*
X67569936Y-66618225D01*
X67609541Y-66626481D01*
X67649146Y-66635854D01*
X67687756Y-66646131D01*
X67725370Y-66657312D01*
X67761989Y-66669396D01*
X67797614Y-66682383D01*
X67832243Y-66696275D01*
X67865877Y-66711070D01*
X67898516Y-66726768D01*
X67930160Y-66743370D01*
X67960809Y-66760876D01*
X67990462Y-66779285D01*
X68019121Y-66798598D01*
X68046784Y-66818814D01*
X68073453Y-66839934D01*
X68099126Y-66861958D01*
X68123804Y-66884885D01*
X68147401Y-66908026D01*
X68169716Y-66931197D01*
X68190752Y-66954397D01*
X68210507Y-66977626D01*
X68228982Y-67000886D01*
X68246176Y-67024174D01*
X68262090Y-67047492D01*
X68276723Y-67070840D01*
X68290076Y-67094217D01*
X68302149Y-67117624D01*
X68312941Y-67141060D01*
X68322453Y-67164526D01*
X68330685Y-67188021D01*
X68337636Y-67211545D01*
X68343306Y-67235100D01*
X68347697Y-67258683D01*
X68351033Y-67282876D01*
X68353543Y-67308258D01*
X68355225Y-67334830D01*
X68356080Y-67362590D01*
X68356108Y-67391539D01*
X68355310Y-67421678D01*
X68351231Y-67485522D01*
X68343844Y-67554123D01*
X68333149Y-67627481D01*
X68319147Y-67705594D01*
X68301836Y-67788465D01*
X68132609Y-68549146D01*
X68121554Y-68597310D01*
X68110163Y-68643944D01*
X68098433Y-68689046D01*
X68086366Y-68732618D01*
X68073961Y-68774658D01*
X68061219Y-68815167D01*
X68048139Y-68854146D01*
X68034721Y-68891594D01*
X68020965Y-68927510D01*
X68006872Y-68961896D01*
X67992441Y-68994750D01*
X67977673Y-69026074D01*
X67962566Y-69055867D01*
X67947122Y-69084129D01*
X67931340Y-69110860D01*
X67915221Y-69136060D01*
X67898360Y-69159721D01*
X67880746Y-69182454D01*
X67862379Y-69204258D01*
X67843259Y-69225134D01*
X67823386Y-69245082D01*
X67802760Y-69264101D01*
X67781381Y-69282191D01*
X67759249Y-69299353D01*
X67736364Y-69315587D01*
X67712726Y-69330892D01*
X67688335Y-69345269D01*
X67663192Y-69358717D01*
X67637295Y-69371237D01*
X67610645Y-69382828D01*
X67583242Y-69393491D01*
X67555086Y-69403226D01*
X67526153Y-69411664D01*
X67496303Y-69418939D01*
X67465538Y-69425051D01*
X67433857Y-69429999D01*
X67401260Y-69433783D01*
X67367747Y-69436404D01*
X67333319Y-69437862D01*
X67297974Y-69438156D01*
X67261714Y-69437287D01*
X67224538Y-69435254D01*
X67186446Y-69432058D01*
X67147438Y-69427698D01*
X67107515Y-69422175D01*
X67066675Y-69415489D01*
X67024920Y-69407639D01*
X66982249Y-69398625D01*
X66948865Y-69390851D01*
X66916306Y-69382565D01*
X66884572Y-69373769D01*
X66853663Y-69364460D01*
X66823579Y-69354641D01*
X66794320Y-69344311D01*
X66765887Y-69333469D01*
X66738278Y-69322115D01*
X66711495Y-69310251D01*
X66685536Y-69297875D01*
X66660403Y-69284988D01*
X66636095Y-69271590D01*
X66612612Y-69257681D01*
X66589954Y-69243260D01*
X66568121Y-69228328D01*
X66547114Y-69212884D01*
X66526921Y-69196679D01*
X66507421Y-69179967D01*
X66488612Y-69162746D01*
X66470495Y-69145018D01*
X66453071Y-69126782D01*
X66436338Y-69108038D01*
X66420297Y-69088786D01*
X66404949Y-69069026D01*
X66390292Y-69048759D01*
X66376327Y-69027983D01*
X66363054Y-69006700D01*
X66350472Y-68984909D01*
X66338583Y-68962610D01*
X66327386Y-68939804D01*
X66316880Y-68916489D01*
X66307066Y-68892667D01*
X66297765Y-68868405D01*
X66289188Y-68844386D01*
X66281334Y-68820612D01*
X66274203Y-68797080D01*
X66267795Y-68773792D01*
X66262110Y-68750748D01*
X66257149Y-68727948D01*
X66252911Y-68705391D01*
X66249396Y-68683077D01*
X66246605Y-68661007D01*
X66244537Y-68639181D01*
X66243192Y-68617598D01*
X66242571Y-68596259D01*
X66242673Y-68575164D01*
X66243498Y-68554312D01*
X66245047Y-68533704D01*
X66249345Y-68489694D01*
X66255382Y-68440843D01*
X66263158Y-68387151D01*
X66272672Y-68328618D01*
X66283925Y-68265244D01*
X66296917Y-68197030D01*
X66328116Y-68046079D01*
X67054499Y-68207673D01*
X66983580Y-68526475D01*
X66972956Y-68576456D01*
X66964204Y-68622485D01*
X66960529Y-68644018D01*
X66957323Y-68664564D01*
X66954585Y-68684121D01*
X66952315Y-68702691D01*
X66950512Y-68720273D01*
X66949178Y-68736868D01*
X66948311Y-68752474D01*
X66947913Y-68767093D01*
X66947982Y-68780724D01*
X66948520Y-68793367D01*
X66949525Y-68805022D01*
X66950999Y-68815690D01*
X66952732Y-68825563D01*
X66955020Y-68834948D01*
X66957864Y-68843844D01*
X66959494Y-68848108D01*
X66961263Y-68852251D01*
X66963171Y-68856272D01*
X66965218Y-68860170D01*
X66967403Y-68863946D01*
X66969728Y-68867600D01*
X66972191Y-68871132D01*
X66974793Y-68874542D01*
X66977534Y-68877829D01*
X66980413Y-68880995D01*
X66983432Y-68884038D01*
X66986589Y-68886959D01*
X66989885Y-68889758D01*
X66993320Y-68892435D01*
X66996894Y-68894990D01*
X67000607Y-68897422D01*
X67004458Y-68899733D01*
X67008449Y-68901921D01*
X67016846Y-68905931D01*
X67025799Y-68909452D01*
X67035307Y-68912485D01*
X67045370Y-68915029D01*
X67054125Y-68916686D01*
X67062735Y-68917733D01*
X67071200Y-68918168D01*
X67075377Y-68918156D01*
X67079519Y-68917992D01*
X67083624Y-68917675D01*
X67087693Y-68917205D01*
X67091725Y-68916582D01*
X67095722Y-68915806D01*
X67099681Y-68914877D01*
X67103605Y-68913796D01*
X67107492Y-68912562D01*
X67111343Y-68911175D01*
X67115158Y-68909635D01*
X67118936Y-68907942D01*
X67122678Y-68906097D01*
X67126384Y-68904099D01*
X67133686Y-68899644D01*
X67140844Y-68894577D01*
X67147856Y-68888900D01*
X67154722Y-68882611D01*
X67161444Y-68875711D01*
X67168021Y-68868199D01*
X67174500Y-68859822D01*
X67180818Y-68850829D01*
X67186975Y-68841222D01*
X67192971Y-68831000D01*
X67198807Y-68820164D01*
X67204481Y-68808712D01*
X67209995Y-68796646D01*
X67215347Y-68783965D01*
X67220539Y-68770669D01*
X67225569Y-68756758D01*
X67230439Y-68742233D01*
X67235147Y-68727092D01*
X67244081Y-68694967D01*
X67252371Y-68660382D01*
X67533369Y-67397283D01*
X67542318Y-67355267D01*
X67549641Y-67316992D01*
X67552692Y-67299258D01*
X67555337Y-67282459D01*
X67557576Y-67266595D01*
X67559408Y-67251667D01*
X67560833Y-67237674D01*
X67561852Y-67224616D01*
X67562464Y-67212494D01*
X67562670Y-67201307D01*
X67562469Y-67191055D01*
X67561862Y-67181738D01*
X67560848Y-67173356D01*
X67559428Y-67165910D01*
X67557579Y-67159088D01*
X67555280Y-67152579D01*
X67552531Y-67146384D01*
X67549331Y-67140502D01*
X67545681Y-67134933D01*
X67541581Y-67129678D01*
X67537031Y-67124737D01*
X67532030Y-67120109D01*
X67526580Y-67115794D01*
X67520679Y-67111793D01*
X67514327Y-67108105D01*
X67507526Y-67104731D01*
X67500274Y-67101670D01*
X67492572Y-67098923D01*
X67484420Y-67096489D01*
X67475817Y-67094369D01*
X67467113Y-67092672D01*
X67458653Y-67091509D01*
X67454515Y-67091128D01*
X67450439Y-67090881D01*
X67446423Y-67090767D01*
X67442469Y-67090787D01*
X67438576Y-67090940D01*
X67434745Y-67091227D01*
X67430974Y-67091648D01*
X67427265Y-67092202D01*
X67423617Y-67092890D01*
X67420031Y-67093711D01*
X67416505Y-67094666D01*
X67413041Y-67095754D01*
X67409639Y-67096976D01*
X67406297Y-67098332D01*
X67403017Y-67099821D01*
X67399798Y-67101444D01*
X67396640Y-67103200D01*
X67393544Y-67105090D01*
X67390509Y-67107114D01*
X67387535Y-67109271D01*
X67384622Y-67111562D01*
X67381771Y-67113986D01*
X67378981Y-67116544D01*
X67376252Y-67119235D01*
X67373585Y-67122060D01*
X67370978Y-67125019D01*
X67368434Y-67128111D01*
X67365950Y-67131337D01*
X67361111Y-67138102D01*
X67356295Y-67145732D01*
X67351501Y-67154228D01*
X67346730Y-67163589D01*
X67341982Y-67173815D01*
X67337256Y-67184907D01*
X67327872Y-67209686D01*
X67318578Y-67237926D01*
X67309375Y-67269628D01*
X67300262Y-67304791D01*
X67291239Y-67343415D01*
X67222559Y-67652127D01*
X66453806Y-67481107D01*
X66453799Y-67481099D01*
X66475353Y-67389709D01*
X66486558Y-67346219D01*
X66498049Y-67304198D01*
X66509824Y-67263647D01*
X66521885Y-67224565D01*
X66534231Y-67186953D01*
X66546862Y-67150811D01*
X66559778Y-67116139D01*
X66572980Y-67082936D01*
X66586467Y-67051203D01*
X66600239Y-67020939D01*
X66614296Y-66992146D01*
X66628638Y-66964822D01*
X66643266Y-66938967D01*
X66658179Y-66914582D01*
X66673764Y-66891340D01*
X66690408Y-66868912D01*
X66708113Y-66847299D01*
X66726876Y-66826500D01*
X66746699Y-66806516D01*
X66767582Y-66787347D01*
X66789524Y-66768993D01*
X66812526Y-66751453D01*
X66836587Y-66734729D01*
X66861707Y-66718819D01*
X66887888Y-66703723D01*
X66915127Y-66689443D01*
X66943427Y-66675977D01*
X66972785Y-66663327D01*
X67003204Y-66651491D01*
X67034682Y-66640470D01*
X67066934Y-66630465D01*
X67099676Y-66621677D01*
X67132909Y-66614107D01*
X67166631Y-66607754D01*
X67200844Y-66602619D01*
X67235547Y-66598702D01*
X67270741Y-66596001D01*
X67306424Y-66594518D01*
X67342598Y-66594253D01*
X67379262Y-66595205D01*
G37*
G36*
X75225131Y-68631676D02*
G01*
X75219196Y-68651224D01*
X75212698Y-68670544D01*
X75205636Y-68689635D01*
X75198012Y-68708497D01*
X75189396Y-68726953D01*
X75180008Y-68745161D01*
X75169847Y-68763122D01*
X75158914Y-68780835D01*
X75147209Y-68798300D01*
X75134732Y-68815518D01*
X75121482Y-68832488D01*
X75107460Y-68849211D01*
X75092666Y-68865686D01*
X75077099Y-68881914D01*
X75060761Y-68897894D01*
X75043649Y-68913626D01*
X75025766Y-68929111D01*
X75007110Y-68944348D01*
X74987682Y-68959338D01*
X74967482Y-68974080D01*
X74924610Y-69002330D01*
X74878649Y-69029589D01*
X74829598Y-69055858D01*
X74777458Y-69081137D01*
X74722229Y-69105425D01*
X74663910Y-69128723D01*
X74602502Y-69151031D01*
X74538004Y-69172349D01*
X74479395Y-69189669D01*
X74450489Y-69197341D01*
X74421850Y-69204353D01*
X74393477Y-69210707D01*
X74365370Y-69216401D01*
X74337529Y-69221437D01*
X74309954Y-69225813D01*
X74282646Y-69229530D01*
X74255603Y-69232589D01*
X74228827Y-69234988D01*
X74202317Y-69236729D01*
X74176072Y-69237810D01*
X74150094Y-69238232D01*
X74124382Y-69237995D01*
X74098936Y-69237100D01*
X74073471Y-69235333D01*
X74048351Y-69232832D01*
X74023574Y-69229595D01*
X73999141Y-69225624D01*
X73975052Y-69220918D01*
X73951307Y-69215477D01*
X73927907Y-69209300D01*
X73904850Y-69202389D01*
X73882137Y-69194743D01*
X73859768Y-69186362D01*
X73837743Y-69177246D01*
X73816063Y-69167395D01*
X73794726Y-69156809D01*
X73773733Y-69145488D01*
X73753084Y-69133432D01*
X73732779Y-69120641D01*
X73712861Y-69107060D01*
X73693525Y-69093125D01*
X73674773Y-69078838D01*
X73656603Y-69064197D01*
X73639016Y-69049203D01*
X73622011Y-69033857D01*
X73605589Y-69018157D01*
X73589751Y-69002103D01*
X73574494Y-68985697D01*
X73559821Y-68968938D01*
X73545730Y-68951825D01*
X73532223Y-68934360D01*
X73519297Y-68916541D01*
X73506955Y-68898369D01*
X73495195Y-68879845D01*
X73484019Y-68860967D01*
X73461726Y-68819263D01*
X73438698Y-68771358D01*
X73414933Y-68717251D01*
X73390431Y-68656941D01*
X73365193Y-68590429D01*
X73339218Y-68517715D01*
X73312507Y-68438799D01*
X73285059Y-68353681D01*
X73083048Y-67712979D01*
X73083029Y-67712972D01*
X73062443Y-67645504D01*
X73044486Y-67582083D01*
X73029157Y-67522710D01*
X73016455Y-67467384D01*
X73006382Y-67416105D01*
X73002331Y-67391983D01*
X72998937Y-67368873D01*
X72996200Y-67346774D01*
X72994120Y-67325688D01*
X72992697Y-67305613D01*
X72991930Y-67286550D01*
X72991523Y-67268018D01*
X72991659Y-67249383D01*
X72992338Y-67230644D01*
X72993560Y-67211802D01*
X72995325Y-67192856D01*
X72997633Y-67173807D01*
X73000484Y-67154655D01*
X73003878Y-67135399D01*
X73007815Y-67116040D01*
X73012295Y-67096577D01*
X73017319Y-67077011D01*
X73022885Y-67057341D01*
X73028995Y-67037568D01*
X73035647Y-67017691D01*
X73037203Y-67013372D01*
X73759030Y-67013372D01*
X73759148Y-67022310D01*
X73760998Y-67043536D01*
X73765003Y-67069230D01*
X73771161Y-67099393D01*
X73779473Y-67134024D01*
X73789939Y-67173123D01*
X73802558Y-67216690D01*
X73817332Y-67264726D01*
X74197737Y-68471215D01*
X74204365Y-68491916D01*
X74210886Y-68511635D01*
X74217301Y-68530371D01*
X74223610Y-68548125D01*
X74229812Y-68564897D01*
X74235908Y-68580686D01*
X74241897Y-68595493D01*
X74247779Y-68609318D01*
X74253555Y-68622160D01*
X74259225Y-68634020D01*
X74264788Y-68644898D01*
X74270245Y-68654793D01*
X74275595Y-68663706D01*
X74280838Y-68671637D01*
X74285976Y-68678586D01*
X74291006Y-68684552D01*
X74295866Y-68689844D01*
X74300985Y-68694614D01*
X74306363Y-68698861D01*
X74311999Y-68702587D01*
X74317894Y-68705792D01*
X74324048Y-68708474D01*
X74330461Y-68710634D01*
X74337132Y-68712273D01*
X74344062Y-68713389D01*
X74351252Y-68713984D01*
X74358699Y-68714057D01*
X74366406Y-68713608D01*
X74374371Y-68712637D01*
X74382596Y-68711145D01*
X74391079Y-68709130D01*
X74399821Y-68706594D01*
X74408194Y-68703715D01*
X74416078Y-68700517D01*
X74423473Y-68696999D01*
X74430378Y-68693162D01*
X74436794Y-68689005D01*
X74442721Y-68684528D01*
X74445501Y-68682170D01*
X74448158Y-68679732D01*
X74450693Y-68677214D01*
X74453106Y-68674616D01*
X74455397Y-68671938D01*
X74457565Y-68669180D01*
X74459610Y-68666343D01*
X74461534Y-68663425D01*
X74463335Y-68660428D01*
X74465013Y-68657350D01*
X74466570Y-68654193D01*
X74468003Y-68650956D01*
X74469315Y-68647639D01*
X74470504Y-68644242D01*
X74472515Y-68637208D01*
X74474037Y-68629855D01*
X74475069Y-68622182D01*
X74475523Y-68613632D01*
X74475476Y-68604139D01*
X74474929Y-68593703D01*
X74473881Y-68582324D01*
X74470283Y-68556739D01*
X74464684Y-68527382D01*
X74457083Y-68494254D01*
X74447481Y-68457355D01*
X74435876Y-68416685D01*
X74422270Y-68372243D01*
X74049948Y-67191384D01*
X74034468Y-67143572D01*
X74027004Y-67121509D01*
X74019724Y-67100675D01*
X74012628Y-67081069D01*
X74005716Y-67062693D01*
X73998989Y-67045544D01*
X73992445Y-67029625D01*
X73986086Y-67014934D01*
X73979911Y-67001472D01*
X73973920Y-66989239D01*
X73968114Y-66978235D01*
X73962492Y-66968459D01*
X73957053Y-66959912D01*
X73951800Y-66952593D01*
X73946730Y-66946504D01*
X73941556Y-66941049D01*
X73936143Y-66936126D01*
X73930492Y-66931736D01*
X73924603Y-66927878D01*
X73918475Y-66924552D01*
X73912108Y-66921759D01*
X73905503Y-66919499D01*
X73898659Y-66917770D01*
X73891577Y-66916575D01*
X73884256Y-66915911D01*
X73876697Y-66915780D01*
X73868899Y-66916182D01*
X73860862Y-66917116D01*
X73852587Y-66918582D01*
X73844074Y-66920581D01*
X73835322Y-66923112D01*
X73826709Y-66926055D01*
X73818612Y-66929293D01*
X73811031Y-66932825D01*
X73803966Y-66936652D01*
X73797418Y-66940774D01*
X73794337Y-66942945D01*
X73791386Y-66945190D01*
X73788563Y-66947509D01*
X73785870Y-66949901D01*
X73783305Y-66952367D01*
X73780870Y-66954906D01*
X73778563Y-66957519D01*
X73776386Y-66960206D01*
X73774338Y-66962966D01*
X73772418Y-66965800D01*
X73770628Y-66968708D01*
X73768967Y-66971689D01*
X73767435Y-66974744D01*
X73766032Y-66977873D01*
X73764758Y-66981075D01*
X73763612Y-66984350D01*
X73762596Y-66987700D01*
X73761709Y-66991123D01*
X73760951Y-66994620D01*
X73760322Y-66998190D01*
X73759822Y-67001834D01*
X73759451Y-67005551D01*
X73759030Y-67013372D01*
X73037203Y-67013372D01*
X73042843Y-66997711D01*
X73050581Y-66977628D01*
X73058999Y-66957576D01*
X73068231Y-66937690D01*
X73078277Y-66917971D01*
X73089138Y-66898419D01*
X73100813Y-66879033D01*
X73113303Y-66859813D01*
X73126607Y-66840760D01*
X73140726Y-66821874D01*
X73155659Y-66803154D01*
X73171407Y-66784600D01*
X73187969Y-66766213D01*
X73205345Y-66747992D01*
X73223536Y-66729938D01*
X73242542Y-66712050D01*
X73262361Y-66694329D01*
X73282996Y-66676774D01*
X73304113Y-66659355D01*
X73326030Y-66642378D01*
X73348747Y-66625843D01*
X73372264Y-66609750D01*
X73396580Y-66594099D01*
X73421696Y-66578890D01*
X73447613Y-66564124D01*
X73474328Y-66549799D01*
X73501844Y-66535917D01*
X73530159Y-66522476D01*
X73559274Y-66509478D01*
X73589189Y-66496922D01*
X73619903Y-66484808D01*
X73651418Y-66473137D01*
X73683731Y-66461907D01*
X73716845Y-66451120D01*
X73756472Y-66439159D01*
X73795511Y-66428451D01*
X73833964Y-66418994D01*
X73871829Y-66410789D01*
X73909106Y-66403836D01*
X73945796Y-66398135D01*
X73981899Y-66393686D01*
X74017415Y-66390489D01*
X74052343Y-66388543D01*
X74086684Y-66387850D01*
X74120437Y-66388408D01*
X74153603Y-66390218D01*
X74186182Y-66393280D01*
X74218173Y-66397594D01*
X74249577Y-66403160D01*
X74280394Y-66409978D01*
X74310524Y-66417893D01*
X74339868Y-66426751D01*
X74368424Y-66436551D01*
X74396195Y-66447294D01*
X74423178Y-66458978D01*
X74449375Y-66471605D01*
X74474785Y-66485174D01*
X74499409Y-66499685D01*
X74523245Y-66515138D01*
X74546296Y-66531534D01*
X74568559Y-66548872D01*
X74590036Y-66567152D01*
X74610726Y-66586374D01*
X74630630Y-66606538D01*
X74649747Y-66627645D01*
X74668078Y-66649694D01*
X74685904Y-66672934D01*
X74703508Y-66697617D01*
X74720889Y-66723741D01*
X74738047Y-66751308D01*
X74754982Y-66780316D01*
X74771695Y-66810766D01*
X74804452Y-66875991D01*
X74836318Y-66946983D01*
X74867292Y-67023743D01*
X74897376Y-67106269D01*
X74926569Y-67194562D01*
X75137904Y-67864835D01*
X75162664Y-67945752D01*
X75184439Y-68021922D01*
X75203230Y-68093344D01*
X75219036Y-68160019D01*
X75231858Y-68221946D01*
X75241694Y-68279126D01*
X75245493Y-68305935D01*
X75248546Y-68331558D01*
X75250853Y-68355994D01*
X75252413Y-68379243D01*
X75253238Y-68401538D01*
X75253499Y-68423603D01*
X75253198Y-68445440D01*
X75252332Y-68467048D01*
X75250904Y-68488428D01*
X75248912Y-68509578D01*
X75246357Y-68530500D01*
X75243238Y-68551193D01*
X75239556Y-68571657D01*
X75235311Y-68591892D01*
X75230503Y-68611898D01*
X75230032Y-68613632D01*
X75225131Y-68631676D01*
G37*
G36*
X66386481Y-66577397D02*
G01*
X66394951Y-66604513D01*
X66402214Y-66631851D01*
X66408268Y-66659411D01*
X66413115Y-66687195D01*
X66416755Y-66715201D01*
X66419187Y-66743429D01*
X66420411Y-66771880D01*
X66420428Y-66800553D01*
X66419299Y-66829822D01*
X66417079Y-66860057D01*
X66413766Y-66891260D01*
X66409360Y-66923429D01*
X66403863Y-66956566D01*
X66397273Y-66990670D01*
X66380817Y-67061779D01*
X66359991Y-67136756D01*
X66334796Y-67215601D01*
X66305233Y-67298315D01*
X66271300Y-67384896D01*
X66005789Y-68035611D01*
X65973163Y-68113692D01*
X65941271Y-68186212D01*
X65910113Y-68253171D01*
X65879689Y-68314570D01*
X65849999Y-68370407D01*
X65835430Y-68396241D01*
X65821043Y-68420684D01*
X65806841Y-68443737D01*
X65792821Y-68465400D01*
X65778986Y-68485673D01*
X65765333Y-68504556D01*
X65751727Y-68522236D01*
X65737834Y-68539380D01*
X65723654Y-68555988D01*
X65709186Y-68572061D01*
X65694431Y-68587598D01*
X65679389Y-68602599D01*
X65664060Y-68617064D01*
X65648443Y-68630994D01*
X65632539Y-68644388D01*
X65616348Y-68657246D01*
X65599870Y-68669568D01*
X65583105Y-68681355D01*
X65566052Y-68692606D01*
X65548712Y-68703322D01*
X65531085Y-68713501D01*
X65513171Y-68723146D01*
X65494753Y-68731842D01*
X65475899Y-68739855D01*
X65456609Y-68747185D01*
X65436883Y-68753830D01*
X65416722Y-68759792D01*
X65396124Y-68765070D01*
X65375090Y-68769664D01*
X65353619Y-68773574D01*
X65331713Y-68776801D01*
X65309371Y-68779344D01*
X65286593Y-68781203D01*
X65263378Y-68782379D01*
X65239727Y-68782871D01*
X65215641Y-68782679D01*
X65191118Y-68781803D01*
X65166159Y-68780244D01*
X65115127Y-68774595D01*
X65062351Y-68766211D01*
X65007831Y-68755093D01*
X64951566Y-68741240D01*
X64893556Y-68724652D01*
X64833803Y-68705329D01*
X64772305Y-68683271D01*
X64709063Y-68658479D01*
X64680668Y-68646596D01*
X64652899Y-68634376D01*
X64625756Y-68621818D01*
X64599239Y-68608923D01*
X64573348Y-68595690D01*
X64548084Y-68582120D01*
X64523445Y-68568212D01*
X64499433Y-68553967D01*
X64476047Y-68539384D01*
X64453287Y-68524463D01*
X64431153Y-68509205D01*
X64409645Y-68493610D01*
X64388763Y-68477677D01*
X64368507Y-68461407D01*
X64348878Y-68444799D01*
X64329874Y-68427854D01*
X64311409Y-68410229D01*
X64293677Y-68392259D01*
X64276680Y-68373943D01*
X64260417Y-68355282D01*
X64244888Y-68336274D01*
X64230093Y-68316921D01*
X64216032Y-68297222D01*
X64202705Y-68277177D01*
X64190113Y-68256787D01*
X64178254Y-68236051D01*
X64167130Y-68214969D01*
X64156740Y-68193541D01*
X64147085Y-68171767D01*
X64138163Y-68149648D01*
X64129976Y-68127182D01*
X64126842Y-68117591D01*
X64830519Y-68117591D01*
X64830584Y-68125394D01*
X64830944Y-68132569D01*
X64831323Y-68136068D01*
X64831836Y-68139508D01*
X64832482Y-68142889D01*
X64833261Y-68146211D01*
X64834173Y-68149474D01*
X64835218Y-68152678D01*
X64836396Y-68155823D01*
X64837708Y-68158909D01*
X64839152Y-68161935D01*
X64840730Y-68164903D01*
X64842440Y-68167811D01*
X64844284Y-68170661D01*
X64846261Y-68173451D01*
X64848371Y-68176183D01*
X64850614Y-68178855D01*
X64852990Y-68181468D01*
X64858142Y-68186518D01*
X64863826Y-68191331D01*
X64870042Y-68195908D01*
X64876791Y-68200249D01*
X64884073Y-68204354D01*
X64891886Y-68208222D01*
X64900233Y-68211854D01*
X64908520Y-68214991D01*
X64916633Y-68217568D01*
X64924574Y-68219587D01*
X64932341Y-68221047D01*
X64939936Y-68221947D01*
X64943668Y-68222188D01*
X64947357Y-68222289D01*
X64951002Y-68222250D01*
X64954605Y-68222072D01*
X64958164Y-68221753D01*
X64961680Y-68221295D01*
X64965152Y-68220698D01*
X64968582Y-68219960D01*
X64971968Y-68219083D01*
X64975310Y-68218066D01*
X64978610Y-68216909D01*
X64981866Y-68215613D01*
X64985079Y-68214177D01*
X64988249Y-68212601D01*
X64991375Y-68210885D01*
X64994458Y-68209030D01*
X64997498Y-68207035D01*
X65000495Y-68204900D01*
X65003448Y-68202625D01*
X65006358Y-68200211D01*
X65012049Y-68194963D01*
X65017859Y-68188674D01*
X65023886Y-68181340D01*
X65030130Y-68172961D01*
X65036592Y-68163536D01*
X65050166Y-68141553D01*
X65064609Y-68115389D01*
X65079921Y-68085045D01*
X65096101Y-68050520D01*
X65113150Y-68011815D01*
X65131068Y-67968930D01*
X65598833Y-66822522D01*
X65617469Y-66775845D01*
X65633529Y-66733421D01*
X65640594Y-66713803D01*
X65647015Y-66695249D01*
X65652792Y-66677757D01*
X65657925Y-66661329D01*
X65662415Y-66645964D01*
X65666261Y-66631663D01*
X65669464Y-66618424D01*
X65672023Y-66606248D01*
X65673938Y-66595136D01*
X65675210Y-66585086D01*
X65675837Y-66576100D01*
X65675822Y-66568177D01*
X65675324Y-66560675D01*
X65674304Y-66553430D01*
X65673597Y-66549904D01*
X65672760Y-66546442D01*
X65671791Y-66543045D01*
X65670692Y-66539712D01*
X65669462Y-66536443D01*
X65668100Y-66533238D01*
X65666608Y-66530098D01*
X65664985Y-66527023D01*
X65663232Y-66524011D01*
X65661347Y-66521064D01*
X65659331Y-66518181D01*
X65657185Y-66515363D01*
X65654908Y-66512609D01*
X65652499Y-66509919D01*
X65647290Y-66504732D01*
X65641557Y-66499803D01*
X65635301Y-66495131D01*
X65628521Y-66490716D01*
X65621218Y-66486559D01*
X65613390Y-66482659D01*
X65605040Y-66479016D01*
X65596532Y-66475780D01*
X65588233Y-66473101D01*
X65580144Y-66470977D01*
X65572263Y-66469410D01*
X65568401Y-66468835D01*
X65564592Y-66468399D01*
X65560834Y-66468102D01*
X65557129Y-66467944D01*
X65553477Y-66467925D01*
X65549876Y-66468045D01*
X65546328Y-66468304D01*
X65542832Y-66468702D01*
X65539388Y-66469240D01*
X65535996Y-66469916D01*
X65532657Y-66470731D01*
X65529370Y-66471686D01*
X65526135Y-66472779D01*
X65522953Y-66474012D01*
X65519823Y-66475384D01*
X65516745Y-66476894D01*
X65513719Y-66478544D01*
X65510746Y-66480333D01*
X65507824Y-66482260D01*
X65504955Y-66484327D01*
X65502139Y-66486533D01*
X65499374Y-66488878D01*
X65496662Y-66491362D01*
X65494002Y-66493985D01*
X65488682Y-66499733D01*
X65483064Y-66506685D01*
X65477146Y-66514840D01*
X65470929Y-66524198D01*
X65457598Y-66546526D01*
X65443070Y-66573667D01*
X65427345Y-66605622D01*
X65410424Y-66642391D01*
X65392306Y-66683974D01*
X65372992Y-66730371D01*
X64895083Y-67901670D01*
X64879375Y-67941170D01*
X64865852Y-67977375D01*
X64859909Y-67994242D01*
X64854513Y-68010284D01*
X64849662Y-68025503D01*
X64845358Y-68039898D01*
X64841600Y-68053468D01*
X64838388Y-68066215D01*
X64835722Y-68078138D01*
X64833602Y-68089237D01*
X64832029Y-68099512D01*
X64831001Y-68108963D01*
X64830519Y-68117591D01*
X64126842Y-68117591D01*
X64122523Y-68104371D01*
X64115870Y-68081199D01*
X64109891Y-68058126D01*
X64104586Y-68035155D01*
X64099955Y-68012284D01*
X64095999Y-67989514D01*
X64092717Y-67966844D01*
X64090109Y-67944275D01*
X64088175Y-67921806D01*
X64086915Y-67899438D01*
X64086330Y-67877171D01*
X64086418Y-67855004D01*
X64087181Y-67832938D01*
X64088617Y-67810972D01*
X64090728Y-67789107D01*
X64093513Y-67767343D01*
X64096972Y-67745679D01*
X64106456Y-67699353D01*
X64119334Y-67647784D01*
X64135608Y-67590973D01*
X64155277Y-67528919D01*
X64178340Y-67461622D01*
X64204799Y-67389083D01*
X64234652Y-67311301D01*
X64267901Y-67228276D01*
X64521696Y-66606271D01*
X64521704Y-66606271D01*
X64548951Y-66541204D01*
X64575637Y-66480931D01*
X64601762Y-66425452D01*
X64614615Y-66399511D01*
X64627327Y-66374768D01*
X64639899Y-66351224D01*
X64652330Y-66328879D01*
X64664622Y-66307732D01*
X64676773Y-66287783D01*
X64688784Y-66269033D01*
X64700654Y-66251482D01*
X64712384Y-66235130D01*
X64723975Y-66219976D01*
X64735497Y-66205456D01*
X64747503Y-66191205D01*
X64759994Y-66177220D01*
X64772968Y-66163503D01*
X64786427Y-66150052D01*
X64800369Y-66136870D01*
X64814795Y-66123954D01*
X64829706Y-66111306D01*
X64845101Y-66098925D01*
X64860979Y-66086811D01*
X64877342Y-66074965D01*
X64894188Y-66063386D01*
X64911519Y-66052074D01*
X64929333Y-66041029D01*
X64947631Y-66030252D01*
X64966414Y-66019742D01*
X64985698Y-66009690D01*
X65005503Y-66000286D01*
X65025828Y-65991531D01*
X65046674Y-65983424D01*
X65068040Y-65975965D01*
X65089926Y-65969154D01*
X65112333Y-65962992D01*
X65135259Y-65957478D01*
X65158707Y-65952612D01*
X65182674Y-65948394D01*
X65207162Y-65944825D01*
X65232170Y-65941904D01*
X65257698Y-65939632D01*
X65283747Y-65938007D01*
X65310315Y-65937031D01*
X65337405Y-65936704D01*
X65364779Y-65936789D01*
X65392486Y-65937726D01*
X65420526Y-65939514D01*
X65448899Y-65942152D01*
X65477606Y-65945641D01*
X65506645Y-65949982D01*
X65536017Y-65955173D01*
X65565722Y-65961215D01*
X65595761Y-65968108D01*
X65626132Y-65975852D01*
X65656836Y-65984448D01*
X65687873Y-65993894D01*
X65719243Y-66004191D01*
X65750947Y-66015339D01*
X65782983Y-66027339D01*
X65815352Y-66040189D01*
X65853482Y-66056297D01*
X65890361Y-66072992D01*
X65925988Y-66090276D01*
X65960363Y-66108148D01*
X65993487Y-66126608D01*
X66025360Y-66145657D01*
X66055980Y-66165293D01*
X66085349Y-66185517D01*
X66113467Y-66206330D01*
X66140333Y-66227731D01*
X66165947Y-66249720D01*
X66190310Y-66272297D01*
X66213421Y-66295462D01*
X66235280Y-66319215D01*
X66255888Y-66343556D01*
X66275244Y-66368486D01*
X66293376Y-66393820D01*
X66310299Y-66419378D01*
X66326016Y-66445158D01*
X66340524Y-66471160D01*
X66353825Y-66497386D01*
X66365918Y-66523834D01*
X66376803Y-66550504D01*
X66386014Y-66576100D01*
X66386481Y-66577397D01*
G37*
G36*
X81318106Y-64971613D02*
G01*
X81306070Y-64995507D01*
X81293243Y-65018802D01*
X81279625Y-65041500D01*
X81265217Y-65063599D01*
X81250017Y-65085100D01*
X81234027Y-65106004D01*
X81217246Y-65126309D01*
X81199674Y-65146016D01*
X81181311Y-65165125D01*
X81162157Y-65183636D01*
X81142212Y-65201549D01*
X81121476Y-65218864D01*
X81099949Y-65235581D01*
X81083177Y-65247790D01*
X81066363Y-65259323D01*
X81049507Y-65270181D01*
X81032610Y-65280364D01*
X81015672Y-65289872D01*
X80998692Y-65298705D01*
X80981670Y-65306863D01*
X80964607Y-65314345D01*
X80947502Y-65321153D01*
X80930356Y-65327286D01*
X80913169Y-65332744D01*
X80895939Y-65337527D01*
X80878669Y-65341635D01*
X80861356Y-65345067D01*
X80844002Y-65347825D01*
X80826607Y-65349908D01*
X80808802Y-65351268D01*
X80790943Y-65351963D01*
X80773029Y-65351993D01*
X80755061Y-65351357D01*
X80737038Y-65350056D01*
X80718961Y-65348089D01*
X80700829Y-65345458D01*
X80682643Y-65342160D01*
X80664402Y-65338198D01*
X80646107Y-65333570D01*
X80627758Y-65328276D01*
X80609354Y-65322318D01*
X80590895Y-65315694D01*
X80572382Y-65308404D01*
X80553815Y-65300449D01*
X80535193Y-65291829D01*
X80681406Y-65487062D01*
X80031189Y-65974027D01*
X79205952Y-64872132D01*
X79108916Y-64741434D01*
X79021639Y-64621503D01*
X78944122Y-64512341D01*
X78887041Y-64429452D01*
X79917736Y-64429452D01*
X80256008Y-64881131D01*
X80271207Y-64901263D01*
X80285825Y-64920296D01*
X80299863Y-64938231D01*
X80313320Y-64955067D01*
X80326196Y-64970805D01*
X80338491Y-64985444D01*
X80350206Y-64998985D01*
X80361340Y-65011427D01*
X80371894Y-65022771D01*
X80381867Y-65033017D01*
X80391259Y-65042163D01*
X80400070Y-65050212D01*
X80408301Y-65057162D01*
X80415952Y-65063013D01*
X80423021Y-65067766D01*
X80429510Y-65071420D01*
X80435411Y-65074194D01*
X80441438Y-65076409D01*
X80447591Y-65078066D01*
X80453871Y-65079164D01*
X80460277Y-65079703D01*
X80466809Y-65079684D01*
X80473468Y-65079106D01*
X80480253Y-65077969D01*
X80487164Y-65076273D01*
X80494201Y-65074019D01*
X80501365Y-65071206D01*
X80508655Y-65067834D01*
X80516072Y-65063904D01*
X80523615Y-65059415D01*
X80531284Y-65054367D01*
X80539080Y-65048760D01*
X80547039Y-65042496D01*
X80554372Y-65036096D01*
X80561078Y-65029560D01*
X80567158Y-65022888D01*
X80572611Y-65016079D01*
X80577438Y-65009135D01*
X80581638Y-65002055D01*
X80585212Y-64994839D01*
X80588159Y-64987487D01*
X80590480Y-64979998D01*
X80592175Y-64972374D01*
X80593243Y-64964614D01*
X80593684Y-64956718D01*
X80593499Y-64948686D01*
X80592688Y-64940518D01*
X80591250Y-64932214D01*
X80588854Y-64923587D01*
X80585584Y-64914143D01*
X80581440Y-64903881D01*
X80576420Y-64892801D01*
X80570526Y-64880904D01*
X80563757Y-64868188D01*
X80547595Y-64840304D01*
X80527934Y-64809149D01*
X80504774Y-64774723D01*
X80478116Y-64737025D01*
X80447958Y-64696057D01*
X80434124Y-64677788D01*
X80420503Y-64660207D01*
X80407095Y-64643314D01*
X80393899Y-64627110D01*
X80380916Y-64611593D01*
X80368146Y-64596764D01*
X80355588Y-64582624D01*
X80343244Y-64569171D01*
X80331112Y-64556407D01*
X80319193Y-64544330D01*
X80307486Y-64532942D01*
X80295993Y-64522242D01*
X80284712Y-64512230D01*
X80273644Y-64502905D01*
X80262789Y-64494269D01*
X80252146Y-64486322D01*
X80240768Y-64479118D01*
X80228120Y-64472402D01*
X80214202Y-64466171D01*
X80199015Y-64460428D01*
X80182558Y-64455171D01*
X80164832Y-64450400D01*
X80145836Y-64446116D01*
X80125570Y-64442319D01*
X80104034Y-64439007D01*
X80081229Y-64436183D01*
X80057155Y-64433845D01*
X80031810Y-64431993D01*
X79977313Y-64429750D01*
X79917736Y-64429452D01*
X78887041Y-64429452D01*
X78876364Y-64413948D01*
X78818366Y-64326323D01*
X78770127Y-64249467D01*
X78731648Y-64183380D01*
X78716069Y-64154374D01*
X78702929Y-64128060D01*
X78691555Y-64102704D01*
X78681583Y-64076983D01*
X78673013Y-64050898D01*
X78665845Y-64024449D01*
X78660079Y-63997636D01*
X78655715Y-63970460D01*
X78652753Y-63942919D01*
X78651192Y-63915014D01*
X78651034Y-63886746D01*
X78652278Y-63858113D01*
X78654924Y-63829116D01*
X78658971Y-63799756D01*
X78664421Y-63770031D01*
X78671272Y-63739943D01*
X78679525Y-63709490D01*
X78689181Y-63678674D01*
X78700388Y-63647452D01*
X78713608Y-63616195D01*
X78728840Y-63584905D01*
X78746085Y-63553580D01*
X78765341Y-63522221D01*
X78786610Y-63490828D01*
X78809890Y-63459400D01*
X78835183Y-63427939D01*
X78862488Y-63396443D01*
X78891805Y-63364913D01*
X78923135Y-63333349D01*
X78956476Y-63301751D01*
X78991830Y-63270119D01*
X79029196Y-63238452D01*
X79068574Y-63206751D01*
X79109965Y-63175016D01*
X79145226Y-63149254D01*
X79180279Y-63124939D01*
X79215124Y-63102070D01*
X79249762Y-63080648D01*
X79284193Y-63060673D01*
X79318415Y-63042145D01*
X79352430Y-63025063D01*
X79386237Y-63009429D01*
X79419837Y-62995240D01*
X79453229Y-62982499D01*
X79486413Y-62971205D01*
X79519389Y-62961357D01*
X79552158Y-62952956D01*
X79584719Y-62946001D01*
X79617072Y-62940494D01*
X79649218Y-62936433D01*
X79680897Y-62933569D01*
X79711853Y-62931651D01*
X79742084Y-62930679D01*
X79771591Y-62930653D01*
X79800374Y-62931573D01*
X79828433Y-62933438D01*
X79855768Y-62936249D01*
X79882379Y-62940006D01*
X79908265Y-62944709D01*
X79933428Y-62950358D01*
X79957866Y-62956953D01*
X79981581Y-62964493D01*
X80004571Y-62972979D01*
X80026837Y-62982412D01*
X80048379Y-62992789D01*
X80069197Y-63004113D01*
X80089408Y-63016486D01*
X80109855Y-63030115D01*
X80130536Y-63045001D01*
X80151452Y-63061143D01*
X80172604Y-63078542D01*
X80193990Y-63097198D01*
X80215611Y-63117110D01*
X80237467Y-63138278D01*
X80259557Y-63160703D01*
X80281883Y-63184385D01*
X80304444Y-63209323D01*
X80327239Y-63235517D01*
X80350270Y-63262968D01*
X80373535Y-63291676D01*
X80397036Y-63321640D01*
X80420771Y-63352861D01*
X80531050Y-63500112D01*
X79903996Y-63969731D01*
X79731757Y-63739751D01*
X79698759Y-63696230D01*
X79668535Y-63657491D01*
X79654464Y-63639914D01*
X79641086Y-63623534D01*
X79628402Y-63608348D01*
X79616411Y-63594359D01*
X79605114Y-63581564D01*
X79594511Y-63569965D01*
X79584601Y-63559562D01*
X79575385Y-63550354D01*
X79566862Y-63542341D01*
X79559033Y-63535524D01*
X79551898Y-63529902D01*
X79545456Y-63525476D01*
X79539136Y-63521765D01*
X79532676Y-63518704D01*
X79526078Y-63516292D01*
X79519340Y-63514529D01*
X79512462Y-63513414D01*
X79505446Y-63512949D01*
X79498290Y-63513133D01*
X79490995Y-63513966D01*
X79483561Y-63515448D01*
X79475987Y-63517579D01*
X79468275Y-63520359D01*
X79460423Y-63523788D01*
X79452431Y-63527867D01*
X79444301Y-63532594D01*
X79436031Y-63537970D01*
X79427622Y-63543996D01*
X79420468Y-63549677D01*
X79413895Y-63555569D01*
X79407903Y-63561671D01*
X79402492Y-63567983D01*
X79397663Y-63574505D01*
X79393414Y-63581238D01*
X79389747Y-63588181D01*
X79386661Y-63595335D01*
X79384156Y-63602698D01*
X79382232Y-63610272D01*
X79380889Y-63618057D01*
X79380128Y-63626052D01*
X79379947Y-63634257D01*
X79380348Y-63642672D01*
X79381330Y-63651298D01*
X79382893Y-63660134D01*
X79384842Y-63669418D01*
X79387705Y-63679490D01*
X79391481Y-63690351D01*
X79396171Y-63702001D01*
X79401774Y-63714440D01*
X79408290Y-63727667D01*
X79415721Y-63741683D01*
X79424064Y-63756487D01*
X79443492Y-63788463D01*
X79466574Y-63823593D01*
X79493309Y-63861878D01*
X79523699Y-63903318D01*
X79536374Y-63920053D01*
X79548688Y-63935930D01*
X79560641Y-63950947D01*
X79572232Y-63965104D01*
X79583463Y-63978402D01*
X79594332Y-63990841D01*
X79604840Y-64002421D01*
X79614987Y-64013141D01*
X79624773Y-64023001D01*
X79634198Y-64032003D01*
X79643262Y-64040145D01*
X79651964Y-64047427D01*
X79660306Y-64053850D01*
X79668286Y-64059414D01*
X79675905Y-64064119D01*
X79683163Y-64067964D01*
X79691683Y-64070813D01*
X79703088Y-64072531D01*
X79717378Y-64073117D01*
X79734552Y-64072571D01*
X79777557Y-64068085D01*
X79832101Y-64059072D01*
X79898185Y-64045532D01*
X79975809Y-64027466D01*
X80064973Y-64004873D01*
X80165676Y-63977754D01*
X80214310Y-63964392D01*
X80260973Y-63952143D01*
X80305664Y-63941007D01*
X80348385Y-63930984D01*
X80389135Y-63922074D01*
X80427914Y-63914276D01*
X80464721Y-63907592D01*
X80499558Y-63902021D01*
X80532424Y-63897562D01*
X80563319Y-63894216D01*
X80592243Y-63891984D01*
X80619197Y-63890864D01*
X80644179Y-63890857D01*
X80667190Y-63891964D01*
X80688231Y-63894183D01*
X80707300Y-63897515D01*
X80725541Y-63902245D01*
X80744093Y-63908657D01*
X80762958Y-63916753D01*
X80782134Y-63926531D01*
X80801623Y-63937992D01*
X80821424Y-63951137D01*
X80841537Y-63965964D01*
X80861962Y-63982474D01*
X80882699Y-64000667D01*
X80903748Y-64020543D01*
X80925110Y-64042102D01*
X80946783Y-64065344D01*
X80968769Y-64090269D01*
X80991067Y-64116877D01*
X81013676Y-64145168D01*
X81036598Y-64175141D01*
X81171660Y-64355481D01*
X81201541Y-64396565D01*
X81228920Y-64436678D01*
X81253796Y-64475821D01*
X81276170Y-64513993D01*
X81296042Y-64551194D01*
X81313411Y-64587424D01*
X81328278Y-64622684D01*
X81340642Y-64656973D01*
X81350504Y-64690292D01*
X81357863Y-64722640D01*
X81362720Y-64754017D01*
X81365075Y-64784424D01*
X81364927Y-64813860D01*
X81363914Y-64828214D01*
X81362276Y-64842325D01*
X81360013Y-64856194D01*
X81357124Y-64869820D01*
X81353609Y-64883203D01*
X81349469Y-64896344D01*
X81339805Y-64922032D01*
X81329351Y-64947122D01*
X81324945Y-64956718D01*
X81318106Y-64971613D01*
G37*
D13*
%TO.C,R3*%
X68653641Y-53520000D02*
X68346359Y-53520000D01*
X68653641Y-54280000D02*
X68346359Y-54280000D01*
%TO.C,C6*%
X77169190Y-41521693D02*
X77321693Y-41369190D01*
X77678307Y-42030810D02*
X77830810Y-41878307D01*
%TO.C,C2*%
X79359420Y-49590000D02*
X79640580Y-49590000D01*
X79359420Y-50610000D02*
X79640580Y-50610000D01*
%TO.C,R13*%
X42590760Y-62927017D02*
X42689787Y-63217905D01*
X43310213Y-62682095D02*
X43409240Y-62972983D01*
%TO.C,R7*%
X44522983Y-60040760D02*
X44232095Y-60139787D01*
X44767905Y-60760213D02*
X44477017Y-60859240D01*
%TO.C,R4*%
X74020000Y-63453641D02*
X74020000Y-63146359D01*
X74780000Y-63453641D02*
X74780000Y-63146359D01*
%TO.C,R11*%
X44153641Y-52920000D02*
X43846359Y-52920000D01*
X44153641Y-53680000D02*
X43846359Y-53680000D01*
%TO.C,R14*%
X51538641Y-52920000D02*
X51231359Y-52920000D01*
X51538641Y-53680000D02*
X51231359Y-53680000D01*
%TO.C,R5*%
X74020000Y-61146359D02*
X74020000Y-61453641D01*
X74780000Y-61146359D02*
X74780000Y-61453641D01*
%TO.C,R2*%
X74020000Y-59553641D02*
X74020000Y-59246359D01*
X74780000Y-59553641D02*
X74780000Y-59246359D01*
%TO.C,C7*%
X67921693Y-50469190D02*
X67769190Y-50621693D01*
X68430810Y-50978307D02*
X68278307Y-51130810D01*
%TO.C,C9*%
X75029779Y-48738896D02*
X75182282Y-48891399D01*
X75538896Y-48229779D02*
X75691399Y-48382282D01*
%TO.C,C15*%
X46990000Y-47484420D02*
X46990000Y-47765580D01*
X48010000Y-47484420D02*
X48010000Y-47765580D01*
%TO.C,R12*%
X43846359Y-53920000D02*
X44153641Y-53920000D01*
X43846359Y-54680000D02*
X44153641Y-54680000D01*
%TD*%
M02*
