%TF.GenerationSoftware,KiCad,Pcbnew,8.0.5-8.0.5-0~ubuntu22.04.1*%
%TF.CreationDate,2024-10-09T17:19:14-04:00*%
%TF.ProjectId,blinkencap,626c696e-6b65-46e6-9361-702e6b696361,1.0*%
%TF.SameCoordinates,Original*%
%TF.FileFunction,Other,User*%
%FSLAX46Y46*%
G04 Gerber Fmt 4.6, Leading zero omitted, Abs format (unit mm)*
G04 Created by KiCad (PCBNEW 8.0.5-8.0.5-0~ubuntu22.04.1) date 2024-10-09 17:19:14*
%MOMM*%
%LPD*%
G01*
G04 APERTURE LIST*
%ADD10C,0.050000*%
G04 APERTURE END LIST*
D10*
%TO.C,U2*%
X63554272Y-43915938D02*
X70809188Y-51170854D01*
X70809188Y-36661022D02*
X63554272Y-43915938D01*
X70809188Y-51170854D02*
X78064104Y-43915938D01*
X78064104Y-43915938D02*
X70809188Y-36661022D01*
%TO.C,FID3*%
X56650000Y-62200000D02*
G75*
G02*
X55150000Y-62200000I-750000J0D01*
G01*
X55150000Y-62200000D02*
G75*
G02*
X56650000Y-62200000I750000J0D01*
G01*
%TO.C,R24*%
X51820000Y-50970000D02*
X54780000Y-50970000D01*
X51820000Y-52430000D02*
X51820000Y-50970000D01*
X54780000Y-50970000D02*
X54780000Y-52430000D01*
X54780000Y-52430000D02*
X51820000Y-52430000D01*
%TO.C,R15*%
X50455000Y-53830000D02*
X52315000Y-53830000D01*
X50455000Y-54770000D02*
X50455000Y-53830000D01*
X52315000Y-53830000D02*
X52315000Y-54770000D01*
X52315000Y-54770000D02*
X50455000Y-54770000D01*
%TO.C,FID1*%
X89650000Y-55200000D02*
G75*
G02*
X88150000Y-55200000I-750000J0D01*
G01*
X88150000Y-55200000D02*
G75*
G02*
X89650000Y-55200000I750000J0D01*
G01*
%TO.C,C19*%
X50600000Y-48920000D02*
X54000000Y-48920000D01*
X50600000Y-50880000D02*
X50600000Y-48920000D01*
X54000000Y-48920000D02*
X54000000Y-50880000D01*
X54000000Y-50880000D02*
X50600000Y-50880000D01*
%TO.C,R17*%
X64670000Y-37430000D02*
X66530000Y-37430000D01*
X64670000Y-38370000D02*
X64670000Y-37430000D01*
X66530000Y-37430000D02*
X66530000Y-38370000D01*
X66530000Y-38370000D02*
X64670000Y-38370000D01*
%TO.C,R22*%
X57570000Y-40520000D02*
X59030000Y-40520000D01*
X57570000Y-43480000D02*
X57570000Y-40520000D01*
X59030000Y-40520000D02*
X59030000Y-43480000D01*
X59030000Y-43480000D02*
X57570000Y-43480000D01*
%TO.C,C18*%
X57520000Y-43500000D02*
X59480000Y-43500000D01*
X57520000Y-46900000D02*
X57520000Y-43500000D01*
X59480000Y-43500000D02*
X59480000Y-46900000D01*
X59480000Y-46900000D02*
X57520000Y-46900000D01*
%TO.C,C13*%
X67870675Y-36721213D02*
X68521213Y-36070675D01*
X68521213Y-36070675D02*
X69808147Y-37357609D01*
X69157609Y-38008147D02*
X67870675Y-36721213D01*
X69808147Y-37357609D02*
X69157609Y-38008147D01*
%TO.C,R1*%
X74930000Y-58470000D02*
X75870000Y-58470000D01*
X74930000Y-60330000D02*
X74930000Y-58470000D01*
X75870000Y-58470000D02*
X75870000Y-60330000D01*
X75870000Y-60330000D02*
X74930000Y-60330000D01*
%TO.C,C1*%
X77800000Y-55020000D02*
X81200000Y-55020000D01*
X77800000Y-56980000D02*
X77800000Y-55020000D01*
X81200000Y-55020000D02*
X81200000Y-56980000D01*
X81200000Y-56980000D02*
X77800000Y-56980000D01*
%TO.C,R9*%
X46670000Y-53830000D02*
X48530000Y-53830000D01*
X46670000Y-54770000D02*
X46670000Y-53830000D01*
X48530000Y-53830000D02*
X48530000Y-54770000D01*
X48530000Y-54770000D02*
X46670000Y-54770000D01*
%TO.C,U3*%
X48320000Y-41500000D02*
X48320000Y-48900000D01*
X48320000Y-48900000D02*
X57480000Y-48900000D01*
X57480000Y-41500000D02*
X48320000Y-41500000D01*
X57480000Y-48900000D02*
X57480000Y-41500000D01*
%TO.C,R16*%
X51370000Y-38520000D02*
X52830000Y-38520000D01*
X51370000Y-41480000D02*
X51370000Y-38520000D01*
X52830000Y-38520000D02*
X52830000Y-41480000D01*
X52830000Y-41480000D02*
X51370000Y-41480000D01*
%TO.C,R23*%
X49870000Y-50930000D02*
X51730000Y-50930000D01*
X49870000Y-51870000D02*
X49870000Y-50930000D01*
X51730000Y-50930000D02*
X51730000Y-51870000D01*
X51730000Y-51870000D02*
X49870000Y-51870000D01*
%TO.C,C17*%
X52920000Y-38100000D02*
X54880000Y-38100000D01*
X52920000Y-41500000D02*
X52920000Y-38100000D01*
X54880000Y-38100000D02*
X54880000Y-41500000D01*
X54880000Y-41500000D02*
X52920000Y-41500000D01*
%TO.C,Q1*%
X46700000Y-54780000D02*
X46700000Y-58620000D01*
X46700000Y-58620000D02*
X50100000Y-58620000D01*
X50100000Y-54780000D02*
X46700000Y-54780000D01*
X50100000Y-58620000D02*
X50100000Y-54780000D01*
%TO.C,FID2*%
X56650000Y-36200000D02*
G75*
G02*
X55150000Y-36200000I-750000J0D01*
G01*
X55150000Y-36200000D02*
G75*
G02*
X56650000Y-36200000I750000J0D01*
G01*
%TO.C,J1*%
X65050000Y-54800000D02*
X65050000Y-66600000D01*
X65050000Y-66600000D02*
X73750000Y-66600000D01*
X73750000Y-54800000D02*
X65050000Y-54800000D01*
X73750000Y-66600000D02*
X73750000Y-54800000D01*
%TO.C,Q3*%
X50100000Y-54780000D02*
X50100000Y-58620000D01*
X50100000Y-58620000D02*
X53500000Y-58620000D01*
X53500000Y-54780000D02*
X50100000Y-54780000D01*
X53500000Y-58620000D02*
X53500000Y-54780000D01*
%TO.C,Q2*%
X43100000Y-54780000D02*
X43100000Y-58620000D01*
X43100000Y-58620000D02*
X46500000Y-58620000D01*
X46500000Y-54780000D02*
X43100000Y-54780000D01*
X46500000Y-58620000D02*
X46500000Y-54780000D01*
%TO.C,C11*%
X68131264Y-51718198D02*
X69418198Y-50431264D01*
X68781802Y-52368736D02*
X68131264Y-51718198D01*
X69418198Y-50431264D02*
X70068736Y-51081802D01*
X70068736Y-51081802D02*
X68781802Y-52368736D01*
%TO.C,C4*%
X63020000Y-54300000D02*
X64980000Y-54300000D01*
X63020000Y-57700000D02*
X63020000Y-54300000D01*
X64980000Y-54300000D02*
X64980000Y-57700000D01*
X64980000Y-57700000D02*
X63020000Y-57700000D01*
%TO.C,U1*%
X77800000Y-50850000D02*
X77800000Y-54950000D01*
X77800000Y-54950000D02*
X81200000Y-54950000D01*
X81200000Y-50850000D02*
X77800000Y-50850000D01*
X81200000Y-54950000D02*
X81200000Y-50850000D01*
%TO.C,C16*%
X45840000Y-46615000D02*
X46760000Y-46615000D01*
X45840000Y-48435000D02*
X45840000Y-46615000D01*
X46760000Y-46615000D02*
X46760000Y-48435000D01*
X46760000Y-48435000D02*
X45840000Y-48435000D01*
%TO.C,C3*%
X78990000Y-48440000D02*
X80810000Y-48440000D01*
X78990000Y-49360000D02*
X78990000Y-48440000D01*
X80810000Y-48440000D02*
X80810000Y-49360000D01*
X80810000Y-49360000D02*
X78990000Y-49360000D01*
%TO.C,R6*%
X69770000Y-53430000D02*
X71630000Y-53430000D01*
X69770000Y-54370000D02*
X69770000Y-53430000D01*
X71630000Y-53430000D02*
X71630000Y-54370000D01*
X71630000Y-54370000D02*
X69770000Y-54370000D01*
%TO.C,C10*%
X63270675Y-46578787D02*
X64557609Y-45291853D01*
X63921213Y-47229325D02*
X63270675Y-46578787D01*
X64557609Y-45291853D02*
X65208147Y-45942391D01*
X65208147Y-45942391D02*
X63921213Y-47229325D01*
%TO.C,C14*%
X64337294Y-51430330D02*
X66430330Y-49337294D01*
X65369670Y-52462706D02*
X64337294Y-51430330D01*
X66430330Y-49337294D02*
X67462706Y-50369670D01*
X67462706Y-50369670D02*
X65369670Y-52462706D01*
%TO.C,R8*%
X46670000Y-52830000D02*
X48530000Y-52830000D01*
X46670000Y-53770000D02*
X46670000Y-52830000D01*
X48530000Y-52830000D02*
X48530000Y-53770000D01*
X48530000Y-53770000D02*
X46670000Y-53770000D01*
%TO.C,C12*%
X64931264Y-39181802D02*
X65581802Y-38531264D01*
X65581802Y-38531264D02*
X66868736Y-39818198D01*
X66218198Y-40468736D02*
X64931264Y-39181802D01*
X66868736Y-39818198D02*
X66218198Y-40468736D01*
%TO.C,C8*%
X77231264Y-42818198D02*
X78518198Y-41531264D01*
X77881802Y-43468736D02*
X77231264Y-42818198D01*
X78518198Y-41531264D02*
X79168736Y-42181802D01*
X79168736Y-42181802D02*
X77881802Y-43468736D01*
%TO.C,R20*%
X46370000Y-45130000D02*
X48230000Y-45130000D01*
X46370000Y-46070000D02*
X46370000Y-45130000D01*
X48230000Y-45130000D02*
X48230000Y-46070000D01*
X48230000Y-46070000D02*
X46370000Y-46070000D01*
%TO.C,R10*%
X51355368Y-60271081D02*
X52245218Y-59968151D01*
X51954782Y-62031849D02*
X51355368Y-60271081D01*
X52245218Y-59968151D02*
X52844632Y-61728919D01*
X52844632Y-61728919D02*
X51954782Y-62031849D01*
%TO.C,D1*%
X43341421Y-61969652D02*
X50928011Y-59431216D01*
X44451989Y-65288784D02*
X43341421Y-61969652D01*
X50928011Y-59431216D02*
X52038579Y-62750348D01*
X52038579Y-62750348D02*
X44451989Y-65288784D01*
%TO.C,R21*%
X57570000Y-46930000D02*
X59430000Y-46930000D01*
X57570000Y-47870000D02*
X57570000Y-46930000D01*
X59430000Y-46930000D02*
X59430000Y-47870000D01*
X59430000Y-47870000D02*
X57570000Y-47870000D01*
%TO.C,C5*%
X71631264Y-37218198D02*
X72918198Y-35931264D01*
X72281802Y-37868736D02*
X71631264Y-37218198D01*
X72918198Y-35931264D02*
X73568736Y-36581802D01*
X73568736Y-36581802D02*
X72281802Y-37868736D01*
%TO.C,R3*%
X67570000Y-53430000D02*
X69430000Y-53430000D01*
X67570000Y-54370000D02*
X67570000Y-53430000D01*
X69430000Y-53430000D02*
X69430000Y-54370000D01*
X69430000Y-54370000D02*
X67570000Y-54370000D01*
%TO.C,C6*%
X76531264Y-42018198D02*
X77818198Y-40731264D01*
X77181802Y-42668736D02*
X76531264Y-42018198D01*
X77818198Y-40731264D02*
X78468736Y-41381802D01*
X78468736Y-41381802D02*
X77181802Y-42668736D01*
%TO.C,C2*%
X78020000Y-49370000D02*
X80980000Y-49370000D01*
X78020000Y-50830000D02*
X78020000Y-49370000D01*
X80980000Y-49370000D02*
X80980000Y-50830000D01*
X80980000Y-50830000D02*
X78020000Y-50830000D01*
%TO.C,R13*%
X42255368Y-62221081D02*
X43145218Y-61918151D01*
X42854782Y-63981849D02*
X42255368Y-62221081D01*
X43145218Y-61918151D02*
X43744632Y-63678919D01*
X43744632Y-63678919D02*
X42854782Y-63981849D01*
%TO.C,R7*%
X43468151Y-60304782D02*
X45228919Y-59705368D01*
X43771081Y-61194632D02*
X43468151Y-60304782D01*
X45228919Y-59705368D02*
X45531849Y-60595218D01*
X45531849Y-60595218D02*
X43771081Y-61194632D01*
%TO.C,R4*%
X73930000Y-62370000D02*
X74870000Y-62370000D01*
X73930000Y-64230000D02*
X73930000Y-62370000D01*
X74870000Y-62370000D02*
X74870000Y-64230000D01*
X74870000Y-64230000D02*
X73930000Y-64230000D01*
%TO.C,R11*%
X43070000Y-52830000D02*
X44930000Y-52830000D01*
X43070000Y-53770000D02*
X43070000Y-52830000D01*
X44930000Y-52830000D02*
X44930000Y-53770000D01*
X44930000Y-53770000D02*
X43070000Y-53770000D01*
%TO.C,R14*%
X50455000Y-52830000D02*
X52315000Y-52830000D01*
X50455000Y-53770000D02*
X50455000Y-52830000D01*
X52315000Y-52830000D02*
X52315000Y-53770000D01*
X52315000Y-53770000D02*
X50455000Y-53770000D01*
%TO.C,R5*%
X73930000Y-60370000D02*
X74870000Y-60370000D01*
X73930000Y-62230000D02*
X73930000Y-60370000D01*
X74870000Y-60370000D02*
X74870000Y-62230000D01*
X74870000Y-62230000D02*
X73930000Y-62230000D01*
%TO.C,R2*%
X73930000Y-58470000D02*
X74870000Y-58470000D01*
X73930000Y-60330000D02*
X73930000Y-58470000D01*
X74870000Y-58470000D02*
X74870000Y-60330000D01*
X74870000Y-60330000D02*
X73930000Y-60330000D01*
%TO.C,C7*%
X67131264Y-51118198D02*
X68418198Y-49831264D01*
X67781802Y-51768736D02*
X67131264Y-51118198D01*
X68418198Y-49831264D02*
X69068736Y-50481802D01*
X69068736Y-50481802D02*
X67781802Y-51768736D01*
%TO.C,C9*%
X74391853Y-48242391D02*
X75042391Y-47591853D01*
X75042391Y-47591853D02*
X76329325Y-48878787D01*
X75678787Y-49529325D02*
X74391853Y-48242391D01*
X76329325Y-48878787D02*
X75678787Y-49529325D01*
%TO.C,C15*%
X46770000Y-46145000D02*
X48230000Y-46145000D01*
X46770000Y-49105000D02*
X46770000Y-46145000D01*
X48230000Y-46145000D02*
X48230000Y-49105000D01*
X48230000Y-49105000D02*
X46770000Y-49105000D01*
%TO.C,R12*%
X43070000Y-53830000D02*
X44930000Y-53830000D01*
X43070000Y-54770000D02*
X43070000Y-53830000D01*
X44930000Y-53830000D02*
X44930000Y-54770000D01*
X44930000Y-54770000D02*
X43070000Y-54770000D01*
%TD*%
M02*
